<?xml version="1.0" encoding="UTF-8"?>
<svg id="Calque_1" data-name="Calque 1" xmlns="http://www.w3.org/2000/svg" viewBox="0 0 436.92 136.2">
  <defs>
    <style>
      .cls-1 {
        fill: #fff;
      }

      .cls-2 {
        fill: #1f2a4f;
      }

      .cls-3 {
        fill: #93c021;
      }
    </style>
  </defs>
  <rect class="cls-1" width="436.92" height="136.2" rx="20.85" ry="20.85"/>
  <g>
    <g>
      <path class="cls-3" d="M160.53,97.95c-.4-.29-.87-.52-1.41-.7-.54-.17-1.09-.26-1.65-.26h-4.05v.46c.11,0,.25.03.41.06.16.03.3.08.44.14.15.07.25.16.3.28s.08.25.08.4v6.7c0,.16-.03.29-.09.4-.06.11-.15.2-.28.25-.07.03-.2.06-.4.08-.2.02-.37.04-.49.04v.46h3.85c.64,0,1.25-.09,1.85-.27.6-.18,1.14-.46,1.62-.83.48-.37.86-.85,1.16-1.43.3-.58.44-1.26.44-2.05,0-.85-.15-1.59-.46-2.22-.31-.63-.74-1.14-1.28-1.52ZM160.49,103.35c-.12.48-.32.91-.59,1.27-.26.35-.59.62-1.01.82-.41.2-.9.29-1.45.29-.48,0-.83-.08-1.07-.23-.23-.15-.35-.43-.35-.82v-7.13c.11,0,.28-.01.5-.02.22,0,.43,0,.6,0,.54,0,1.02.1,1.46.31.44.2.81.49,1.11.84.32.37.56.81.73,1.32.17.5.25,1.07.25,1.69s-.06,1.19-.19,1.67Z"/>
      <path class="cls-3" d="M167.71,105.46c-.28.18-.62.27-1,.27s-.71-.07-.98-.22-.5-.35-.67-.6c-.17-.26-.3-.57-.38-.91-.08-.34-.12-.73-.12-1.15h4.27v-.43c0-.39-.05-.75-.15-1.08-.1-.33-.25-.62-.45-.86-.21-.26-.48-.46-.82-.61-.34-.15-.74-.22-1.21-.22s-.87.09-1.24.28c-.37.19-.68.44-.93.75-.26.32-.45.69-.59,1.09-.13.4-.2.81-.2,1.23,0,.47.06.91.19,1.33.12.42.31.78.57,1.1.25.31.57.56.96.75s.84.27,1.36.27c.59,0,1.11-.15,1.56-.46s.82-.71,1.09-1.23l-.46-.28c-.26.47-.53.8-.81.98ZM165.04,100.71c.3-.38.68-.57,1.14-.57.28,0,.5.06.67.19s.31.29.41.49c.09.19.16.42.2.7.04.28.06.54.06.78h-2.98c.03-.68.19-1.21.49-1.59Z"/>
      <path class="cls-3" d="M179.49,105.71c-.13-.05-.22-.13-.27-.22-.05-.09-.08-.22-.08-.37v-3.35c0-.64-.15-1.15-.45-1.54-.3-.39-.76-.58-1.38-.58-.28,0-.53.03-.75.1-.22.07-.41.16-.58.26-.14.09-.29.21-.44.36-.16.15-.29.27-.39.38h-.03v-.91l-.09-.09-2.15.14v.43c.13,0,.25.03.37.05.11.02.21.06.29.11.11.08.2.18.26.3.06.12.09.26.09.41v3.98c0,.16-.03.28-.09.38-.06.1-.15.17-.27.21-.08.03-.17.04-.28.05-.11,0-.21.02-.31.03v.43h3.16v-.43c-.11,0-.22-.02-.33-.05-.11-.02-.21-.05-.3-.1-.12-.05-.21-.13-.28-.22-.06-.1-.09-.22-.09-.37v-3.71c.04-.07.1-.16.19-.28.09-.12.2-.22.34-.32.15-.1.32-.19.51-.27.19-.07.4-.11.64-.11.31,0,.57.12.79.37.22.25.32.6.32,1.06v3.32c0,.16-.03.28-.09.38-.06.1-.15.17-.27.21-.08.03-.18.04-.3.05-.12,0-.23.02-.33.03v.43h3.15v-.43c-.13,0-.24-.02-.32-.04-.08-.02-.17-.05-.27-.09Z"/>
      <path class="cls-3" d="M186.23,105.66c-.12-.07-.21-.16-.27-.26-.06-.1-.09-.24-.09-.41,0-.57,0-1.1.02-1.58.01-.48.02-1.03.02-1.66,0-.44-.06-.79-.17-1.07-.12-.28-.28-.5-.51-.66-.22-.17-.47-.27-.74-.32s-.59-.08-.96-.08c-.27,0-.54.04-.82.13-.28.08-.52.19-.71.31-.23.14-.41.31-.55.49-.14.18-.21.37-.21.58s.05.37.15.52c.1.15.26.23.48.23.24,0,.44-.06.57-.19.14-.13.21-.27.21-.42,0-.14-.02-.3-.06-.47-.04-.17-.06-.3-.06-.39.07-.07.19-.15.36-.21.17-.07.36-.1.56-.1.29,0,.52.06.68.18.16.12.28.26.37.42.08.14.13.3.15.46.02.16.04.27.04.33v.65c-.21.11-.61.27-1.21.47-.6.2-1,.34-1.19.41-.16.06-.33.14-.5.25-.18.1-.32.22-.43.35-.14.16-.24.33-.31.53-.07.2-.1.42-.1.67,0,.48.16.87.47,1.16.31.3.71.44,1.19.44.46,0,.85-.08,1.17-.25.32-.17.63-.41.91-.72h.04c.06.31.19.54.39.7.2.16.47.24.81.24.2,0,.37-.02.53-.07.15-.05.33-.11.54-.18v-.42c-.15,0-.29,0-.43,0-.14,0-.25-.03-.31-.06ZM184.65,104.96c-.16.21-.36.38-.6.53-.24.15-.51.23-.82.23-.29,0-.53-.09-.72-.26-.19-.17-.28-.44-.28-.8,0-.28.06-.52.19-.72s.3-.38.52-.53c.24-.16.5-.29.78-.39.28-.1.6-.21.97-.32l-.04,2.26Z"/>
      <path class="cls-3" d="M190.67,105.62c-.24,0-.42-.03-.56-.1-.14-.06-.24-.16-.31-.29-.07-.13-.12-.29-.14-.47-.02-.18-.03-.41-.03-.68v-3.6h1.84v-.63h-1.85v-2.01h-1.19v2.01h-1.19v.63h1.16v4.37c0,.5.11.88.33,1.15.22.27.6.41,1.14.41.37,0,.68-.04.93-.12.25-.08.52-.18.8-.3v-.48c-.09.03-.24.06-.45.08-.21.02-.37.03-.48.03Z"/>
      <path class="cls-3" d="M198.51,105.6c-.11-.07-.19-.16-.26-.27-.06-.1-.09-.23-.09-.38v-5.12l-.1-.09-2.35.16v.43c.19,0,.37.02.52.03.15.01.27.04.35.09.11.08.19.17.26.28.06.11.09.24.09.38v3.65c-.05.09-.12.18-.21.28-.09.1-.19.2-.31.29-.13.1-.28.19-.47.26-.19.07-.4.11-.64.11-.29,0-.54-.12-.75-.35s-.31-.59-.31-1.05v-4.48l-.1-.09-2.15.16v.43c.13,0,.26.03.38.05.12.02.22.06.3.11.11.08.2.17.26.28.06.11.09.24.09.4v3.08c0,.71.15,1.25.45,1.62.3.37.73.56,1.3.56.34,0,.59-.03.78-.09.18-.06.37-.15.57-.27.17-.1.32-.21.45-.34.13-.12.25-.24.35-.35h.04v.82l.1.09,2.11-.14v-.43c-.13,0-.25-.01-.36-.03-.11-.02-.2-.05-.28-.09Z"/>
      <path class="cls-3" d="M203.95,99.67c-.27,0-.58.09-.91.27-.33.18-.63.45-.9.8h-.03v-.91l-.09-.09-2.15.14v.43c.13,0,.25.03.37.05.11.02.21.06.29.11.11.08.2.18.26.31.06.13.09.26.09.4v3.98c0,.16-.03.28-.09.38-.06.1-.15.17-.27.21-.08.03-.17.04-.28.05-.11,0-.21.02-.31.03v.43h3.4v-.43c-.13,0-.28-.02-.45-.05-.17-.02-.31-.05-.42-.1-.13-.05-.22-.12-.28-.22-.06-.1-.09-.22-.09-.37v-3.75c.19-.31.42-.54.7-.71.27-.17.51-.25.72-.25-.01.08-.03.16-.04.24-.02.08-.02.17-.02.26,0,.15.06.29.19.42.13.13.31.19.56.19.23,0,.39-.09.5-.26.11-.17.16-.37.16-.59,0-.3-.09-.54-.26-.72-.17-.18-.4-.27-.67-.27Z"/>
      <path class="cls-3" d="M209.89,105.46c-.28.18-.62.27-1,.27s-.71-.07-.98-.22c-.27-.15-.5-.35-.67-.6-.17-.26-.3-.57-.38-.91-.08-.34-.12-.73-.12-1.15h4.27v-.43c0-.39-.05-.75-.15-1.08-.1-.33-.25-.62-.45-.86-.21-.26-.48-.46-.82-.61-.34-.15-.74-.22-1.21-.22s-.87.09-1.24.28c-.37.19-.68.44-.93.75-.26.32-.45.69-.59,1.09-.13.4-.2.81-.2,1.23,0,.47.06.91.19,1.33.12.42.31.78.57,1.1.25.31.57.56.96.75.39.18.84.27,1.36.27.59,0,1.11-.15,1.56-.46s.82-.71,1.09-1.23l-.46-.28c-.26.47-.53.8-.81.98ZM207.23,100.71c.3-.38.68-.57,1.14-.57.28,0,.5.06.67.19s.31.29.41.49c.09.19.16.42.2.7.04.28.06.54.06.78h-2.98c.03-.68.19-1.21.49-1.59Z"/>
      <path class="cls-3" d="M219.59,105.46c-.28.18-.62.27-1,.27s-.71-.07-.98-.22c-.27-.15-.5-.35-.67-.6-.17-.26-.3-.57-.38-.91-.08-.34-.12-.73-.12-1.15h4.27v-.43c0-.39-.05-.75-.15-1.08-.1-.33-.25-.62-.45-.86-.21-.26-.48-.46-.82-.61-.34-.15-.74-.22-1.21-.22s-.87.09-1.24.28c-.37.19-.68.44-.93.75-.26.32-.45.69-.59,1.09-.13.4-.2.81-.2,1.23,0,.47.06.91.19,1.33.12.42.31.78.57,1.1.25.31.57.56.96.75s.84.27,1.36.27c.59,0,1.11-.15,1.56-.46s.82-.71,1.09-1.23l-.46-.28c-.26.47-.53.8-.81.98ZM216.93,100.71c.3-.38.68-.57,1.14-.57.28,0,.5.06.67.19s.31.29.41.49c.09.19.16.42.2.7.04.28.06.54.06.78h-2.98c.03-.68.19-1.21.49-1.59Z"/>
      <path class="cls-3" d="M228.14,105.71c-.13-.05-.22-.13-.27-.22-.05-.09-.08-.22-.08-.37v-3.35c0-.64-.15-1.15-.45-1.54-.3-.39-.76-.58-1.38-.58-.28,0-.53.03-.75.1-.22.07-.41.16-.58.26-.14.09-.29.21-.44.36-.16.15-.29.27-.39.38h-.03v-.91l-.09-.09-2.15.14v.43c.13,0,.25.03.37.05.11.02.21.06.29.11.11.08.2.18.26.3.06.12.09.26.09.41v3.98c0,.16-.03.28-.09.38-.06.1-.15.17-.27.21-.08.03-.17.04-.28.05-.11,0-.21.02-.31.03v.43h3.16v-.43c-.11,0-.22-.02-.33-.05-.11-.02-.21-.05-.3-.1-.12-.05-.21-.13-.28-.22-.06-.1-.09-.22-.09-.37v-3.71c.04-.07.1-.16.19-.28.09-.12.2-.22.34-.32.15-.1.32-.19.51-.27.19-.07.4-.11.64-.11.31,0,.57.12.79.37.22.25.32.6.32,1.06v3.32c0,.16-.03.28-.09.38-.06.1-.15.17-.27.21-.08.03-.18.04-.3.05-.12,0-.23.02-.33.03v.43h3.15v-.43c-.13,0-.24-.02-.32-.04-.08-.02-.17-.05-.27-.09Z"/>
      <path class="cls-3" d="M235.05,105.6c-.17-.15-.35-.27-.55-.36-.2-.09-.4-.14-.6-.14-.14,0-.38-.02-.71-.04-.33-.02-.6-.04-.79-.04-.18,0-.35-.01-.52-.02s-.32-.03-.44-.07c-.13-.03-.24-.09-.33-.17-.09-.09-.14-.21-.14-.37s.05-.28.16-.37c.11-.09.21-.15.31-.19h.79c.61,0,1.15-.2,1.61-.59s.69-.87.69-1.44c0-.22-.04-.44-.12-.67-.08-.23-.2-.43-.36-.62v-.04h1.52v-.63h-2.25c-.2-.06-.4-.11-.59-.15-.19-.04-.39-.06-.59-.06-.71,0-1.29.2-1.75.59-.46.39-.68.89-.68,1.5,0,.41.12.76.35,1.07.23.31.56.56.97.75v.1c-.33.14-.58.31-.74.5-.16.19-.24.41-.24.64,0,.18.03.34.1.46.07.12.16.23.27.32.1.08.22.15.36.21.14.06.27.11.41.15v.09c-.54.02-.99.16-1.33.42-.35.26-.52.61-.52,1.05,0,.55.24.97.73,1.25.48.29,1.21.43,2.19.43.6,0,1.1-.06,1.5-.17.41-.11.75-.27,1.05-.48.27-.2.48-.44.61-.71.14-.27.2-.56.2-.87s-.05-.57-.15-.78-.24-.4-.41-.56ZM230.98,101.74c0-.21.02-.42.06-.62.04-.2.1-.38.19-.52.09-.16.21-.28.36-.36.15-.08.32-.13.53-.13.37,0,.67.15.87.45.21.3.31.71.31,1.22,0,.46-.1.84-.3,1.15-.2.3-.49.45-.87.45-.34,0-.61-.15-.82-.46-.21-.31-.32-.7-.32-1.18ZM233.99,108.31c-.37.25-.87.37-1.51.37-.37,0-.68-.04-.94-.11-.26-.07-.46-.16-.62-.28-.16-.12-.27-.25-.34-.39-.06-.14-.1-.29-.1-.44,0-.34.1-.62.3-.83.2-.22.53-.37,1-.46.5,0,.94.01,1.32.03.38.02.63.04.75.06.23.06.4.16.52.32.11.16.17.36.17.6,0,.5-.18.88-.55,1.12Z"/>
      <path class="cls-3" d="M241.71,105.66c-.12-.07-.21-.16-.27-.26-.06-.1-.09-.24-.09-.41,0-.57,0-1.1.02-1.58.01-.48.02-1.03.02-1.66,0-.44-.06-.79-.17-1.07-.12-.28-.28-.5-.51-.66-.22-.17-.47-.27-.74-.32s-.59-.08-.96-.08c-.27,0-.54.04-.82.13-.28.08-.52.19-.71.31-.23.14-.41.31-.55.49-.14.18-.21.37-.21.58s.05.37.15.52c.1.15.26.23.48.23.24,0,.44-.06.57-.19.14-.13.21-.27.21-.42,0-.14-.02-.3-.06-.47-.04-.17-.06-.3-.06-.39.07-.07.19-.15.36-.21.17-.07.36-.1.56-.1.29,0,.52.06.68.18.16.12.28.26.37.42.08.14.13.3.15.46.02.16.04.27.04.33v.65c-.21.11-.61.27-1.21.47-.6.2-1,.34-1.19.41-.16.06-.33.14-.5.25-.18.1-.32.22-.43.35-.14.16-.24.33-.31.53-.07.2-.1.42-.1.67,0,.48.16.87.47,1.16.31.3.71.44,1.19.44.46,0,.85-.08,1.17-.25.32-.17.63-.41.91-.72h.04c.06.31.19.54.39.7.2.16.47.24.81.24.2,0,.37-.02.53-.07.15-.05.33-.11.54-.18v-.42c-.15,0-.29,0-.43,0-.14,0-.25-.03-.31-.06ZM240.13,104.96c-.16.21-.36.38-.6.53-.24.15-.51.23-.82.23-.29,0-.53-.09-.72-.26-.19-.17-.28-.44-.28-.8,0-.28.06-.52.19-.72s.3-.38.52-.53c.24-.16.5-.29.78-.39.28-.1.6-.21.97-.32l-.04,2.26Z"/>
      <path class="cls-3" d="M248.62,105.6c-.17-.15-.35-.27-.55-.36-.2-.09-.4-.14-.6-.14-.14,0-.38-.02-.71-.04-.33-.02-.6-.04-.79-.04-.18,0-.35-.01-.52-.02s-.32-.03-.44-.07c-.13-.03-.24-.09-.33-.17-.09-.09-.14-.21-.14-.37s.05-.28.16-.37c.11-.09.21-.15.31-.19h.79c.61,0,1.15-.2,1.61-.59s.69-.87.69-1.44c0-.22-.04-.44-.12-.67-.08-.23-.2-.43-.36-.62v-.04h1.52v-.63h-2.25c-.2-.06-.4-.11-.59-.15-.19-.04-.39-.06-.59-.06-.71,0-1.29.2-1.75.59-.46.39-.68.89-.68,1.5,0,.41.12.76.35,1.07.23.31.56.56.97.75v.1c-.33.14-.58.31-.74.5-.16.19-.24.41-.24.64,0,.18.03.34.1.46.07.12.16.23.27.32.1.08.22.15.36.21.14.06.27.11.41.15v.09c-.54.02-.99.16-1.33.42-.35.26-.52.61-.52,1.05,0,.55.24.97.73,1.25.48.29,1.21.43,2.19.43.6,0,1.1-.06,1.5-.17s.75-.27,1.05-.48c.27-.2.48-.44.61-.71.14-.27.2-.56.2-.87s-.05-.57-.15-.78c-.1-.21-.24-.4-.41-.56ZM244.55,101.74c0-.21.02-.42.06-.62.04-.2.1-.38.19-.52.09-.16.21-.28.36-.36.15-.08.32-.13.53-.13.37,0,.67.15.87.45.21.3.31.71.31,1.22,0,.46-.1.84-.3,1.15-.2.3-.49.45-.87.45-.34,0-.61-.15-.82-.46-.21-.31-.32-.7-.32-1.18ZM247.56,108.31c-.37.25-.87.37-1.51.37-.37,0-.68-.04-.94-.11-.26-.07-.46-.16-.62-.28-.16-.12-.27-.25-.34-.39-.06-.14-.1-.29-.1-.44,0-.34.1-.62.3-.83.2-.22.53-.37,1-.46.5,0,.94.01,1.32.03.38.02.63.04.75.06.23.06.4.16.52.32.11.16.17.36.17.6,0,.5-.18.88-.55,1.12Z"/>
      <path class="cls-3" d="M254.37,105.46c-.28.18-.62.27-1,.27s-.71-.07-.98-.22c-.27-.15-.5-.35-.67-.6-.17-.26-.3-.57-.38-.91-.08-.34-.12-.73-.12-1.15h4.27v-.43c0-.39-.05-.75-.15-1.08-.1-.33-.25-.62-.45-.86-.21-.26-.48-.46-.82-.61-.34-.15-.74-.22-1.21-.22s-.87.09-1.24.28c-.37.19-.68.44-.93.75-.26.32-.45.69-.59,1.09-.13.4-.2.81-.2,1.23,0,.47.06.91.19,1.33.12.42.31.78.57,1.1.25.31.57.56.96.75.39.18.84.27,1.36.27.59,0,1.11-.15,1.56-.46.45-.31.82-.71,1.09-1.23l-.46-.28c-.26.47-.53.8-.81.98ZM251.71,100.71c.3-.38.68-.57,1.14-.57.28,0,.5.06.67.19s.31.29.41.49c.09.19.16.42.2.7.04.28.06.54.06.78h-2.98c.03-.68.19-1.21.49-1.59Z"/>
      <path class="cls-3" d="M253.12,98.13c.35-.27.64-.49.85-.67.15-.12.26-.23.34-.33s.11-.24.11-.41c0-.13-.05-.24-.15-.35-.1-.11-.23-.16-.39-.16-.17,0-.31.04-.44.12-.13.08-.26.23-.39.45-.18.29-.35.55-.5.79-.15.24-.43.65-.82,1.23l.25.21c.41-.32.78-.61,1.13-.88Z"/>
      <path class="cls-3" d="M260.65,103.11c-.17-.15-.38-.28-.63-.4-.25-.12-.53-.23-.81-.32-.29-.1-.54-.18-.74-.26-.2-.08-.36-.16-.49-.25-.14-.09-.24-.2-.3-.33-.07-.13-.1-.29-.1-.49,0-.25.1-.47.31-.65.2-.18.49-.27.84-.27.44,0,.81.15,1.11.44.3.29.5.67.59,1.13h.45l-.1-2.07h-.47l-.15.34c-.17-.09-.38-.17-.64-.24-.26-.06-.52-.1-.77-.1-.66,0-1.18.18-1.58.55-.39.37-.59.81-.59,1.34,0,.3.06.56.18.78.12.22.28.41.47.56.18.14.39.27.64.38s.48.19.68.25c.26.08.49.16.7.24.21.08.39.17.53.27.14.1.25.22.32.35.07.13.11.29.11.47,0,.36-.11.63-.34.82-.23.19-.55.29-.97.29-.3,0-.56-.07-.8-.2-.24-.13-.44-.29-.61-.49-.16-.18-.3-.39-.41-.62-.11-.23-.19-.43-.22-.6h-.45l.07,2.24h.49l.13-.43c.14.11.36.24.68.37.32.13.66.2,1.04.2.71,0,1.29-.19,1.74-.57.45-.38.67-.87.67-1.46,0-.3-.05-.55-.14-.75-.1-.2-.23-.39-.41-.54Z"/>
      <path class="cls-3" d="M263.39,104.62c-.26,0-.46.09-.61.26-.15.17-.22.35-.22.53,0,.26.08.46.25.62.16.15.39.23.68.23h.33c-.03.23-.09.43-.18.61-.09.18-.2.34-.33.5-.1.13-.24.26-.4.39-.17.13-.35.26-.56.39l.3.44c.17-.09.37-.22.58-.38.21-.16.41-.35.59-.56.18-.2.35-.44.49-.72.14-.28.21-.58.21-.89,0-.44-.09-.79-.28-1.04s-.47-.38-.84-.38Z"/>
      <path class="cls-3" d="M275.29,105.6c-.11-.07-.2-.16-.26-.27-.06-.11-.09-.24-.09-.39v-8.69l-.1-.1-2.64.14v.41c.24.02.46.04.67.08.21.04.37.1.49.18.11.08.19.19.26.34.06.15.09.32.09.5v2.25c-.21-.12-.46-.21-.75-.29s-.58-.11-.88-.11c-.4,0-.79.09-1.18.26-.39.17-.71.41-.98.7-.28.31-.51.68-.67,1.1-.16.42-.24.86-.24,1.33,0,.51.08.98.23,1.4.15.42.35.78.61,1.08.25.3.55.53.89.69.34.16.7.25,1.06.25s.7-.08,1.03-.24c.33-.16.61-.37.84-.62h.05v.61l.1.09,2.26-.14v-.43c-.13,0-.27-.01-.43-.03-.16-.01-.28-.05-.36-.1ZM273.71,105.02c-.16.18-.35.35-.58.5-.23.15-.52.23-.86.23-.33,0-.61-.07-.84-.22-.24-.15-.43-.34-.58-.59-.17-.26-.28-.53-.35-.83-.07-.3-.1-.63-.1-1,0-.46.05-.87.14-1.25.09-.38.22-.69.38-.93.17-.25.36-.45.58-.58.22-.14.46-.2.72-.2.23,0,.42.04.59.11.17.07.32.16.44.27.12.11.22.23.29.36.08.13.14.25.17.37v3.77Z"/>
      <path class="cls-3" d="M281.17,105.46c-.28.18-.62.27-1,.27s-.71-.07-.98-.22c-.27-.15-.5-.35-.67-.6-.17-.26-.3-.57-.38-.91-.08-.34-.12-.73-.12-1.15h4.27v-.43c0-.39-.05-.75-.15-1.08-.1-.33-.25-.62-.45-.86-.21-.26-.48-.46-.82-.61-.34-.15-.74-.22-1.21-.22s-.87.09-1.24.28c-.37.19-.68.44-.93.75-.26.32-.45.69-.59,1.09-.13.4-.2.81-.2,1.23,0,.47.06.91.19,1.33.12.42.31.78.57,1.1.25.31.57.56.96.75.39.18.84.27,1.36.27.59,0,1.11-.15,1.56-.46.45-.31.82-.71,1.09-1.23l-.46-.28c-.26.47-.53.8-.81.98ZM278.5,100.71c.3-.38.68-.57,1.14-.57.28,0,.5.06.67.19.17.13.31.29.41.49.09.19.16.42.2.7.04.28.06.54.06.78h-2.98c.03-.68.19-1.21.49-1.59Z"/>
      <path class="cls-3" d="M290.78,105.42c-.28.21-.64.31-1.06.31-.58,0-1.05-.26-1.41-.77-.36-.51-.54-1.17-.54-1.99,0-.51.05-.96.15-1.33.1-.37.23-.66.39-.88.18-.24.36-.4.55-.49.19-.09.39-.13.6-.13.18,0,.34.02.5.07.15.05.27.14.35.27,0,.1-.04.25-.09.45-.05.21-.08.41-.08.6,0,.16.07.31.21.44.14.13.34.2.6.2.24,0,.41-.08.52-.25s.16-.36.16-.58c0-.52-.2-.94-.6-1.24-.4-.3-.91-.45-1.54-.45-.46,0-.88.09-1.27.28-.39.19-.71.44-.97.75-.27.32-.48.68-.62,1.08-.14.39-.21.82-.21,1.27,0,1.04.26,1.87.79,2.49.53.62,1.26.93,2.19.93.5,0,.99-.15,1.46-.45.47-.3.85-.71,1.14-1.22l-.42-.27c-.24.41-.51.72-.79.93Z"/>
      <path class="cls-3" d="M298.77,105.6c-.11-.07-.19-.16-.26-.27-.06-.1-.09-.23-.09-.38v-5.12l-.1-.09-2.35.16v.43c.19,0,.37.02.52.03.15.01.27.04.35.09.11.08.19.17.26.28.06.11.09.24.09.38v3.65c-.05.09-.12.18-.21.28-.09.1-.19.2-.31.29-.13.1-.28.19-.47.26-.19.07-.4.11-.64.11-.29,0-.54-.12-.75-.35s-.31-.59-.31-1.05v-4.48l-.1-.09-2.15.16v.43c.13,0,.26.03.38.05.12.02.22.06.3.11.11.08.2.17.26.28.06.11.09.24.09.4v3.08c0,.71.15,1.25.45,1.62.3.37.73.56,1.3.56.34,0,.59-.03.78-.09.18-.06.37-.15.57-.27.17-.1.32-.21.45-.34.13-.12.25-.24.35-.35h.04v.82l.1.09,2.11-.14v-.43c-.13,0-.25-.01-.36-.03-.11-.02-.2-.05-.28-.09Z"/>
      <path class="cls-3" d="M302.62,105.7c-.13-.05-.22-.13-.27-.23-.06-.1-.08-.22-.08-.38v-8.85l-.09-.1-2.43.14v.42c.13,0,.29.03.5.08.21.04.35.09.43.14.11.08.2.19.27.32.07.14.1.28.1.44v7.47c0,.16-.03.28-.09.38-.06.1-.15.17-.28.21-.07.02-.17.04-.28.05-.11.01-.22.02-.32.03v.43h3.15v-.43c-.12,0-.22-.02-.32-.05-.09-.02-.19-.05-.28-.1Z"/>
      <path class="cls-3" d="M307.09,105.62c-.24,0-.42-.03-.56-.1-.14-.06-.24-.16-.31-.29-.07-.13-.12-.29-.14-.47-.02-.18-.03-.41-.03-.68v-3.6h1.84v-.63h-1.85v-2.01h-1.19v2.01h-1.19v.63h1.16v4.37c0,.5.11.88.33,1.15.22.27.6.41,1.14.41.37,0,.68-.04.93-.12.25-.08.52-.18.8-.3v-.48c-.09.03-.24.06-.45.08-.21.02-.37.03-.48.03Z"/>
      <path class="cls-3" d="M314.93,105.6c-.11-.07-.19-.16-.26-.27-.06-.1-.09-.23-.09-.38v-5.12l-.1-.09-2.35.16v.43c.19,0,.37.02.52.03.15.01.27.04.35.09.11.08.19.17.26.28.06.11.09.24.09.38v3.65c-.05.09-.12.18-.21.28-.09.1-.19.2-.31.29-.13.1-.28.19-.47.26-.19.07-.4.11-.64.11-.29,0-.54-.12-.75-.35s-.31-.59-.31-1.05v-4.48l-.1-.09-2.15.16v.43c.13,0,.26.03.38.05.12.02.22.06.3.11.11.08.2.17.26.28.06.11.09.24.09.4v3.08c0,.71.15,1.25.45,1.62.3.37.73.56,1.3.56.34,0,.59-.03.78-.09.18-.06.37-.15.57-.27.17-.1.32-.21.45-.34.13-.12.25-.24.35-.35h.04v.82l.1.09,2.11-.14v-.43c-.13,0-.25-.01-.36-.03s-.2-.05-.28-.09Z"/>
      <path class="cls-3" d="M320.37,99.67c-.27,0-.58.09-.91.27s-.63.45-.9.8h-.03v-.91l-.09-.09-2.15.14v.43c.13,0,.25.03.37.05.11.02.21.06.29.11.11.08.2.18.26.31.06.13.09.26.09.4v3.98c0,.16-.03.28-.09.38-.06.1-.15.17-.27.21-.08.03-.17.04-.28.05-.11,0-.21.02-.31.03v.43h3.4v-.43c-.13,0-.28-.02-.45-.05-.17-.02-.31-.05-.42-.1-.13-.05-.22-.12-.28-.22-.06-.1-.09-.22-.09-.37v-3.75c.19-.31.42-.54.7-.71.27-.17.51-.25.72-.25-.01.08-.03.16-.04.24-.02.08-.02.17-.02.26,0,.15.06.29.19.42.13.13.31.19.56.19.23,0,.39-.09.5-.26.11-.17.16-.37.16-.59,0-.3-.09-.54-.26-.72-.17-.18-.4-.27-.67-.27Z"/>
      <path class="cls-3" d="M326.31,105.46c-.28.18-.62.27-1,.27s-.71-.07-.98-.22c-.27-.15-.5-.35-.67-.6-.17-.26-.3-.57-.38-.91-.08-.34-.12-.73-.12-1.15h4.27v-.43c0-.39-.05-.75-.15-1.08-.1-.33-.25-.62-.45-.86-.21-.26-.48-.46-.82-.61-.34-.15-.74-.22-1.21-.22s-.87.09-1.24.28c-.37.19-.68.44-.93.75-.26.32-.45.69-.59,1.09-.13.4-.2.81-.2,1.23,0,.47.06.91.19,1.33.12.42.31.78.57,1.1.25.31.57.56.96.75s.84.27,1.36.27c.59,0,1.11-.15,1.56-.46s.82-.71,1.09-1.23l-.46-.28c-.26.47-.53.8-.81.98ZM323.64,100.71c.3-.38.68-.57,1.14-.57.28,0,.5.06.67.19s.31.29.41.49c.09.19.16.42.2.7.04.28.06.54.06.78h-2.98c.03-.68.19-1.21.49-1.59Z"/>
      <path class="cls-3" d="M337.45,100.59c-.24-.29-.53-.52-.86-.69-.33-.17-.7-.25-1.1-.25-.33,0-.66.09-1,.26-.34.17-.62.39-.84.65h-.05v-.74l-.09-.08-2.2.14v.43c.13,0,.27.03.41.06.14.03.25.07.33.12.1.07.19.17.26.29s.1.25.1.38v6.86c0,.15-.03.28-.08.39-.05.11-.14.19-.28.23-.1.03-.21.05-.34.06-.13.01-.26.02-.39.03v.43h3.6v-.43c-.13,0-.29-.03-.48-.06-.19-.04-.34-.08-.45-.11-.13-.05-.22-.12-.28-.23-.06-.11-.09-.24-.09-.39v-1.94h.05c.16.12.36.22.61.31.25.09.57.13.95.13s.78-.08,1.14-.24c.36-.16.68-.39.97-.69.28-.3.5-.66.67-1.08.17-.42.25-.89.25-1.4s-.07-.98-.21-1.38c-.14-.4-.34-.76-.6-1.06ZM336.77,104.28c-.08.36-.21.67-.39.94-.15.24-.34.42-.57.55-.23.13-.46.19-.71.19-.23,0-.42-.03-.58-.1-.16-.07-.3-.16-.44-.27-.11-.09-.21-.2-.3-.33-.09-.13-.15-.25-.19-.37v-3.81c.17-.2.36-.37.59-.51.23-.14.5-.21.82-.21s.62.08.86.24c.24.16.43.36.58.61.15.25.26.54.33.88s.1.66.1.99c0,.44-.04.84-.12,1.2Z"/>
      <path class="cls-3" d="M344.57,105.66c-.12-.07-.21-.16-.27-.26-.06-.1-.09-.24-.09-.41,0-.57,0-1.1.02-1.58.01-.48.02-1.03.02-1.66,0-.44-.06-.79-.17-1.07-.12-.28-.28-.5-.51-.66-.22-.17-.47-.27-.74-.32s-.59-.08-.96-.08c-.27,0-.54.04-.82.13-.28.08-.52.19-.71.31-.23.14-.41.31-.55.49-.14.18-.21.37-.21.58s.05.37.15.52.26.23.48.23c.24,0,.44-.06.57-.19.14-.13.21-.27.21-.42,0-.14-.02-.3-.06-.47-.04-.17-.06-.3-.06-.39.07-.07.19-.15.36-.21.17-.07.36-.1.56-.1.29,0,.52.06.68.18.16.12.28.26.37.42.08.14.13.3.15.46.02.16.04.27.04.33v.65c-.21.11-.61.27-1.21.47s-1,.34-1.19.41c-.16.06-.33.14-.5.25-.18.1-.32.22-.43.35-.14.16-.24.33-.31.53-.07.2-.1.42-.1.67,0,.48.16.87.47,1.16.31.3.71.44,1.19.44.46,0,.85-.08,1.17-.25.32-.17.63-.41.91-.72h.04c.06.31.19.54.39.7.2.16.47.24.81.24.2,0,.37-.02.53-.07.15-.05.33-.11.54-.18v-.42c-.15,0-.29,0-.43,0-.14,0-.25-.03-.31-.06ZM342.99,104.96c-.16.21-.36.38-.6.53-.24.15-.51.23-.82.23-.29,0-.53-.09-.72-.26-.19-.17-.28-.44-.28-.8,0-.28.06-.52.19-.72s.3-.38.52-.53c.24-.16.5-.29.78-.39.28-.1.6-.21.97-.32l-.04,2.26Z"/>
      <path class="cls-3" d="M350.21,103.11c-.17-.15-.38-.28-.63-.4-.25-.12-.53-.23-.81-.32-.29-.1-.54-.18-.74-.26-.2-.08-.36-.16-.49-.25-.14-.09-.24-.2-.3-.33-.07-.13-.1-.29-.1-.49,0-.25.1-.47.31-.65.2-.18.49-.27.84-.27.44,0,.81.15,1.11.44.3.29.5.67.59,1.13h.45l-.1-2.07h-.47l-.15.34c-.17-.09-.38-.17-.64-.24-.26-.06-.52-.1-.77-.1-.66,0-1.18.18-1.58.55-.39.37-.59.81-.59,1.34,0,.3.06.56.18.78.12.22.28.41.47.56.18.14.39.27.64.38s.48.19.68.25c.26.08.49.16.7.24.21.08.39.17.53.27.14.1.25.22.32.35.07.13.11.29.11.47,0,.36-.11.63-.34.82-.23.19-.55.29-.97.29-.3,0-.56-.07-.8-.2-.24-.13-.44-.29-.61-.49-.16-.18-.3-.39-.41-.62-.11-.23-.19-.43-.22-.6h-.45l.07,2.24h.49l.13-.43c.14.11.36.24.68.37.32.13.66.2,1.04.2.71,0,1.29-.19,1.74-.57.45-.38.67-.87.67-1.46,0-.3-.05-.55-.14-.75-.1-.2-.23-.39-.41-.54Z"/>
      <path class="cls-3" d="M356,103.11c-.17-.15-.38-.28-.63-.4-.25-.12-.53-.23-.81-.32-.29-.1-.54-.18-.74-.26-.2-.08-.36-.16-.49-.25-.14-.09-.24-.2-.3-.33-.07-.13-.1-.29-.1-.49,0-.25.1-.47.31-.65.2-.18.49-.27.84-.27.44,0,.81.15,1.11.44.3.29.5.67.59,1.13h.45l-.1-2.07h-.47l-.15.34c-.17-.09-.38-.17-.64-.24-.26-.06-.52-.1-.77-.1-.66,0-1.18.18-1.58.55-.39.37-.59.81-.59,1.34,0,.3.06.56.18.78.12.22.28.41.47.56.18.14.39.27.64.38s.48.19.68.25c.26.08.49.16.7.24.21.08.39.17.53.27.14.1.25.22.32.35.07.13.11.29.11.47,0,.36-.11.63-.34.82-.23.19-.55.29-.97.29-.3,0-.56-.07-.8-.2-.24-.13-.44-.29-.61-.49-.16-.18-.3-.39-.41-.62-.11-.23-.19-.43-.22-.6h-.45l.07,2.24h.49l.13-.43c.14.11.36.24.68.37.32.13.66.2,1.04.2.71,0,1.29-.19,1.74-.57.45-.38.67-.87.67-1.46,0-.3-.05-.55-.14-.75-.1-.2-.23-.39-.41-.54Z"/>
      <path class="cls-3" d="M358.99,98.13c.24,0,.44-.09.6-.28.16-.19.24-.4.24-.65,0-.22-.08-.42-.24-.58s-.36-.25-.61-.25c-.22,0-.42.09-.58.27-.16.18-.25.39-.25.63,0,.23.08.43.25.6.16.18.36.27.58.27Z"/>
      <path class="cls-3" d="M360.07,105.7c-.13-.05-.22-.12-.28-.22s-.09-.23-.09-.38v-5.26l-.09-.09-2.28.14v.43c.13,0,.27.03.43.07.16.04.28.08.36.13.11.08.2.18.26.29.06.12.1.24.1.38v3.98c0,.16-.03.28-.09.38-.06.1-.15.17-.27.21-.08.03-.17.04-.28.05-.11,0-.21.02-.31.03v.43h3.11v-.43c-.11,0-.21-.03-.31-.05-.09-.02-.18-.06-.28-.09Z"/>
      <path class="cls-3" d="M364.63,99.64c-.95,0-1.72.32-2.31.96-.59.64-.88,1.46-.88,2.47,0,.52.08.99.25,1.42.17.42.39.78.68,1.07.29.3.62.52.99.68.37.15.76.23,1.17.23.49,0,.94-.09,1.34-.25.4-.17.75-.43,1.05-.78.27-.31.47-.68.62-1.11.14-.44.22-.88.22-1.34,0-1.01-.29-1.82-.88-2.43-.59-.61-1.33-.91-2.24-.91ZM365.91,105.18c-.32.53-.75.79-1.3.79-.33,0-.61-.08-.84-.24-.22-.16-.41-.38-.56-.66-.15-.28-.26-.6-.32-.95-.07-.36-.1-.74-.1-1.16,0-.32.03-.65.09-.99.06-.34.16-.64.29-.91.15-.29.34-.51.58-.68.24-.17.53-.25.86-.25s.6.08.83.25c.23.16.41.38.55.65.13.25.23.56.29.92.07.36.1.71.1,1.04,0,.93-.16,1.66-.48,2.18Z"/>
      <path class="cls-3" d="M375.21,105.71c-.13-.05-.22-.13-.27-.22-.05-.09-.08-.22-.08-.37v-3.35c0-.64-.15-1.15-.45-1.54-.3-.39-.76-.58-1.38-.58-.28,0-.53.03-.75.1-.22.07-.41.16-.58.26-.14.09-.29.21-.44.36-.16.15-.29.27-.39.38h-.03v-.91l-.09-.09-2.15.14v.43c.13,0,.25.03.37.05.11.02.21.06.29.11.11.08.2.18.26.3.06.12.09.26.09.41v3.98c0,.16-.03.28-.09.38-.06.1-.15.17-.27.21-.08.03-.17.04-.28.05-.11,0-.21.02-.31.03v.43h3.16v-.43c-.11,0-.22-.02-.33-.05-.11-.02-.21-.05-.3-.1-.12-.05-.21-.13-.28-.22-.06-.1-.09-.22-.09-.37v-3.71c.04-.07.1-.16.19-.28.09-.12.2-.22.34-.32.15-.1.32-.19.51-.27.19-.07.4-.11.64-.11.31,0,.57.12.79.37.22.25.32.6.32,1.06v3.32c0,.16-.03.28-.09.38-.06.1-.15.17-.27.21-.08.03-.18.04-.3.05-.12,0-.23.02-.33.03v.43h3.15v-.43c-.13,0-.24-.02-.32-.04-.08-.02-.17-.05-.27-.09Z"/>
      <path class="cls-3" d="M383.12,105.71c-.13-.05-.22-.13-.27-.22-.05-.09-.08-.22-.08-.37v-3.35c0-.64-.15-1.15-.45-1.54-.3-.39-.76-.58-1.38-.58-.28,0-.53.03-.75.1-.22.07-.41.16-.58.26-.14.09-.29.21-.44.36-.16.15-.29.27-.39.38h-.03v-.91l-.09-.09-2.15.14v.43c.13,0,.25.03.37.05.11.02.21.06.29.11.11.08.2.18.26.3.06.12.09.26.09.41v3.98c0,.16-.03.28-.09.38-.06.1-.15.17-.27.21-.08.03-.17.04-.28.05-.11,0-.21.02-.31.03v.43h3.16v-.43c-.11,0-.22-.02-.33-.05-.11-.02-.21-.05-.3-.1-.12-.05-.21-.13-.28-.22-.06-.1-.09-.22-.09-.37v-3.71c.04-.07.1-.16.19-.28.09-.12.2-.22.34-.32.15-.1.32-.19.51-.27.19-.07.4-.11.64-.11.31,0,.57.12.79.37.22.25.32.6.32,1.06v3.32c0,.16-.03.28-.09.38-.06.1-.15.17-.27.21-.08.03-.18.04-.3.05-.12,0-.23.02-.33.03v.43h3.15v-.43c-.13,0-.24-.02-.32-.04-.08-.02-.17-.05-.27-.09Z"/>
      <path class="cls-3" d="M388.96,105.46c-.28.18-.62.27-1,.27s-.71-.07-.98-.22-.5-.35-.67-.6c-.17-.26-.3-.57-.38-.91-.08-.34-.12-.73-.12-1.15h4.27v-.43c0-.39-.05-.75-.15-1.08-.1-.33-.25-.62-.45-.86-.21-.26-.48-.46-.82-.61-.34-.15-.74-.22-1.21-.22s-.87.09-1.24.28c-.37.19-.68.44-.93.75-.26.32-.45.69-.59,1.09-.13.4-.2.81-.2,1.23,0,.47.06.91.19,1.33.12.42.31.78.57,1.1.25.31.57.56.96.75s.84.27,1.36.27c.59,0,1.11-.15,1.56-.46s.82-.71,1.09-1.23l-.46-.28c-.26.47-.53.8-.81.98ZM386.3,100.71c.3-.38.68-.57,1.14-.57.28,0,.5.06.67.19s.31.29.41.49c.09.19.16.42.2.7.04.28.06.54.06.78h-2.98c.03-.68.19-1.21.49-1.59Z"/>
      <path class="cls-3" d="M387.71,98.13c.35-.27.64-.49.85-.67.15-.12.26-.23.34-.33s.11-.24.11-.41c0-.13-.05-.24-.15-.35-.1-.11-.23-.16-.39-.16-.17,0-.31.04-.44.12-.13.08-.26.23-.39.45-.18.29-.35.55-.5.79s-.43.65-.82,1.23l.25.21c.41-.32.78-.61,1.13-.88Z"/>
      <path class="cls-3" d="M395.65,103.66c-.1-.2-.23-.39-.41-.54-.17-.15-.38-.28-.63-.4-.25-.12-.53-.23-.81-.32-.29-.1-.54-.18-.74-.26-.2-.08-.36-.16-.49-.25-.14-.09-.24-.2-.3-.33-.07-.13-.1-.29-.1-.49,0-.25.1-.47.31-.65.2-.18.49-.27.84-.27.44,0,.81.15,1.11.44.3.29.5.67.59,1.13h.45l-.1-2.07h-.47l-.15.34c-.17-.09-.38-.17-.64-.24-.26-.06-.52-.1-.77-.1-.66,0-1.18.18-1.58.55-.39.37-.59.81-.59,1.34,0,.3.06.56.18.78.12.22.28.41.47.56.18.14.39.27.64.38s.48.19.68.25c.26.08.49.16.7.24.21.08.39.17.53.27.14.1.25.22.32.35.07.13.11.29.11.47,0,.36-.11.63-.34.82-.23.19-.55.29-.97.29-.3,0-.56-.07-.8-.2-.24-.13-.44-.29-.61-.49-.16-.18-.3-.39-.41-.62-.11-.23-.19-.43-.22-.6h-.45l.07,2.24h.49l.13-.43c.14.11.36.24.68.37.32.13.66.2,1.04.2.71,0,1.29-.19,1.74-.57.45-.38.67-.87.67-1.46,0-.3-.05-.55-.14-.75Z"/>
    </g>
    <g>
      <path class="cls-2" d="M126.23,82.18c-.64-.29-1.11-.68-1.4-1.19-.29-.51-.43-1.17-.43-1.99v-44.23l-.5-.53-16.67.86v2.42c.68.04,1.47.2,2.37.46.89.26,1.56.54,2,.83.57.38,1.03.92,1.37,1.64.34.72.51,1.49.51,2.33v36.66c0,.82-.13,1.47-.38,1.97-.26.5-.74.88-1.45,1.14-.42.15-.91.26-1.45.33-.54.07-1.1.12-1.68.17v2.42h20.84v-2.42c-.67-.07-1.24-.18-1.73-.33-.49-.15-.95-.33-1.4-.53Z"/>
      <path class="cls-2" d="M172,81.62c-.59-.37-1.04-.83-1.35-1.37-.31-.54-.46-1.2-.46-1.97v-25.54l-.5-.5-16.08.86v2.42c.77.04,1.53.11,2.27.2.74.09,1.31.26,1.7.53.55.38.97.86,1.26,1.46.29.6.43,1.27.43,2.02v17.83c-.57.93-1.48,1.8-2.73,2.61-1.25.82-2.65,1.22-4.22,1.22s-2.72-.54-3.59-1.62c-.87-1.08-1.31-2.76-1.31-5.03v-22l-.36-.5-15.98.86v2.42c.57.04,1.21.14,1.91.28.7.14,1.27.38,1.71.71.55.42.99.9,1.32,1.44.33.54.49,1.24.49,2.1v14.89c0,3.66.89,6.5,2.66,8.5,1.77,2.01,4.32,3.01,7.65,3.01,1.92,0,3.38-.14,4.38-.43,1-.29,2.06-.73,3.19-1.32.99-.53,1.84-1.12,2.56-1.77.72-.65,1.45-1.32,2.2-2h.2v4.33l.5.46,15.78-.96v-2.42c-.66-.02-1.32-.08-1.99-.18-.67-.1-1.21-.28-1.63-.55Z"/>
      <path class="cls-2" d="M240.92,82.25c-.64-.26-1.08-.65-1.32-1.14-.24-.5-.36-1.15-.36-1.97v-16.08c0-3.62-.9-6.41-2.7-8.37-1.8-1.96-4.36-2.94-7.69-2.94-1.52,0-2.95.19-4.28.56-1.33.38-2.43.84-3.29,1.39-.77.49-1.62,1.13-2.55,1.94-.93.81-1.71,1.51-2.35,2.1h-.3c-.71-1.81-1.9-3.26-3.59-4.35-1.69-1.09-3.79-1.64-6.3-1.64-1.52,0-2.92.18-4.2.53-1.28.35-2.33.79-3.14,1.32-.75.46-1.55,1.08-2.4,1.84-.85.76-1.58,1.42-2.2,1.97h-.13v-4.66l-.5-.5-15.78.86v2.42c.73.07,1.39.19,2,.36.61.18,1.11.4,1.5.66.53.38.98.9,1.36,1.57.37.67.56,1.36.56,2.07v19.26c0,.82-.13,1.47-.4,1.97-.26.5-.75.88-1.46,1.14-.4.15-.87.26-1.42.33-.55.07-1.11.12-1.69.17v2.42h19.82v-2.42c-.51-.07-.99-.18-1.44-.33-.45-.15-.86-.33-1.21-.53-.51-.29-.86-.68-1.06-1.19-.2-.51-.3-1.15-.3-1.92v-17.77c.24-.33.54-.73.9-1.19.35-.46.85-.93,1.49-1.39.62-.44,1.3-.81,2.04-1.11.74-.3,1.59-.45,2.54-.45,1.5,0,2.66.57,3.47,1.7.81,1.14,1.21,2.84,1.21,5.11v15.45c0,.9-.07,1.59-.21,2.05-.14.46-.44.82-.9,1.06-.28.15-.72.26-1.31.33-.59.07-1.09.12-1.51.17v2.42h18.79v-2.42c-.5-.07-.98-.18-1.43-.33-.45-.15-.85-.33-1.2-.53-.5-.29-.85-.68-1.03-1.17-.19-.5-.28-1.14-.28-1.94v-17.77c.24-.33.54-.73.9-1.19s.85-.93,1.49-1.39c.62-.44,1.3-.81,2.04-1.11.74-.3,1.59-.45,2.54-.45,1.5,0,2.66.57,3.47,1.7.81,1.14,1.21,2.84,1.21,5.11v15.45c0,.82-.07,1.48-.2,2-.13.52-.44.89-.92,1.11-.35.18-.79.29-1.31.33-.52.04-1.03.1-1.51.17v2.42h19.65v-2.42c-.68-.07-1.28-.18-1.8-.33-.52-.15-.95-.31-1.31-.46Z"/>
      <path class="cls-2" d="M280.99,81.98c-.62-.29-1.07-.72-1.37-1.29-.3-.57-.45-1.36-.45-2.35,0-1.08.05-3.33.15-6.75.1-3.42.15-6.37.15-8.87,0-2.36-.4-4.27-1.21-5.74-.81-1.47-1.89-2.59-3.26-3.36-1.43-.79-3.04-1.32-4.83-1.57-1.79-.25-3.75-.38-5.89-.38-1.54,0-3.22.18-5.03.55-1.81.36-3.41.88-4.8,1.54-1.41.64-2.61,1.45-3.59,2.43s-1.47,2.09-1.47,3.32c0,1.43.48,2.6,1.43,3.49.95.89,2.36,1.34,4.21,1.34,1.3,0,2.27-.12,2.9-.36.63-.24,1.2-.58,1.71-1.03.38-.33.66-.78.86-1.34.2-.56.3-1.03.3-1.41,0-.84-.16-1.71-.46-2.61-.31-.9-.5-1.58-.56-2.02.4-.29.92-.57,1.57-.84.65-.28,1.46-.41,2.43-.41,1.08,0,1.95.24,2.61.73.66.49,1.15,1.08,1.46,1.79.29.62.47,1.38.56,2.28.09.9.13,1.63.13,2.18v3.18c-1.28.62-3.31,1.32-6.1,2.1-2.78.78-5.17,1.54-7.16,2.27-1.04.4-1.99.83-2.87,1.29-.87.46-1.64,1.05-2.3,1.76-.73.77-1.29,1.66-1.69,2.67-.4,1.01-.6,2.23-.6,3.66,0,2.5.91,4.5,2.72,6.01,1.81,1.51,4,2.27,6.56,2.27,1.72,0,3.07-.12,4.03-.36.96-.24,1.96-.61,3-1.09.79-.37,1.54-.83,2.24-1.36.7-.53,1.42-1.17,2.17-1.92h.2c.46,1.5,1.33,2.65,2.61,3.46,1.28.81,3.27,1.21,5.98,1.21,1.47,0,2.87-.18,4.19-.53,1.32-.35,2.47-.74,3.43-1.16v-2.42c-.66,0-1.39-.02-2.2-.05-.81-.03-1.4-.14-1.77-.31ZM268.41,78.77c-.6.73-1.29,1.34-2.08,1.84-.79.5-1.79.75-3,.75-1.15,0-2.12-.39-2.91-1.16-.79-.77-1.18-2.02-1.18-3.75,0-1.3.23-2.44.7-3.4.46-.96,1.11-1.75,1.93-2.37.77-.6,1.77-1.17,2.99-1.71,1.22-.54,2.45-1.02,3.69-1.44l-.13,11.24Z"/>
      <path class="cls-2" d="M306.78,64.35c-2.55-.66-4.54-1.37-5.96-2.12-1.42-.75-2.13-1.96-2.13-3.64,0-1.26.48-2.24,1.46-2.94.97-.71,2.3-1.06,4-1.06,2.16,0,4.18.83,6.05,2.5,1.87,1.67,3.2,3.65,3.97,5.94h2.32l-.53-11.28h-2.51l-.69,1.95c-1.15-.48-2.56-.93-4.25-1.34-1.69-.41-3.54-.61-5.54-.61-4.23,0-7.66.96-10.27,2.88-2.61,1.92-3.92,4.43-3.92,7.54,0,1.68.3,3.12.89,4.33.6,1.21,1.39,2.25,2.38,3.11,1.15.97,2.26,1.68,3.32,2.13,1.07.45,2.35.9,3.85,1.34,1.5.44,2.76.82,3.79,1.12,1.02.31,1.97.68,2.83,1.12.77.42,1.38.92,1.82,1.49.44.57.66,1.3.66,2.18,0,1.63-.49,2.84-1.47,3.62-.98.78-2.48,1.17-4.48,1.17-1.52,0-2.95-.34-4.28-1.03-1.33-.68-2.52-1.52-3.56-2.51-.99-.99-1.88-2.11-2.65-3.36-.77-1.25-1.32-2.37-1.65-3.36h-2.42l.43,12.34h2.58l.99-2.25c1.12.71,2.71,1.37,4.75,2,2.04.63,4.13.94,6.27.94,4.57,0,8.27-.99,11.1-2.98,2.83-1.99,4.25-4.79,4.25-8.4,0-2.71-.91-4.95-2.74-6.7-1.83-1.75-4.71-3.14-8.65-4.15Z"/>
      <path class="cls-2" d="M341.52,64.35c-2.55-.66-4.54-1.37-5.96-2.12-1.42-.75-2.13-1.96-2.13-3.64,0-1.26.48-2.24,1.46-2.94.97-.71,2.3-1.06,4-1.06,2.16,0,4.18.83,6.05,2.5,1.87,1.67,3.2,3.65,3.97,5.94h2.32l-.53-11.28h-2.51l-.69,1.95c-1.15-.48-2.56-.93-4.25-1.34-1.69-.41-3.54-.61-5.54-.61-4.23,0-7.66.96-10.27,2.88-2.61,1.92-3.92,4.43-3.92,7.54,0,1.68.3,3.12.89,4.33.6,1.21,1.39,2.25,2.38,3.11,1.15.97,2.26,1.68,3.32,2.13,1.07.45,2.35.9,3.85,1.34,1.5.44,2.76.82,3.79,1.12,1.02.31,1.97.68,2.83,1.12.77.42,1.38.92,1.82,1.49.44.57.66,1.3.66,2.18,0,1.63-.49,2.84-1.47,3.62-.98.78-2.48,1.17-4.48,1.17-1.52,0-2.95-.34-4.28-1.03-1.33-.68-2.52-1.52-3.56-2.51-.99-.99-1.88-2.11-2.65-3.36-.77-1.25-1.32-2.37-1.65-3.36h-2.42l.43,12.34h2.58l.99-2.25c1.12.71,2.71,1.37,4.75,2,2.04.63,4.13.94,6.27.94,4.57,0,8.27-.99,11.1-2.98,2.83-1.99,4.25-4.79,4.25-8.4,0-2.71-.91-4.95-2.74-6.7-1.83-1.75-4.71-3.14-8.65-4.15Z"/>
      <path class="cls-2" d="M394.5,62c-.86-2.12-2.11-3.94-3.74-5.46-1.68-1.54-3.69-2.74-6.04-3.59-2.35-.85-5.07-1.27-8.16-1.27s-5.63.43-8.02,1.27c-2.39.85-4.41,2.05-6.04,3.59-1.7,1.61-2.97,3.45-3.82,5.51-.85,2.06-1.27,4.42-1.27,7.06s.48,5.12,1.46,7.3c.97,2.17,2.29,4,3.97,5.48,1.74,1.54,3.74,2.7,6.01,3.47,2.26.77,4.74,1.16,7.43,1.16,3.11,0,5.87-.44,8.29-1.32,2.42-.88,4.49-2.15,6.24-3.8,1.63-1.54,2.87-3.4,3.72-5.57.85-2.17,1.27-4.48,1.27-6.93s-.43-4.76-1.29-6.88ZM383.37,74.97c-.23,1.77-.59,3.26-1.07,4.5-.55,1.43-1.3,2.52-2.25,3.26-.95.74-2.08,1.11-3.41,1.11-1.46,0-2.66-.4-3.61-1.19-.95-.79-1.68-1.87-2.18-3.24-.6-1.59-.97-3.17-1.12-4.75-.15-1.58-.23-3.57-.23-5.97,0-1.83.09-3.59.26-5.28.18-1.69.5-3.16.96-4.42.51-1.37,1.23-2.48,2.17-3.34.94-.86,2.19-1.29,3.75-1.29,1.43,0,2.62.4,3.56,1.19.94.79,1.67,1.89,2.2,3.28.44,1.15.77,2.71.99,4.7.22,1.99.33,3.75.33,5.29,0,2.34-.12,4.39-.35,6.15Z"/>
    </g>
    <g>
      <path class="cls-3" d="M72.22,27.02c-17.17,0-31.09,14.02-31.09,31.33l.08,44.34h15.6v-13.03h14.92c.16,0,.32.02.49.02,17.17,0,31.09-14.02,31.09-31.33s-13.92-31.33-31.09-31.33ZM90.28,60.46c0,8.77-6.94,15.91-15.64,16.28v.04h-17.04v-13.69c-1.66,1.06-3.75,1.43-5.78.82-3.69-1.11-5.78-5-4.67-8.68l10.6,3.19c.06-.51.16-1.01.27-1.51-1.83.51-3.86.32-5.64-.71-3.51-2.02-4.72-6.51-2.69-10.02l10.25,5.91c.15-.25.31-.5.47-.74-2.31-.63-4.38-2.13-5.67-4.36-2.59-4.49-1.06-10.22,3.44-12.82l7.19,12.43c.19-.12.38-.23.57-.34-2.15-1.86-3.52-4.6-3.52-7.66,0-4.39,2.69-8.52,6.72-9.53,1.1-.27,2.27-.26,3.43-.29v15.45c.46-.04.92-.07,1.38-.07,6.23,0,11.65,3.49,14.4,8.61l4.94.5-3.15,4.36.14,2.84Z"/>
      <circle class="cls-3" cx="83.68" cy="52.77" r="1.06"/>
      <path class="cls-3" d="M79.6,58.31c0,5.33-4.34,9.68-9.68,9.68-.31,0-.65-.02-1.02-.06,1.25.88,2.77,1.38,4.34,1.38,4.16,0,7.55-3.38,7.55-7.55,0-1.46-.44-2.88-1.22-4.09.02.22.03.44.03.65Z"/>
      <path class="cls-3" d="M69.92,65.86c2.82,0,5.28-1.55,6.57-3.85-.15.13-.3.25-.45.36l-.07.05c-.13.1-.26.2-.4.28-.23.15-.48.27-.73.4l-.12.06c-.12.06-.24.12-.37.18-.29.12-.57.2-.89.28l-.12.04c-.11.03-.22.07-.33.09-.49.1-.97.14-1.43.14-.38,0-.77-.03-1.18-.1-.09-.01-.18-.04-.27-.06l-.1-.03c-.25-.05-.5-.11-.75-.19-.11-.04-.21-.08-.32-.12l-.11-.04c-.22-.09-.43-.17-.63-.28-.12-.06-.23-.13-.35-.2l-.07-.04c-.19-.11-.38-.23-.56-.36-.13-.1-.26-.2-.38-.3-.17-.14-.33-.29-.49-.44-.12-.12-.23-.23-.34-.36-.1-.12-.2-.24-.3-.36-.02.24-.04.49-.04.74,0,1.13.24,2.21.73,3.22.06.03.13.06.19.09l.1.05.16.08c.06.03.12.06.19.09.16.06.32.11.47.16l.11.03.17.06c.05.02.11.04.17.05.2.05.4.09.59.12.12.02.18.03.24.05.04,0,.08.02.12.02.32.04.65.06.97.06Z"/>
    </g>
  </g>
</svg>