<?xml version="1.0" encoding="UTF-8"?>
<svg id="Calque_1" data-name="Calque 1" xmlns="http://www.w3.org/2000/svg" viewBox="0 0 872.31 280.52">
  <defs>
    <style>
      .cls-1 {
        font-family: Quicksand-SemiBold, Quicksand;
        font-size: 110.95px;
        font-variation-settings: 'wght' 600;
        font-weight: 600;
      }

      .cls-1, .cls-2, .cls-3 {
        fill: #212121;
      }

      .cls-4 {
        letter-spacing: -.02em;
      }

      .cls-5 {
        letter-spacing: 0em;
      }

      .cls-3 {
        font-family: Quicksand-Regular, Quicksand;
        font-size: 59.99px;
        font-variation-settings: 'wght' 400;
      }
    </style>
  </defs>
  <g>
    <text class="cls-1" transform="translate(314.13 136.92)"><tspan x="0" y="0">EQUIM</tspan><tspan class="cls-5" x="347.05" y="0">A</tspan><tspan x="417.61" y="0">GE</tspan></text>
    <text class="cls-3" transform="translate(314.13 224.65)"><tspan x="0" y="0">PH</tspan><tspan class="cls-4" x="78.95" y="0">OT</tspan><tspan x="158.73" y="0">OGRAPHIE</tspan></text>
  </g>
  <g>
    <g>
      <path class="cls-2" d="M245.04,182.97c-.32.86-.69,1.74-1.1,2.68.38-.89.74-1.78,1.1-2.68Z"/>
      <path class="cls-2" d="M252.9,151.19c-.04.6-.09,1.2-.14,1.8h0c-.04.21-.08.4-.13.6.1-.8.19-1.6.27-2.4Z"/>
      <path class="cls-2" d="M253.28,140.94c0,2.52-.08,5.02-.21,7.51,0,.18-.02.35-.03.53-.04.67-.08,1.34-.12,2.01,0,.07-.01.14-.02.2-.04.6-.09,1.2-.14,1.8h0c-.04.21-.08.4-.13.6,0,.01,0,.02,0,.02-2.04,9.35-6.5,17.44-12.38,24.28,0,0-.02.01-.02.02-.05.04-.08.09-.12.14-.02.04-.05.06-.08.1-10.98,12.65-27.1,20.57-43.85,21.13-10.45.35-21.07-1.97-30.75-7.79,6.22-23.85,10.6-31.43,10.6-31.43,0,0,5.76-2.92,13.53-3.6,7.78-.67,9.94-3.05,12.05-5.19,1.78-1.82-.86-8.31-1.71-10.24-.15-.35-.11-.74.12-1.05l1.42-1.9c1.48-3.04-.38-4.44-1.27-4.9-.18-.09-.22-.33-.06-.48,1.73-1.74,1.76-6.06.03-6.71-1.15-.44-1.85-2.31-2.2-3.63-.21-.77.02-1.59.6-2.14,1.1-1.06,2.71-3.13,1.72-5.38-1.3-2.97-7.26-4.17-11.26-9.11-1.6-1.97-1.78-3.27-1.41-4.11,1.27-2.94,1.21-6.1.57-9.23-1.04-5.1-.87-4.33-2.89-7.31-3.18,7.61-30.2,21.21-31.41,22.77-1.62,2.07-1.76,1.7-4.18,5.02-1.05,1.44-3.1,6.55-3.32,10.42-.11,1.97-.76,1.48-1.74.36-3.12-3.54-4.78-8.11-4.83-12.83v-.1c.77-1.12,1.52-2.22,2.22-3.29,3.35-5.06,6.85-8.19,9.52-10.23.05-.03.09-.06.13-.09.99-.74,2-1.38,2.03-1.38.64-.32,1.28-.63,1.91-.94l.05-.02s.05-.03.06-.03c6.69-3.32,12.05-6.19,16.64-8.72l.04-.03c1.49-.83,2.9-1.64,4.17-2.38l.86-.46.02-.05c.93-.55,1.81-1.06,2.72-1.61,3.14-1.89,5.47-3.35,7.91-5.03h0s.06-.02.06-.02c4.31-2.85,14.52-9.98,16.1-14.75.45-1.06,0-2.29-.61-2.71-1.06-.86-2.66-.95-7.66,1.16-5.13,2.17-11.46,5.62-14.84,7.52-13.66-19.34-41.35-22.32-61.27-10.2-4.27,2.36-8.38,5.32-12.19,8.61-1.02.89-1.95,1.74-2.81,2.57l-.12.11c-16.9,14.92-14.98,41.24-4.51,60.63-12.91,15.93-18.4,41.75-46.37,9.04-4.19-14.06,23.67-73.74,24.43-91.3,0-.04,0-.08,0-.12.05-1.12.25-4.59.54-6.23,0,0,0-.02,0-.02.05-.25.09-.46.14-.61.32-1,.68-1.96,1.07-2.88,0-.02.01-.04.02-.06.11-.28.23-.55.35-.82.1-.24.21-.47.31-.69.05-.12.11-.25.17-.37.16-.32.31-.64.47-.95.18-.36.37-.71.56-1.06.16-.3.33-.6.5-.89.1-.18.2-.35.31-.53.8-1.36,1.65-2.66,2.55-3.94.65-.95,1.33-1.89,2.01-2.82.13-.17.25-.34.37-.51.22-.31.45-.62.68-.93,1.09-1.49,2.18-2.83,3.14-4.13.11-.14.21-.29.31-.43,1.41-1.95,2.49-3.84,2.79-6.07,0-.03.01-.06.01-.08.21-1.61.02-3.41-.73-5.52l.33.6h0s4.92,8.9,4.92,8.9c0,0,6.12-12.79,6.16-12.79l10,22.51-.32.18c22.83-4.54,47.88-1.39,68.94,7.85,4.51,1.97,8.83,4.22,12.92,6.75,6.32,3.96,7.29,4.76,13.82,9.76,14.69,12.05,26.39,27.62,33.79,45.42.16.38.32.76.47,1.15,5.38,13.34,8.37,27.91,8.43,43.17Z"/>
      <path class="cls-2" d="M246.42,178.99v.03s-.01,0-.01,0l-.08.23c-.42,1.31-.82,2.5-1.29,3.72-.35.89-.72,1.78-1.1,2.68-.08.17-.15.34-.22.5-3.23,7.41-7.44,14.69-12.46,21.54-.55.77-1.12,1.52-1.7,2.26-.27.35-.54.71-.83,1.06-.57.73-1.15,1.45-1.75,2.17-.32.4-.66.8-1,1.19-.02.02-.04.05-.06.07-.26.31-.53.62-.8.93-.24.28-.49.57-.75.85-3.75,4.22-7.57,7.9-11.2,10.71-.23.18-.43.39-.64.59-20.64,16.61-43.21,26.2-66.04,28.06-4.09.27-8.19.28-12.29,0-17.61-1.2-36.04-9.38-46.17-24.26-25-35.7-1.34-85.57,42.25-88.43,1.63,24.77,15.75,44.51,34.81,54.55.02.02.04.03.06.04.12.08.25.15.39.21.01,0,.02.01.04.02,23.41,12.06,54.14,9.52,78.44-16.08.08-.07.15-.15.21-.23.74-.77,1.46-1.57,2.18-2.39Z"/>
      <path class="cls-2" d="M243.71,186.15c-3.06,7.33-7.49,14.79-12.46,21.54,5.02-6.85,9.23-14.13,12.46-21.54Z"/>
      <path class="cls-2" d="M245.04,182.97c-.32.86-.69,1.74-1.1,2.68.38-.89.74-1.78,1.1-2.68Z"/>
      <path class="cls-2" d="M78.78,40.74c.05-.25.09-.46.14-.61.32-1,.68-1.96,1.07-2.88-.46,1.12-.87,2.28-1.21,3.49Z"/>
      <path class="cls-2" d="M82.69,31.89c.8-1.36,1.65-2.66,2.55-3.94-.88,1.28-1.74,2.58-2.55,3.94Z"/>
      <path class="cls-2" d="M87.25,25.13c-.67.93-1.35,1.87-2.01,2.82.65-.95,1.33-1.89,2.01-2.82Z"/>
      <path class="cls-2" d="M88.31,23.68c1.09-1.49,2.18-2.83,3.14-4.13-.62.88-1.26,1.7-1.84,2.44-.54.69-1.05,1.34-1.49,1.96l-.18.25c-.1.14-.2.28-.31.41.22-.31.45-.62.68-.93Z"/>
      <path class="cls-2" d="M244.39,96.63c-3.15-7.34-7.1-14.48-11.85-21.29-12.6-18.07-29.54-31.99-48.67-40.64,4.51,1.97,8.83,4.22,12.92,6.75,6.32,3.96,7.29,4.76,13.82,9.76,14.69,12.05,26.39,27.62,33.79,45.42Z"/>
      <path class="cls-2" d="M278.59,140.34c0,77.41-62.75,140.16-140.16,140.16C-15.59,282.56-53.78,60.16,88.92,9.17l-.07.04c2.06,3.62-2.23,7.73-5.05,11.63-3.81,5.21-8.02,10.93-10.15,18.48-142.5,100.74,17.77,302.71,148.16,187.3,13.05-12.7,23.92-28.91,29.8-46.14l-.06-.04C282.81,95.54,207.45,6.5,118.49,20.8l-7.93-17.84c85.39-18.16,169.06,49.87,168.03,137.39Z"/>
      <path class="cls-2" d="M231.25,207.69c4.97-6.75,9.4-14.21,12.46-21.54-3.23,7.41-7.44,14.69-12.46,21.54Z"/>
    </g>
    <path class="cls-2" d="M135.06,106.43c-5.41,7.54-23.7,11.81-30.33,18.37-.05.05-.13.03-.16-.03-7.3-14.75-12.18-37.08,4.08-52.38l.22-.2c4.06-3.91,8.92-7.62,13.76-10.29l.07-.04c19.68-11.57,43.36-7.28,54.95,9.98.47.6,2.42,3.54-6.48,8.61-6.6,3.76-14.56,6.94-21.61,11.53-5.17,3.36-13.66,13.27-14.51,14.45Z"/>
  </g>
</svg>