<svg width="25" height="24" viewBox="0 0 25 24" fill="none" xmlns="http://www.w3.org/2000/svg">
<path d="M8.47388 16H12.4738M8.47388 11H16.4738" stroke="#DED7EB" stroke-width="1.5" stroke-linecap="round"/>
<path d="M7.97583 3.5C6.42003 3.54667 5.49244 3.71984 4.8506 4.36227C3.97192 5.24177 3.97192 6.6573 3.97192 9.48836V15.9944C3.97192 18.8255 3.97192 20.241 4.8506 21.1205C5.72928 22 7.1435 22 9.97192 22H14.9719C17.8003 22 19.2145 22 20.0932 21.1205C20.9719 20.241 20.9719 18.8255 20.9719 15.9944V9.48836C20.9719 6.6573 20.9719 5.24177 20.0932 4.36228C19.4514 3.71984 18.5238 3.54667 16.968 3.5" stroke="#DED7EB" stroke-width="1.5"/>
<path d="M7.97192 3.75C7.97192 2.7835 8.75543 2 9.72192 2H15.2219C16.1884 2 16.9719 2.7835 16.9719 3.75C16.9719 4.7165 16.1884 5.5 15.2219 5.5H9.72192C8.75543 5.5 7.97192 4.7165 7.97192 3.75Z" stroke="#DED7EB" stroke-width="1.5" stroke-linejoin="round"/>
</svg>
