<svg width="25" height="24" viewBox="0 0 25 24" fill="none" xmlns="http://www.w3.org/2000/svg">
<path d="M19 17.838C20.0305 17.6867 20.7627 17.3941 21.3284 16.8284C22.5 15.6569 22.5 13.7712 22.5 10C22.5 6.22876 22.5 4.34315 21.3284 3.17157C20.1569 2 18.2712 2 14.5 2H10.5C6.72876 2 4.84315 2 3.67157 3.17157C2.5 4.34315 2.5 6.22876 2.5 10C2.5 13.7712 2.5 15.6569 3.67157 16.8284C4.47975 17.6366 5.6277 17.8873 7.5 17.965" stroke="#7D3EFF" stroke-width="1.5" stroke-linecap="round"/>
<path d="M17.5 7H7.5" stroke="#7D3EFF" stroke-width="1.5" stroke-linecap="round" stroke-linejoin="round"/>
<path d="M15 14.5C15 15.8807 13.8807 17 12.5 17C11.1193 17 10 15.8807 10 14.5C10 13.1193 11.1193 12 12.5 12C13.8807 12 15 13.1193 15 14.5Z" stroke="#7D3EFF" stroke-width="1.5"/>
<path d="M10 14.5C10 18.5659 11.7222 20.8706 12.5 22L14 19L15.75 20L17.5 21C16.7653 20.2888 16.0058 18.0471 16.0058 18.0471" stroke="#7D3EFF" stroke-width="1.5" stroke-linecap="round" stroke-linejoin="round"/>
</svg>
