<svg width="23" height="22" viewBox="0 0 23 22" fill="none" xmlns="http://www.w3.org/2000/svg">
<path d="M11.5113 0.731323C17.1898 0.731323 21.7843 5.32577 21.7843 10.9957C21.7843 16.6656 17.1898 21.2687 11.5113 21.2687C5.83279 21.2687 1.23834 16.6742 1.23834 11.0043C1.23834 5.33437 5.83279 0.731323 11.5113 0.731323Z" fill="#DED7EB"/>
<path d="M11.5113 22C5.43695 22 0.498352 17.07 0.498352 11.0043C0.498352 4.93 5.43695 0 11.5113 0C17.5856 0 22.5242 4.93 22.5242 10.9957C22.5242 17.0614 17.5856 22 11.5113 22ZM20.7948 12.5014C20.4764 12.3981 17.8867 11.6324 14.9356 12.097C16.1659 15.4697 16.665 18.2229 16.7596 18.7908C18.8761 17.3711 20.3818 15.1169 20.7948 12.5014ZM15.1851 19.6598C15.0474 18.8338 14.4968 15.9601 13.1804 12.5358C13.1632 12.5444 13.1374 12.553 13.1202 12.553C7.81161 14.4028 5.91016 18.0767 5.73809 18.4208C7.32979 19.6598 9.33449 20.3997 11.5113 20.3997C12.8104 20.4083 14.058 20.1416 15.1851 19.6598ZM4.52495 17.2937C4.74004 16.9323 7.32119 12.6648 12.1738 11.0903C12.2942 11.0473 12.4233 11.0129 12.5437 10.9785C12.3114 10.4451 12.0533 9.91161 11.778 9.38678C7.08028 10.7892 2.52025 10.729 2.10727 10.7204C2.10727 10.815 2.09866 10.9097 2.09866 11.0043C2.10727 13.422 3.01927 15.6246 4.52495 17.2937ZM2.30516 9.08565C2.72674 9.09425 6.59847 9.11146 11.0036 7.94134C9.44634 5.1709 7.75999 2.84787 7.51908 2.51232C4.8777 3.75127 2.91603 6.17755 2.30516 9.08565ZM9.30868 1.87564C9.56679 2.21979 11.279 4.54282 12.819 7.37348C16.1659 6.11732 17.577 4.22448 17.749 3.98357C16.0885 2.51232 13.9031 1.61752 11.5113 1.61752C10.7541 1.61752 10.0142 1.71216 9.30868 1.87564ZM18.7901 5.06766C18.5922 5.33438 17.0177 7.35628 13.5418 8.77591C13.7569 9.22331 13.972 9.67931 14.1698 10.1353C14.2387 10.2988 14.3075 10.4623 14.3763 10.6171C17.5081 10.2214 20.6141 10.858 20.9238 10.9183C20.898 8.70708 20.1065 6.66797 18.7901 5.06766Z" fill="#121212"/>
</svg>
