<svg width="25" height="25" viewBox="0 0 25 25" fill="none" xmlns="http://www.w3.org/2000/svg">
<g clip-path="url(#clip0_266_6511)">
<path d="M15.6861 5.82101C14.8431 5.78301 14.5891 5.77501 12.4531 5.77501C10.3171 5.77501 10.0641 5.78301 9.22112 5.82101C7.05112 5.92001 6.04012 6.94801 5.94212 9.10001C5.90312 9.94401 5.89412 10.197 5.89412 12.333C5.89412 14.469 5.90312 14.722 5.94112 15.566C6.04012 17.714 7.04712 18.746 9.22013 18.845C10.0631 18.883 10.3171 18.892 12.4531 18.892C14.5901 18.892 14.8431 18.884 15.6861 18.846C17.8561 18.747 18.8661 17.717 18.9651 15.567C19.0031 14.723 19.0111 14.47 19.0111 12.334C19.0111 10.198 19.0031 9.94501 18.9651 9.10201C18.8661 6.94901 17.8541 5.92001 15.6861 5.82101ZM12.4531 16.441C10.1841 16.441 8.34513 14.602 8.34513 12.333C8.34513 10.064 10.1851 8.22501 12.4531 8.22501C14.7211 8.22501 16.5611 10.064 16.5611 12.333C16.5611 14.602 14.7221 16.441 12.4531 16.441ZM16.7241 9.02301C16.1941 9.02301 15.7641 8.59301 15.7641 8.06301C15.7641 7.53301 16.1941 7.10301 16.7241 7.10301C17.2541 7.10301 17.6841 7.53301 17.6841 8.06301C17.6841 8.59301 17.2541 9.02301 16.7241 9.02301ZM15.1201 12.333C15.1201 13.806 13.9261 15 12.4531 15C10.9801 15 9.78613 13.806 9.78613 12.333C9.78613 10.86 10.9801 9.66601 12.4531 9.66601C13.9261 9.66601 15.1201 10.86 15.1201 12.333ZM19.4531 0.333008H5.45312C2.69213 0.333008 0.453125 2.57201 0.453125 5.33301V19.333C0.453125 22.094 2.69213 24.333 5.45312 24.333H19.4531C22.2151 24.333 24.4531 22.094 24.4531 19.333V5.33301C24.4531 2.57201 22.2151 0.333008 19.4531 0.333008ZM20.4051 15.631C20.2731 18.54 18.6541 20.152 15.7521 20.285C14.8981 20.324 14.6261 20.333 12.4531 20.333C10.2801 20.333 10.0091 20.324 9.15512 20.285C6.24712 20.152 4.63512 18.537 4.50112 15.631C4.46212 14.778 4.45312 14.506 4.45312 12.333C4.45312 10.161 4.46212 9.88801 4.50112 9.03501C4.63512 6.12701 6.24912 4.51401 9.15512 4.38201C10.0091 4.34201 10.2801 4.33301 12.4531 4.33301C14.6261 4.33301 14.8981 4.34201 15.7521 4.38101C18.6601 4.51401 20.2751 6.13201 20.4051 9.03401C20.4441 9.88801 20.4531 10.161 20.4531 12.333C20.4531 14.506 20.4441 14.778 20.4051 15.631Z" fill="#F8FAFC"/>
</g>
<defs>
<clipPath id="clip0_266_6511">
<rect width="24" height="24" fill="white" transform="translate(0.453125 0.333008)"/>
</clipPath>
</defs>
</svg>
