<svg width="24" height="22" viewBox="0 0 24 22" fill="none" xmlns="http://www.w3.org/2000/svg">
<path d="M23.4984 13.4884V22H18.5642V14.0581C18.5642 12.0621 17.8502 10.7014 16.0646 10.7014C14.7003 10.7014 13.8896 11.6196 13.5321 12.5059C13.4013 12.8234 13.3689 13.2649 13.3689 13.7087V21.9995H8.43164C8.43164 21.9995 8.49819 8.54981 8.43164 7.15497H13.3689V9.25937L13.3361 9.30793H13.3689V9.25937C14.0231 8.24989 15.195 6.80693 17.816 6.80693C21.0639 6.80738 23.4984 8.92977 23.4984 13.4884ZM3.26956 0C1.58109 0 0.47583 1.10751 0.47583 2.56395C0.47583 3.98892 1.54917 5.13016 3.20391 5.13016H3.23673C4.95893 5.13016 6.02822 3.98892 6.02822 2.56395C5.99764 1.10751 4.96028 0 3.27046 0H3.26956ZM0.769907 22H5.70401V7.15542H0.769907V22Z" fill="#DED7EB"/>
</svg>
