<svg width="24" height="24" viewBox="0 0 24 24" fill="none" xmlns="http://www.w3.org/2000/svg">
<path d="M24 0H0V24H24V0Z" fill="#8283A8"/>
<path d="M6.31226 20.0549L8.14694 18.9435C8.50179 19.575 8.82429 20.1009 9.59351 20.1009C10.3365 20.1009 10.8033 19.8117 10.8033 18.6806V11.0203H13.0585V18.7199C13.0585 21.0543 11.6907 22.1193 9.69194 22.1193C7.89054 22.1193 6.84522 21.1856 6.31226 20.0549Z" fill="#DED7EB"/>
<path d="M14.2883 19.8118L16.123 18.7468C16.6096 19.5357 17.2344 20.1146 18.3454 20.1146C19.2791 20.1146 19.8772 19.6477 19.8772 19.0032C19.8772 18.2274 19.2655 17.9579 18.2333 17.5042L17.668 17.2609C16.0438 16.5704 14.9591 15.6957 14.9591 13.8615C14.9591 12.1717 16.2477 10.8831 18.26 10.8831C19.6935 10.8831 20.7257 11.3827 21.4686 12.6849L19.7132 13.8095C19.325 13.119 18.9111 12.8429 18.2666 12.8429C17.609 12.8429 17.1885 13.2638 17.1885 13.8095C17.1885 14.4868 17.6094 14.7629 18.576 15.1773L19.1413 15.4206C21.0613 16.2423 22.1394 17.0776 22.1394 18.9648C22.1394 20.9963 20.5415 22.1077 18.4044 22.1077C16.3002 22.1195 14.9455 21.1201 14.2883 19.8118Z" fill="#DED7EB"/>
</svg>
