<svg width="16" height="24" viewBox="0 0 16 24" fill="none" xmlns="http://www.w3.org/2000/svg">
<g clip-path="url(#clip0_108_102)">
<path d="M6.99974 20.0002C6.99974 21.6561 5.65563 23.0002 4.00054 23.0002C2.34546 23.0002 1.00134 21.6561 1.00134 20.0002C1.00134 18.3443 2.34546 17.0002 4.00054 17.0002H6.99974V20.0002Z" stroke="#8283A8" stroke-width="2"/>
<path d="M1.00134 12.0002C1.00134 10.3443 2.34546 9.00024 4.00054 9.00024H6.99974V15.0002H4.00054C2.34546 15.0002 1.00134 13.6561 1.00134 12.0002Z" stroke="#8283A8" stroke-width="2"/>
<path d="M1.00177 4.00024C1.00177 2.34434 2.34588 1.00024 4.00097 1.00024H7.00017V7.00024H4.00097C2.34588 7.00024 1.00177 5.65615 1.00177 4.00024Z" stroke="#8283A8" stroke-width="2"/>
<path d="M9 1.00024H11.9992C13.6543 1.00024 14.9984 2.34434 14.9984 4.00024C14.9984 5.65615 13.6543 7.00024 11.9992 7.00024H9V1.00024Z" stroke="#8283A8" stroke-width="2"/>
<path d="M14.9984 12.0002C14.9984 13.6561 13.6543 15.0002 11.9992 15.0002C10.3441 15.0002 9 13.6561 9 12.0002C9 10.3443 10.3441 9.00024 11.9992 9.00024C13.6543 9.00024 14.9984 10.3443 14.9984 12.0002Z" stroke="#8283A8" stroke-width="2"/>
</g>
<defs>
<clipPath id="clip0_108_102">
<rect width="16" height="24" fill="white"/>
</clipPath>
</defs>
</svg>
