<svg width="24" height="24" viewBox="0 0 24 24" fill="none" xmlns="http://www.w3.org/2000/svg">
<path d="M12 0C5.38125 0 0 5.38125 0 12C0 18.6187 5.38125 24 12 24C18.6187 24 24 18.6187 24 12C24 5.38125 18.6187 0 12 0ZM12 2.00156C14.6062 2.00156 16.9687 3 18.7453 4.62187L18.6188 4.6125C17.6391 4.6125 17.0016 5.47031 17.0016 6.39375C17.0016 7.22344 17.4188 7.91719 17.9297 8.74688C18.3094 9.40781 18.75 10.2656 18.75 11.4984C18.75 12.3609 18.4312 13.35 17.9906 14.7375L17.0016 18.0656L13.2469 6.50156C13.8469 6.46875 14.3859 6.4125 14.3859 6.4125C14.925 6.35156 14.8688 5.55469 14.325 5.58281C14.325 5.58281 12.7078 5.71406 11.6531 5.71406C10.6734 5.71406 9.02344 5.58281 9.02344 5.58281C8.48438 5.55 8.42344 6.38438 8.9625 6.4125C8.9625 6.4125 9.47344 6.47344 10.0125 6.50156L11.7 11.5781L9.52031 18.1406L5.7375 6.49688C6.34688 6.46406 6.88594 6.40781 6.88594 6.40781C7.425 6.34687 7.35469 5.55 6.825 5.57812C6.825 5.57812 5.27344 5.7 4.22344 5.70469C6.05625 3.44531 8.85 2.00156 12 2.00156ZM20.7797 7.2C21.5578 8.625 21.9984 10.2562 21.9984 12C21.9984 15.9609 19.7156 19.3547 16.3922 20.9766C16.6078 20.8688 16.8234 20.7656 17.0297 20.6391L20.0812 11.8125C20.6531 10.3922 20.8406 9.25313 20.8406 8.23125C20.8406 7.86094 20.8219 7.52813 20.7844 7.20938L20.7797 7.2ZM2.95781 7.73906L7.63125 20.9906C4.29375 19.3734 2.00156 15.9703 2.00156 12C2.00156 10.4719 2.34844 9.03281 2.95781 7.73906ZM12.1688 12.8719L15.2484 21.3L15.3187 21.4266C14.2781 21.7922 13.1672 21.9984 12 21.9984C11.0156 21.9984 10.0688 21.8531 9.16875 21.5906L12.1688 12.8719ZM7.74844 21.0469C8.00625 21.1641 8.26875 21.2719 8.53594 21.375C8.26875 21.2766 8.00625 21.1687 7.74844 21.0469ZM8.82656 21.4828C8.93438 21.5203 9.0375 21.5531 9.15 21.5859C9.0375 21.5531 8.93438 21.5156 8.82656 21.4828Z" fill="#8283A8"/>
</svg>
