<svg width="17" height="24" viewBox="0 0 17 24" fill="none" xmlns="http://www.w3.org/2000/svg">
<path d="M1.54641 22.0735L0 4.71338H16.9997L15.4533 22.067L8.48672 24.0001L1.54641 22.0735Z" fill="#8283A8"/>
<path d="M8.49976 22.5267L14.1266 20.9667L15.4532 6.13306H8.49976V22.5267Z" fill="#55578C"/>
<path d="M8.49991 12.5733H5.67991L5.48679 10.3931H8.49991V8.26685H8.49335H3.15991L3.21335 8.8331L3.73319 14.7H8.49991V12.5733Z" fill="#D8CDEC"/>
<path d="M8.49988 18.0998L8.49332 18.1068L6.12004 17.46L5.96676 15.7668H4.81316H3.83301L4.12645 19.1067L8.49332 20.3198L8.49988 20.3133V18.0998Z" fill="#D8CDEC"/>
<path d="M1.57959 0H2.65959V1.06688H3.64631V0H4.72631V3.23344H3.64631V2.14687H2.65959V3.23344H1.57959V0Z" fill="#DED7EB"/>
<path d="M6.15339 1.07344H5.19995V0H8.18683V1.07344H7.23339V3.23344H6.15339V1.07344Z" fill="#DED7EB"/>
<path d="M8.6667 0H9.79357L10.4869 1.14L11.1797 0H12.3065V3.23344H11.2331V1.63313L10.4864 2.78625H10.4662L9.71951 1.63313V3.24H8.65967V0H8.6667Z" fill="#DED7EB"/>
<path d="M12.8467 0H13.9267V2.16656H15.4468V3.23344H12.8467V0Z" fill="#DED7EB"/>
<path d="M8.49316 12.5732V14.7H11.113L10.8664 17.46L8.49316 18.0998V20.3198L12.853 19.1067L12.8863 18.7467L13.3864 13.1465L13.4399 12.5732H12.8666H8.49316Z" fill="#DED7EB"/>
<path d="M8.49316 8.26685V9.58685V10.3865V10.3931H13.6264H13.633L13.6799 9.9131L13.7732 8.8331L13.8266 8.26685H8.49316Z" fill="#DED7EB"/>
</svg>
