<svg width="24" height="24" viewBox="0 0 24 24" fill="none" xmlns="http://www.w3.org/2000/svg">
<path d="M0 0H20.16C22.2806 0 24 1.71937 24 3.84V20.16C24 22.2806 22.2806 24 20.16 24H3.84C1.71937 24 0 22.2806 0 20.16V0Z" fill="#8283A8"/>
<path d="M19.5971 22.0777C18.8199 22.0777 18.2251 21.8517 17.8093 21.3971C17.3977 20.9405 17.1835 20.2889 17.1643 19.4377H18.8396C18.849 20.1905 19.1138 20.5674 19.6337 20.5674C19.8985 20.5674 20.0865 20.4835 20.1947 20.317C20.3007 20.1516 20.356 19.8867 20.356 19.5239C20.356 19.2356 20.2838 18.9952 20.1441 18.8053C19.9547 18.5794 19.7115 18.405 19.4368 18.2981L18.8147 18C18.2612 17.7356 17.8594 17.423 17.6115 17.0574C17.3705 16.6941 17.2505 16.1846 17.2505 15.5335C17.2505 14.805 17.4624 14.2135 17.8833 13.7588C18.3165 13.3045 18.9062 13.0786 19.6594 13.0786C20.3865 13.0786 20.9499 13.3022 21.3465 13.7466C21.751 14.1938 21.9624 14.8331 21.9797 15.6699H20.3672C20.3766 15.3961 20.3218 15.1247 20.206 14.8763C20.1146 14.6939 19.9365 14.6025 19.6716 14.6025C19.2001 14.6025 18.9643 14.8838 18.9643 15.4439C18.9643 15.728 19.0219 15.9488 19.1377 16.117C19.3041 16.3031 19.5132 16.4466 19.7466 16.5356L20.341 16.7977C20.9546 17.0789 21.3976 17.423 21.6694 17.8388C21.9437 18.2522 22.0787 18.8053 22.0787 19.4977C22.0787 20.3269 21.8621 20.9639 21.4215 21.4088C20.9832 21.8541 20.3743 22.0777 19.5971 22.0777ZM14.1868 22.0777C13.4091 22.0777 12.8147 21.8517 12.3985 21.3971C11.9869 20.9405 11.7727 20.2889 11.7535 19.4377H13.4283C13.4377 20.1905 13.7026 20.5674 14.2229 20.5674C14.4872 20.5674 14.6752 20.4835 14.7807 20.317C14.889 20.1516 14.9419 19.8867 14.9419 19.5239C14.9419 19.2356 14.8726 18.9952 14.7329 18.8053C14.5435 18.5794 14.3002 18.405 14.0255 18.2981L13.4049 18C12.8513 17.7356 12.4496 17.423 12.2016 17.0574C11.9607 16.6941 11.8407 16.1846 11.8407 15.5335C11.8407 14.805 12.0526 14.2135 12.4735 13.7588C12.9066 13.3045 13.4963 13.0786 14.2496 13.0786C14.9766 13.0786 15.5396 13.3022 15.9343 13.7466C16.3435 14.1938 16.5526 14.8331 16.5694 15.6699H14.9569C14.9663 15.3961 14.9115 15.1247 14.7957 14.8763C14.7043 14.6939 14.5262 14.6025 14.2613 14.6025C13.7893 14.6025 13.5535 14.8838 13.5535 15.4439C13.5535 15.728 13.6112 15.9488 13.7269 16.117C13.8933 16.3031 14.1024 16.4466 14.3358 16.5356L14.9302 16.7977C15.5438 17.0789 15.9868 17.423 16.2587 17.8388C16.5305 18.2522 16.6674 18.8053 16.6674 19.4977C16.6674 20.3269 16.4485 20.9639 16.0107 21.4088C15.5733 21.8541 14.9644 22.0777 14.1868 22.0777ZM8.55287 22.0777C7.79209 22.0777 7.18834 21.871 6.74068 21.4571C6.29303 21.046 6.07178 20.4281 6.07178 19.6106V15.5719C6.07178 14.7596 6.30756 14.1441 6.77912 13.7208C7.25818 13.3027 7.88631 13.0913 8.6635 13.0913C9.41678 13.0913 10.0112 13.3074 10.4513 13.7353C10.8966 14.1656 11.1202 14.805 11.1202 15.6586V15.9783H9.34693V15.668C9.34693 15.3389 9.27475 15.0956 9.13506 14.9372C9.01131 14.7764 8.81818 14.6841 8.61521 14.6897C8.32646 14.6897 8.12209 14.7881 8.00631 14.9878C7.88303 15.2639 7.82771 15.5658 7.84506 15.8677V19.3781C7.84506 20.1113 8.10287 20.4839 8.61568 20.4914C8.85615 20.4914 9.03662 20.4047 9.16178 20.2317C9.29771 20.0133 9.3624 19.7578 9.34693 19.5005V19.2385H11.1207V19.5127C11.1207 20.0822 11.0101 20.5585 10.786 20.9381C10.5732 21.3089 10.2535 21.6071 9.86912 21.7941C9.4585 21.99 9.00803 22.087 8.55287 22.0777Z" fill="#DED7EB"/>
</svg>
