<svg width="25" height="24" viewBox="0 0 25 24" fill="none" xmlns="http://www.w3.org/2000/svg">
<path fill-rule="evenodd" clip-rule="evenodd" d="M16.4756 1.78026C16.3728 1.32407 15.9676 1 15.5 1C15.0324 1 14.6272 1.32407 14.5244 1.78026L13.9857 4.17181L13.9857 4.17184C13.6136 5.82367 12.3236 7.11362 10.6718 7.48572L8.28025 8.02444C7.82406 8.1272 7.5 8.53238 7.5 9C7.5 9.46762 7.82406 9.8728 8.28025 9.97556L10.6718 10.5143C12.3237 10.8864 13.6136 12.1763 13.9857 13.8281L13.9857 13.8282L14.5244 16.2197C14.6272 16.6759 15.0324 17 15.5 17C15.9676 17 16.3728 16.6759 16.4756 16.2197L17.0143 13.8282L17.0143 13.8281C17.3864 12.1763 18.6763 10.8864 20.3282 10.5143L22.7198 9.97556C23.1759 9.8728 23.5 9.46762 23.5 9C23.5 8.53238 23.1759 8.1272 22.7198 8.02444L20.3282 7.48571C18.6763 7.11362 17.3864 5.82369 17.0143 4.17183L17.0143 4.1718L16.4756 1.78026ZM12.3957 8.99999C13.7638 8.36525 14.8652 7.26387 15.5 5.89573C16.1347 7.26387 17.2361 8.36526 18.6043 9C17.2361 9.63473 16.1347 10.7361 15.5 12.1042C14.8653 10.7361 13.7639 9.63472 12.3957 8.99999ZM7.88481 13.7083L7.5 12L7.11519 13.7083C6.78879 15.1573 5.65725 16.2888 4.20827 16.6152L2.5 17L4.20827 17.3848C5.65725 17.7112 6.78879 18.8427 7.11519 20.2917L7.5 22L7.88481 20.2917C8.21121 18.8427 9.34275 17.7112 10.7917 17.3848L12.5 17L10.7917 16.6152C9.34275 16.2888 8.21121 15.1572 7.88481 13.7083Z" fill="#DED7EB"/>
</svg>
