<svg width="25" height="24" viewBox="0 0 25 24" fill="none" xmlns="http://www.w3.org/2000/svg">
<path d="M2.5 14C2.5 11.1911 2.5 9.78661 3.17412 8.77772C3.46596 8.34096 3.84096 7.96596 4.27772 7.67412C5.28661 7 6.69108 7 9.5 7H15.5C18.3089 7 19.7134 7 20.7223 7.67412C21.159 7.96596 21.534 8.34096 21.8259 8.77772C22.5 9.78661 22.5 11.1911 22.5 14C22.5 16.8089 22.5 18.2134 21.8259 19.2223C21.534 19.659 21.159 20.034 20.7223 20.3259C19.7134 21 18.3089 21 15.5 21H9.5C6.69108 21 5.28661 21 4.27772 20.3259C3.84096 20.034 3.46596 19.659 3.17412 19.2223C2.5 18.2134 2.5 16.8089 2.5 14Z" stroke="#7D3EFF" stroke-width="1.5" stroke-linecap="round" stroke-linejoin="round"/>
<path d="M16.5 7C16.5 5.11438 16.5 4.17157 15.9142 3.58579C15.3284 3 14.3856 3 12.5 3C10.6144 3 9.67157 3 9.08579 3.58579C8.5 4.17157 8.5 5.11438 8.5 7" stroke="#7D3EFF" stroke-width="1.5" stroke-linecap="round" stroke-linejoin="round"/>
<path d="M6.5 11L7.15197 11.202C10.5851 12.266 14.4149 12.266 17.848 11.202L18.5 11M12.5 12V14" stroke="#7D3EFF" stroke-width="1.5" stroke-linecap="round" stroke-linejoin="round"/>
</svg>
