<?xml version="1.0" encoding="UTF-8"?>
<svg id="Calque_1" data-name="Calque 1" xmlns="http://www.w3.org/2000/svg" viewBox="0 0 722 256">
  <defs>
    <style>
      .cls-1 {
        fill: #fff;
      }
    </style>
  </defs>
  <g>
    <path class="cls-1" d="M376.96,153.35c-.95,0-1.43-.49-1.43-1.46,0-1.28.03-2.56.09-3.84.06-1.28.1-2.56.12-3.84.07-2.7.12-5.39.14-8.07.02-2.69.03-5.36.03-8.04,0-3.39-.02-6.79-.07-10.18-.05-3.39-.12-6.78-.21-10.15v-.35c0-.19.03-.6.09-1.25.06-.65.27-.98.65-.98.33,0,.67.23,1.05.7.37.47.64.8.8,1.01,3.58,4.86,7.03,9.83,10.36,14.91,3.32,5.08,6.73,10.08,10.22,15.01.12.16.23.24.35.24s.23-.08.35-.24c3.58-4.95,7.07-9.97,10.48-15.06,3.41-5.09,6.93-10.08,10.58-14.96.16-.21.44-.54.82-.99s.73-.68,1.03-.68c.4,0,.62.33.66.98.05.65.07,1.07.07,1.25v.35c-.09,3.39-.16,6.79-.21,10.2-.05,3.41-.07,6.81-.07,10.2,0,2.67.01,5.35.04,8.04.02,2.68.07,5.38.14,8.07.05,1.28.09,2.56.14,3.84.05,1.28.07,2.56.07,3.84,0,.98-.48,1.46-1.43,1.46h-6c-.51,0-.87-.12-1.06-.35s-.32-.58-.37-1.05c-.02-.33-.03-.68-.03-1.06v-1.1l-.07-5.06c-.05-2.53-.08-5.07-.1-7.6-.02-2.53-.04-5.07-.04-7.6,0-.05,0-.19-.02-.44-.01-.24-.08-.37-.19-.37-.09,0-.2.09-.31.26-.12.17-.2.29-.24.33-1.51,2.32-3,4.67-4.48,7.03s-2.97,4.71-4.48,7.06c-.61.95-1.21,1.92-1.81,2.89-.61.98-1.23,1.93-1.88,2.86-.14.19-.3.39-.49.61-.19.22-.42.33-.7.33-.26,0-.48-.1-.68-.3-.2-.2-.37-.39-.51-.58-.58-.81-1.16-1.64-1.73-2.48-.57-.84-1.13-1.67-1.69-2.51-1.63-2.37-3.25-4.76-4.87-7.17s-3.26-4.78-4.93-7.13c-.02-.05-.09-.14-.21-.3s-.22-.23-.31-.23c-.12,0-.19.12-.21.35-.02.23-.04.37-.04.42,0,2.46-.01,4.92-.04,7.38s-.06,4.91-.1,7.38l-.07,4.92c0,.33,0,.67.02,1.05.01.37,0,.72-.05,1.05-.05.46-.16.81-.35,1.05-.19.23-.55.35-1.08.35h-5.72Z"/>
    <path class="cls-1" d="M436.59,164.92c-.33,0-.67-.06-1.05-.17-.37-.12-.56-.4-.56-.84,0-.19.03-.36.09-.52.06-.16.12-.33.19-.49.88-2.02,1.8-4.03,2.74-6.03.94-2,1.85-4.01,2.74-6.03v-.31c-1.93-4.46-3.86-8.93-5.79-13.39-1.93-4.46-3.85-8.94-5.75-13.42-.16-.37-.24-.7-.24-.98,0-.44.18-.72.54-.84s.7-.17,1.03-.17h6.1c.37,0,.64.08.82.23.17.15.34.38.51.68.39.79.75,1.62,1.06,2.48.31.86.62,1.7.92,2.51.81,2.02,1.61,4.05,2.39,6.08.78,2.03,1.6,4.05,2.46,6.05.05.07.11.17.17.3.07.13.15.19.24.19s.17-.06.24-.17c.07-.12.12-.21.14-.28.93-2,1.82-4.03,2.68-6.08s1.73-4.1,2.62-6.12c.35-.81.69-1.66,1.03-2.53.34-.87.71-1.7,1.13-2.49.33-.56.77-.84,1.33-.84h4.32c.35,0,.7.06,1.05.17.35.12.52.4.52.84,0,.28-.08.6-.24.98-1.7,4.14-3.42,8.26-5.18,12.38-1.75,4.12-3.49,8.24-5.21,12.38-.72,1.74-1.45,3.48-2.18,5.21s-1.47,3.46-2.21,5.18c-.37.86-.74,1.73-1.1,2.62-.36.88-.74,1.74-1.13,2.58-.28.58-.72.87-1.33.87h-5.09Z"/>
  </g>
  <path class="cls-1" d="M554.79,152.36c-.85,0-1.35-.44-1.49-1.31-.07-.49-.14-.98-.2-1.47-.06-.5-.12-.99-.16-1.48,0-.07-.02-.2-.07-.38s-.13-.27-.25-.27c-.1,0-.2.05-.31.16s-.19.2-.24.27c-1.6,1.85-3.55,3.17-5.85,3.97-2.3.8-4.65,1.2-7.05,1.2-1.97,0-3.87-.35-5.7-1.04-1.83-.69-3.34-1.76-4.52-3.19-1.18-1.43-1.77-3.26-1.77-5.47,0-2.82.02-5.64.05-8.47s.05-5.64.05-8.44v-5.65c0-1,.5-1.49,1.49-1.49h5.61c1,0,1.49.5,1.49,1.49v5.72c0,2.28-.01,4.58-.04,6.89-.02,2.31-.02,4.62,0,6.92.05,1.92.67,3.27,1.88,4.06,1.2.79,2.68,1.19,4.43,1.19,2.19,0,4.05-.58,5.58-1.75,1.53-1.17,2.7-2.67,3.52-4.5.81-1.83,1.22-3.75,1.22-5.74v-12.79c0-1,.5-1.49,1.49-1.49h5.58c1,0,1.49.5,1.49,1.49s0,2.09-.02,3.13-.02,2.09-.02,3.14c0,2.67.02,5.36.05,8.05.04,2.7.07,5.38.09,8.05.02,1.26.05,2.53.09,3.81s.05,2.56.05,3.84c0,1.02-.5,1.53-1.49,1.53h-4.99Z"/>
  <path class="cls-1" d="M568.6,101.99c0-1,.5-1.49,1.49-1.49h5.76c1,0,1.49.5,1.49,1.49,0,4.13-.01,8.26-.04,12.39-.02,4.13-.04,8.26-.04,12.39s.01,8.26.04,12.39c.02,4.13.04,8.26.04,12.39,0,1-.5,1.49-1.49,1.49h-5.76c-1,0-1.49-.5-1.49-1.49,0-4.13.01-8.26.04-12.39.02-4.13.04-8.26.04-12.39s-.01-8.26-.04-12.39c-.02-4.13-.04-8.26-.04-12.39Z"/>
  <path class="cls-1" d="M592.21,153.05c-1.38,0-2.83-.26-4.34-.77-1.51-.51-2.76-1.28-3.75-2.3-.29-.29-.44-.61-.44-.95,0-.15.08-.52.24-1.11.16-.6.33-1.21.53-1.84.19-.63.31-1.04.36-1.24.1-.29.23-.58.4-.86s.44-.42.8-.42c.46,0,1.18.3,2.15.91.97.61,2.09.91,3.35.91,2.21,0,3.32-1.07,3.32-3.21,0-1.38-.44-2.34-1.33-2.88-.89-.53-1.84-1.07-2.86-1.6-2.04-1.09-3.6-2.43-4.66-4.01-1.07-1.58-1.6-3.55-1.6-5.91,0-2.99.88-5.32,2.64-7s4.11-2.51,7.05-2.51c.36,0,.93.05,1.69.14.77.1,1.56.25,2.39.46.83.21,1.53.49,2.11.84s.88.77.88,1.26-.1.97-.29,1.51c-.19.55-.35,1.05-.47,1.51-.1.32-.23.62-.4.91-.17.29-.46.44-.88.44-.51,0-1.06-.13-1.64-.4-.58-.27-1.21-.4-1.89-.4-.92,0-1.74.27-2.44.82-.71.55-1.06,1.32-1.06,2.31,0,1.14.35,2.03,1.04,2.66.69.63,1.55,1.19,2.57,1.68,1.02.49,2.04,1.08,3.06,1.79,1.02.71,1.88,1.68,2.57,2.93s1.04,2.97,1.04,5.16c0,3.11-.87,5.75-2.61,7.91-1.74,2.16-4.25,3.24-7.53,3.24Z"/>
  <path class="cls-1" d="M519.62,110.83c-1.26-2.15-2.96-3.87-5.1-5.17-2.14-1.3-4.51-2.24-7.13-2.82-2.61-.58-5.27-.88-7.96-.88h-16.36c-1,0-1.49.51-1.49,1.53,0,1.29.02,2.59.05,3.9.04,1.31.07,2.61.09,3.9.07,5.2.11,10.41.11,15.64,0,5.59-.04,11.15-.11,16.69-.02,1.31-.06,2.63-.11,3.95-.05,1.32-.07,2.64-.07,3.95,0,1.02.5,1.53,1.49,1.53h6.31c1,0,1.49-.49,1.49-1.46l.08-10.56.06-18.23c0-1.27,0-2.53,0-3.8-.01-2.76-.03-5.51-.05-8.26h10.21c1.38,0,2.8.2,4.25.6,1.44.4,2.76,1.03,3.94,1.88,1.18.85,2.05,1.97,2.61,3.35.12.34.24.75.36,1.22.12.47.18.88.18,1.22,0,.39-.06.81-.18,1.28-.12.46-.25.88-.4,1.24-.56,1.38-1.46,2.5-2.7,3.33-1.24.84-2.61,1.45-4.1,1.82-1.49.38-2.95.56-4.36.56h-1.35c-.69,0-1.24.56-1.24,1.24v6.34c0,.69.56,1.24,1.24,1.24h1.24c2.82,0,5.59-.39,8.33-1.17,2.73-.78,5.14-2.05,7.23-3.81,2.09-1.76,3.6-4.1,4.52-7.02.27-.85.47-1.73.62-2.64.15-.91.22-1.8.22-2.68,0-3.13-.63-5.78-1.89-7.93Z"/>
  <path class="cls-1" d="M622.55,132.58c-.33.23-.55.62-.55,1.05v.06h0l.33.79h0l.47,1.17.73,2.02c.25.69,1.01,1.04,1.69.79l12.43-4.52c.69-.25,1.04-1.01.79-1.69l-.92-2.51c-.91-3.31-2.42-6.02-4.54-8.11-2.39-2.36-5.69-3.53-9.9-3.53-3.41,0-6.37.77-8.89,2.31-2.53,1.55-4.48,3.64-5.87,6.29-1.39,2.65-2.08,5.64-2.08,8.97,0,3.57.73,6.66,2.19,9.26s3.5,4.61,6.14,6.02c2.64,1.41,5.73,2.12,9.28,2.12,2.09,0,4.37-.31,6.84-.91,2.47-.61,4.56-1.51,6.28-2.7.2-.14.37-.3.51-.47.15-.17.22-.39.22-.66,0-.17-.13-.55-.39-1.15-.25-.6-.52-1.19-.8-1.79-.28-.59-.47-.98-.57-1.15-.12-.27-.27-.51-.45-.71-.18-.21-.44-.31-.78-.31-.17,0-.34.04-.51.11-.17.08-.34.16-.51.26-1.29.73-2.6,1.34-3.92,1.82-1.33.48-2.75.73-4.28.73-1.95,0-3.77-.42-5.47-1.27-1.7-.85-3.03-2.15-4.01-3.9-.05-.09-.09-.27-.09-.27,0,0-.89-1.75-1.24-3.32-.41-1.79.03-3.92.52-5.68.11-.4.24-.78.39-1.17.58-1.54,1.48-2.81,2.69-3.81,1.22-1,2.74-1.5,4.59-1.5,1.58,0,2.91.5,3.99,1.5,1.08,1,1.92,2.16,2.53,3.5-2.04.72-4.1,1.43-6.16,2.15-.22.08-.45.16-.68.24Z"/>
  <path class="cls-1" d="M245.54,104.07c0,.12-.09.57-.26,1.35-.17.78-.35,1.56-.53,2.35-.18.79-.31,1.27-.38,1.44-.1.34-.23.64-.4.89-.17.26-.46.38-.87.38-.27,0-.56-.06-.88-.18-.92-.32-1.85-.58-2.79-.79-.94-.2-1.9-.31-2.9-.31-1.22,0-2.42.17-3.63.51-1.2.34-2.21.92-3.01,1.75-.8.83-1.2,1.97-1.2,3.42,0,1.82.46,3.32,1.38,4.5.92,1.18,2.11,2.19,3.55,3.02s2.98,1.67,4.61,2.48c1.63.81,3.16,1.77,4.61,2.88,1.44,1.11,2.63,2.5,3.55,4.17.92,1.68,1.38,3.83,1.38,6.45,0,3.6-.85,6.46-2.55,8.6s-3.94,3.68-6.71,4.63-5.75,1.42-8.93,1.42c-.95,0-2.07-.05-3.37-.16-1.3-.11-2.59-.28-3.86-.51-1.28-.23-2.35-.52-3.23-.86-.29-.12-.54-.27-.73-.44-.19-.17-.29-.44-.29-.8,0-.15.1-.63.29-1.44.19-.81.4-1.63.62-2.46.22-.83.35-1.34.4-1.53.12-.34.26-.62.42-.84s.44-.33.86-.33c.24,0,.47.04.69.11,1.19.34,2.4.63,3.63.88,1.23.24,2.46.36,3.7.36,1.53,0,3.01-.21,4.43-.64s2.59-1.15,3.5-2.17c.91-1.02,1.37-2.42,1.37-4.19,0-2.02-.47-3.64-1.42-4.87-.95-1.23-2.16-2.26-3.64-3.1s-3.06-1.64-4.72-2.4c-1.66-.77-3.24-1.66-4.72-2.68-1.48-1.02-2.7-2.34-3.64-3.97-.95-1.63-1.42-3.74-1.42-6.34,0-3.23.76-5.84,2.3-7.82,1.53-1.98,3.55-3.43,6.05-4.35,2.5-.92,5.19-1.38,8.05-1.38,1.43,0,3.09.13,4.96.4,1.87.27,3.46.69,4.77,1.28.29.12.52.27.69.46.17.18.26.46.26.82Z"/>
  <path class="cls-1" d="M337.97,119.49c0-2.09-.01-4.17-.04-6.25-.02-2.08-.04-4.15-.04-6.21,0-1,.5-1.49,1.49-1.49h5.72c1,0,1.49.5,1.49,1.49,0,2.06,0,4.14-.02,6.21-.01,2.08-.02,4.16-.02,6.25,0,.29.16.44.47.44h5.72c1,0,1.49.5,1.49,1.49,0,.75,0,1.51-.02,2.28-.01.77-.02,1.54-.02,2.31,0,1-.5,1.49-1.49,1.49h-5.69c-.32,0-.47.15-.47.44,0,3.94.01,7.87.04,11.81s.04,7.87.04,11.81c0,1-.5,1.49-1.49,1.49h-5.79c-1,0-1.49-.5-1.49-1.49,0-3.94.02-7.87.05-11.81.04-3.94.05-7.87.05-11.81,0-.37-.26-.54-.77-.53-.51.01-1.09.05-1.75.13-.66.07-1.24.02-1.75-.15-.51-.17-.77-.63-.77-1.38v-4.59c0-1,.5-1.49,1.49-1.49h3.06c.31,0,.47-.14.47-.44Z"/>
  <path class="cls-1" d="M288.55,127.4c-1.19-2.67-2.95-4.81-5.28-6.41-2.33-1.6-5.21-2.4-8.64-2.4-2.26,0-4.35.38-6.27,1.13-1.92.75-3.77,1.81-5.54,3.17-.17.12-.3.18-.4.18-.27,0-.41-.3-.44-.89-.02-.6-.13-1.2-.31-1.8-.18-.61-.65-.91-1.4-.91h-4.7c-.82,0-1.49.67-1.49,1.49,0,1.19,0,2.38.02,3.57.01,1.19.02,2.38.02,3.57,0,3.96-.02,7.92-.07,11.86-.05,3.95-.12,7.9-.22,11.86-.05,1.85-.12,3.72-.2,5.61-.09,1.89-.13,3.78-.13,5.65,0,1.02.49,1.53,1.46,1.53h5.87c.53,0,.91-.12,1.11-.36.21-.24.33-.61.38-1.09.05-.58.07-1.18.05-1.8-.01-.62-.02-1.22-.02-1.8.05-1.58.07-3.18.07-4.79s.02-3.21.07-4.79c0-.07.15-10.43.15-10.53,0-1.22,0-2.43.02-3.64.01-1.21.02-2.43.02-3.65.73-1.94,1.9-3.44,3.5-4.48,1.6-1.04,3.44-1.57,5.5-1.57,2.89,0,5.27.93,7.14,2.79,1.87,1.86,2.81,4.23,2.81,7.12,0,1.85-.46,3.51-1.37,4.98-.91,1.47-2.13,2.63-3.64,3.48-1.52.85-3.2,1.28-5.05,1.28-.22,0-.44,0-.66-.02-.72-.05-1.33.52-1.33,1.24v4.81c0,.61.43,1.13,1.03,1.23.87.14,1.76.21,2.67.21,3.47,0,6.49-.69,9.04-2.08,2.55-1.38,4.53-3.35,5.92-5.91,1.4-2.55,2.1-5.56,2.1-9.04,0-3.18-.6-6.11-1.79-8.78Z"/>
  <path class="cls-1" d="M312,117.05c-9.94,0-18,8.06-18,18s8.06,18,18,18,18-8.06,18-18-8.06-18-18-18ZM312,145.05c-5.52,0-10-4.48-10-10s4.48-10,10-10,10,4.48,10,10-4.48,10-10,10Z"/>
  <g>
    <path class="cls-1" d="M162.51,170.51c-14.52,14.51-37.69,15.05-52.86,1.64-.99-.88-1.02-2.42-.08-3.36l10.42-10.41c.83-.83,2.15-.93,3.06-.19,7.58,6.16,18.75,5.71,25.81-1.35,7.42-7.41,7.56-19.35.39-26.92-.13-.13-.25-.26-.37-.4-3.4-3.79-3.27-9.61.38-13.25,3.64-3.65,9.47-3.77,13.25-.36l.03-.03c15.08,15.1,15.07,39.56-.03,54.64Z"/>
    <circle class="cls-1" cx="111.66" cy="79.31" r="9.66"/>
    <circle class="cls-1" cx="177.34" cy="186.03" r="9.66"/>
    <path class="cls-1" d="M180.65,92.91c-15.17-13.41-38.34-12.86-52.86,1.64-15.1,15.08-15.11,39.54-.03,54.64l.03-.03c3.78,3.4,9.61,3.28,13.25-.36,3.65-3.64,3.78-9.46.38-13.25-.12-.14-.24-.27-.37-.4-7.17-7.57-7.03-19.51.39-26.92,7.06-7.06,18.23-7.51,25.81-1.35.91.74,2.23.63,3.06-.19l10.42-10.41c.94-.94.91-2.48-.08-3.36Z"/>
  </g>
</svg>