<?xml version="1.0" encoding="UTF-8"?>
<svg id="Calque_1" data-name="Calque 1" xmlns="http://www.w3.org/2000/svg" xmlns:xlink="http://www.w3.org/1999/xlink" viewBox="0 0 492.6 278.74">
  <defs>
    <style>
      .cls-1 {
        fill: url(#Dégradé_sans_nom_497-8);
      }

      .cls-2 {
        fill: #281e6b;
      }

      .cls-3 {
        stroke: url(#Dégradé_sans_nom_497-12);
      }

      .cls-3, .cls-4, .cls-5, .cls-6, .cls-7, .cls-8, .cls-9, .cls-10, .cls-11, .cls-12, .cls-13, .cls-14, .cls-15, .cls-16, .cls-17, .cls-18 {
        stroke-miterlimit: 10;
      }

      .cls-3, .cls-8, .cls-13, .cls-14, .cls-15 {
        fill: none;
      }

      .cls-19 {
        fill: url(#Dégradé_sans_nom_391);
      }

      .cls-4 {
        fill: url(#Dégradé_sans_nom_624-6);
        stroke: url(#Dégradé_sans_nom_706-6);
      }

      .cls-4, .cls-5, .cls-9, .cls-10, .cls-11, .cls-12, .cls-16, .cls-17, .cls-18 {
        stroke-width: .25px;
      }

      .cls-20 {
        fill: url(#Dégradé_sans_nom_684-9);
      }

      .cls-21 {
        fill: url(#Dégradé_sans_nom_684-7);
      }

      .cls-22 {
        fill: #1f2032;
      }

      .cls-23 {
        fill: url(#Dégradé_sans_nom_497);
      }

      .cls-24 {
        fill: #fb5;
      }

      .cls-25 {
        fill: #02c2f8;
      }

      .cls-5 {
        fill: url(#Dégradé_sans_nom_624-2);
        stroke: url(#Dégradé_sans_nom_706-2);
      }

      .cls-26 {
        fill: url(#Dégradé_sans_nom_737-2);
      }

      .cls-27 {
        fill: url(#Dégradé_sans_nom_497-6);
      }

      .cls-28 {
        fill: url(#Dégradé_sans_nom_453);
      }

      .cls-29 {
        fill: url(#Dégradé_sans_nom_716-3);
      }

      .cls-30 {
        fill: url(#Dégradé_sans_nom_497-2);
      }

      .cls-31 {
        fill: #fecf78;
      }

      .cls-32 {
        fill: url(#Dégradé_sans_nom_736-2);
      }

      .cls-33 {
        fill: url(#Dégradé_sans_nom_365-4);
      }

      .cls-34 {
        fill: url(#Dégradé_sans_nom_195-2);
      }

      .cls-6 {
        stroke: url(#Dégradé_sans_nom_736-3);
      }

      .cls-6, .cls-7 {
        fill: #161729;
      }

      .cls-35 {
        fill: url(#Dégradé_sans_nom_716);
      }

      .cls-36 {
        fill: url(#Dégradé_sans_nom_762-4);
      }

      .cls-7 {
        stroke: url(#Dégradé_sans_nom_736-5);
      }

      .cls-8 {
        stroke: url(#Dégradé_sans_nom_736);
      }

      .cls-9 {
        fill: url(#Dégradé_sans_nom_624-4);
        stroke: url(#Dégradé_sans_nom_706-4);
      }

      .cls-10 {
        fill: url(#Dégradé_sans_nom_624-3);
        stroke: url(#Dégradé_sans_nom_706-3);
      }

      .cls-37 {
        fill: url(#Dégradé_sans_nom_684-3);
      }

      .cls-38 {
        fill: url(#Dégradé_sans_nom_695);
      }

      .cls-39 {
        fill: url(#Dégradé_sans_nom_497-4);
      }

      .cls-40 {
        fill: url(#Dégradé_sans_nom_762);
      }

      .cls-41 {
        fill: url(#Dégradé_sans_nom_716-5);
      }

      .cls-42 {
        fill: url(#Dégradé_sans_nom_497-11);
      }

      .cls-43 {
        fill: url(#Dégradé_sans_nom_497-3);
      }

      .cls-44 {
        fill: url(#Dégradé_sans_nom_365-2);
      }

      .cls-45 {
        fill: url(#Dégradé_sans_nom_454);
      }

      .cls-46 {
        fill: url(#Dégradé_sans_nom_195);
      }

      .cls-47 {
        fill: url(#Dégradé_sans_nom_684-6);
      }

      .cls-48 {
        fill: #2f1c99;
      }

      .cls-11 {
        fill: url(#Dégradé_sans_nom_624);
        stroke: url(#Dégradé_sans_nom_706);
      }

      .cls-49 {
        fill: url(#Dégradé_sans_nom_757);
      }

      .cls-50 {
        fill: url(#Dégradé_sans_nom_737);
      }

      .cls-12 {
        fill: url(#Dégradé_sans_nom_624-7);
        stroke: url(#Dégradé_sans_nom_706-7);
      }

      .cls-51 {
        fill: url(#Dégradé_sans_nom_684-5);
      }

      .cls-52 {
        fill: url(#Dégradé_sans_nom_365-5);
      }

      .cls-53 {
        fill: url(#Dégradé_sans_nom_452);
      }

      .cls-54 {
        fill: url(#Dégradé_sans_nom_698);
      }

      .cls-55 {
        fill: #391ade;
      }

      .cls-56 {
        fill: url(#Dégradé_sans_nom_497-10);
      }

      .cls-57 {
        fill: url(#Dégradé_sans_nom_497-9);
      }

      .cls-58 {
        fill: url(#Dégradé_sans_nom_684-2);
      }

      .cls-13 {
        stroke: url(#Dégradé_sans_nom_736-4);
      }

      .cls-14 {
        stroke: url(#Dégradé_sans_nom_737-4);
        stroke-width: 1.02px;
      }

      .cls-59 {
        fill: url(#Dégradé_sans_nom_497-7);
      }

      .cls-60 {
        fill: url(#Dégradé_sans_nom_716-4);
      }

      .cls-61 {
        fill: url(#Dégradé_sans_nom_765);
      }

      .cls-62 {
        fill: url(#Dégradé_sans_nom_327);
      }

      .cls-15 {
        stroke: url(#Dégradé_sans_nom_737-3);
      }

      .cls-63 {
        fill: url(#Dégradé_sans_nom_684-10);
      }

      .cls-64 {
        fill: url(#Dégradé_sans_nom_762-3);
      }

      .cls-65 {
        fill: url(#Dégradé_sans_nom_365-3);
      }

      .cls-66 {
        fill: url(#Dégradé_sans_nom_365);
      }

      .cls-67 {
        fill: url(#Dégradé_sans_nom_716-2);
      }

      .cls-68 {
        fill: url(#Dégradé_sans_nom_698-2);
      }

      .cls-69 {
        fill: #341bc0;
      }

      .cls-16 {
        fill: url(#Dégradé_sans_nom_624-9);
        stroke: url(#Dégradé_sans_nom_706-9);
      }

      .cls-70 {
        fill: url(#Dégradé_sans_nom_684-8);
      }

      .cls-71 {
        fill: url(#Dégradé_sans_nom_497-5);
      }

      .cls-72 {
        fill: url(#Dégradé_sans_nom_297);
      }

      .cls-73 {
        fill: url(#Dégradé_sans_nom_684);
      }

      .cls-74 {
        fill: url(#Dégradé_sans_nom_762-2);
      }

      .cls-75 {
        fill: url(#Dégradé_sans_nom_737-5);
      }

      .cls-17 {
        fill: url(#Dégradé_sans_nom_624-8);
        stroke: url(#Dégradé_sans_nom_706-8);
      }

      .cls-18 {
        fill: url(#Dégradé_sans_nom_624-5);
        stroke: url(#Dégradé_sans_nom_706-5);
      }

      .cls-76 {
        fill: #232433;
      }

      .cls-77 {
        fill: url(#Dégradé_sans_nom_684-4);
      }
    </style>
    <linearGradient id="Dégradé_sans_nom_365" data-name="Dégradé sans nom 365" x1="115.96" y1="119.79" x2="262.98" y2="119.79" gradientUnits="userSpaceOnUse">
      <stop offset=".09" stop-color="#1f2032"/>
      <stop offset=".68" stop-color="#391ade"/>
    </linearGradient>
    <linearGradient id="Dégradé_sans_nom_736" data-name="Dégradé sans nom 736" x1="19.52" y1="144.19" x2="138.52" y2="144.19" gradientUnits="userSpaceOnUse">
      <stop offset="0" stop-color="#1f2032"/>
      <stop offset=".27" stop-color="#1e273b"/>
      <stop offset=".72" stop-color="#1e3a54"/>
      <stop offset=".98" stop-color="#1e4766"/>
    </linearGradient>
    <linearGradient id="Dégradé_sans_nom_736-2" data-name="Dégradé sans nom 736" x1="294.4" y1="178.24" x2="492.6" y2="178.24" xlink:href="#Dégradé_sans_nom_736"/>
    <linearGradient id="Dégradé_sans_nom_736-3" data-name="Dégradé sans nom 736" x1="278.7" y1="236.69" x2="351.61" y2="236.69" xlink:href="#Dégradé_sans_nom_736"/>
    <linearGradient id="Dégradé_sans_nom_195" data-name="Dégradé sans nom 195" x1="428.13" y1="228.94" x2="428.17" y2="228.94" gradientUnits="userSpaceOnUse">
      <stop offset="0" stop-color="#8283a8"/>
      <stop offset=".69" stop-color="#ded7eb"/>
    </linearGradient>
    <linearGradient id="Dégradé_sans_nom_195-2" data-name="Dégradé sans nom 195" x1="428.17" y1="228.68" x2="428.54" y2="228.68" xlink:href="#Dégradé_sans_nom_195"/>
    <linearGradient id="Dégradé_sans_nom_736-4" data-name="Dégradé sans nom 736" x1="0" y1="207.77" x2="218.08" y2="207.77" xlink:href="#Dégradé_sans_nom_736"/>
    <linearGradient id="Dégradé_sans_nom_365-2" data-name="Dégradé sans nom 365" x1="355.19" y1="170.03" x2="404.58" y2="212.15" xlink:href="#Dégradé_sans_nom_365"/>
    <linearGradient id="Dégradé_sans_nom_297" data-name="Dégradé sans nom 297" x1="302.32" y1="217.62" x2="382.75" y2="172.77" gradientUnits="userSpaceOnUse">
      <stop offset="0" stop-color="#391ade"/>
      <stop offset=".64" stop-color="#1c1d2d"/>
      <stop offset=".93" stop-color="#18192a"/>
      <stop offset="1" stop-color="#161729"/>
    </linearGradient>
    <linearGradient id="Dégradé_sans_nom_716" data-name="Dégradé sans nom 716" x1="343.56" y1="169.64" x2="395.15" y2="216.46" gradientUnits="userSpaceOnUse">
      <stop offset="0" stop-color="#1f2032"/>
      <stop offset=".1" stop-color="#1e243b"/>
      <stop offset=".28" stop-color="#1e2f54"/>
      <stop offset=".5" stop-color="#1d427e"/>
      <stop offset=".75" stop-color="#1c5bb7"/>
      <stop offset=".98" stop-color="#1b75ef"/>
    </linearGradient>
    <linearGradient id="Dégradé_sans_nom_695" data-name="Dégradé sans nom 695" x1="260.28" y1="187.62" x2="263.34" y2="166.4" gradientUnits="userSpaceOnUse">
      <stop offset="0" stop-color="#02c1f7"/>
      <stop offset=".99" stop-color="#00c8ff"/>
    </linearGradient>
    <linearGradient id="Dégradé_sans_nom_684" data-name="Dégradé sans nom 684" x1="260.05" y1="138.28" x2="270.76" y2="138.28" gradientUnits="userSpaceOnUse">
      <stop offset="0" stop-color="#391a40"/>
      <stop offset=".1" stop-color="#362249"/>
      <stop offset=".28" stop-color="#2e3962"/>
      <stop offset=".5" stop-color="#225f8c"/>
      <stop offset=".76" stop-color="#1193c5"/>
      <stop offset=".99" stop-color="#00c8ff"/>
    </linearGradient>
    <linearGradient id="Dégradé_sans_nom_453" data-name="Dégradé sans nom 453" x1="378.4" y1="106.65" x2="401.34" y2="96.05" gradientUnits="userSpaceOnUse">
      <stop offset="0" stop-color="#391ade"/>
      <stop offset="1" stop-color="#1f2032"/>
    </linearGradient>
    <linearGradient id="Dégradé_sans_nom_716-2" data-name="Dégradé sans nom 716" x1="286.12" y1="148.29" x2="377.41" y2="78.91" xlink:href="#Dégradé_sans_nom_716"/>
    <linearGradient id="Dégradé_sans_nom_365-3" data-name="Dégradé sans nom 365" x1="367.63" y1="98.42" x2="300.98" y2="172.16" xlink:href="#Dégradé_sans_nom_365"/>
    <linearGradient id="Dégradé_sans_nom_698" data-name="Dégradé sans nom 698" x1="265.4" y1="130.05" x2="276.85" y2="130.05" gradientUnits="userSpaceOnUse">
      <stop offset="0" stop-color="#391ade"/>
      <stop offset="1" stop-color="#1f2032"/>
    </linearGradient>
    <linearGradient id="Dégradé_sans_nom_698-2" data-name="Dégradé sans nom 698" x1="267.71" y1="155.68" x2="271.82" y2="155.68" xlink:href="#Dégradé_sans_nom_698"/>
    <linearGradient id="Dégradé_sans_nom_684-2" data-name="Dégradé sans nom 684" x1="267.42" y1="154.34" x2="294.8" y2="154.34" xlink:href="#Dégradé_sans_nom_684"/>
    <linearGradient id="Dégradé_sans_nom_684-3" data-name="Dégradé sans nom 684" x1="264.96" y1="156.52" x2="278.42" y2="156.52" xlink:href="#Dégradé_sans_nom_684"/>
    <linearGradient id="Dégradé_sans_nom_365-4" data-name="Dégradé sans nom 365" x1="357.19" y1="57.59" x2="275.02" y2="121.21" gradientTransform="translate(8.29 5.44) rotate(-.85)" xlink:href="#Dégradé_sans_nom_365"/>
    <linearGradient id="Dégradé_sans_nom_684-4" data-name="Dégradé sans nom 684" x1="255.29" y1="129.45" x2="261.92" y2="129.45" xlink:href="#Dégradé_sans_nom_684"/>
    <linearGradient id="Dégradé_sans_nom_391" data-name="Dégradé sans nom 391" x1="263.21" y1="117.08" x2="259.77" y2="37.21" gradientUnits="userSpaceOnUse">
      <stop offset="0" stop-color="#391ade"/>
      <stop offset="1" stop-color="#1f2032"/>
    </linearGradient>
    <linearGradient id="Dégradé_sans_nom_684-5" data-name="Dégradé sans nom 684" x1="228.2" y1="150.82" x2="256.63" y2="150.82" xlink:href="#Dégradé_sans_nom_684"/>
    <linearGradient id="Dégradé_sans_nom_497" data-name="Dégradé sans nom 497" x1="160.29" y1="151.41" x2="253.04" y2="151.41" gradientUnits="userSpaceOnUse">
      <stop offset="0" stop-color="#391ade"/>
      <stop offset="1" stop-color="#1f2032"/>
    </linearGradient>
    <linearGradient id="Dégradé_sans_nom_684-6" data-name="Dégradé sans nom 684" x1="227.4" y1="160.32" x2="257.53" y2="160.32" xlink:href="#Dégradé_sans_nom_684"/>
    <linearGradient id="Dégradé_sans_nom_452" data-name="Dégradé sans nom 452" x1="119.33" y1="89.18" x2="146.49" y2="89.18" gradientUnits="userSpaceOnUse">
      <stop offset=".09" stop-color="#1f2032"/>
      <stop offset=".68" stop-color="#391ade"/>
    </linearGradient>
    <linearGradient id="Dégradé_sans_nom_757" data-name="Dégradé sans nom 757" x1="136.67" y1="58.83" x2="249.09" y2="152.99" gradientUnits="userSpaceOnUse">
      <stop offset="0" stop-color="#1b75ef"/>
      <stop offset="1" stop-color="#1f2032"/>
    </linearGradient>
    <linearGradient id="Dégradé_sans_nom_684-7" data-name="Dégradé sans nom 684" x1="240.15" y1="147.34" x2="261.29" y2="147.34" xlink:href="#Dégradé_sans_nom_684"/>
    <linearGradient id="Dégradé_sans_nom_716-3" data-name="Dégradé sans nom 716" x1="239.7" y1="268.45" x2="250.64" y2="186.42" xlink:href="#Dégradé_sans_nom_716"/>
    <linearGradient id="Dégradé_sans_nom_736-5" data-name="Dégradé sans nom 736" x1="80.74" y1="241.72" x2="214.39" y2="241.72" xlink:href="#Dégradé_sans_nom_736"/>
    <linearGradient id="Dégradé_sans_nom_454" data-name="Dégradé sans nom 454" x1="281.48" y1="211" x2="300.5" y2="211" gradientUnits="userSpaceOnUse">
      <stop offset="0" stop-color="#391ade"/>
      <stop offset="1" stop-color="#1f2032"/>
    </linearGradient>
    <linearGradient id="Dégradé_sans_nom_327" data-name="Dégradé sans nom 327" x1="248.16" y1="173.63" x2="248.64" y2="278.74" gradientUnits="userSpaceOnUse">
      <stop offset="0" stop-color="#391ade"/>
      <stop offset=".68" stop-color="#1c1d2d"/>
      <stop offset=".96" stop-color="#1e1f30"/>
      <stop offset="1" stop-color="#1f2032"/>
    </linearGradient>
    <linearGradient id="Dégradé_sans_nom_365-5" data-name="Dégradé sans nom 365" x1="126.6" y1="139.99" x2="200.76" y2="214.16" xlink:href="#Dégradé_sans_nom_365"/>
    <linearGradient id="Dégradé_sans_nom_716-4" data-name="Dégradé sans nom 716" x1="103.07" y1="188.38" x2="181.34" y2="152.22" xlink:href="#Dégradé_sans_nom_716"/>
    <linearGradient id="Dégradé_sans_nom_497-2" data-name="Dégradé sans nom 497" x1="122.02" y1="177.67" x2="148.32" y2="177.67" xlink:href="#Dégradé_sans_nom_497"/>
    <linearGradient id="Dégradé_sans_nom_497-3" data-name="Dégradé sans nom 497" x1="156.66" y1="178.51" x2="205.63" y2="178.51" xlink:href="#Dégradé_sans_nom_497"/>
    <linearGradient id="Dégradé_sans_nom_497-4" data-name="Dégradé sans nom 497" x1="115.82" y1="148.43" x2="142.12" y2="148.43" xlink:href="#Dégradé_sans_nom_497"/>
    <linearGradient id="Dégradé_sans_nom_497-5" data-name="Dégradé sans nom 497" x1="143.46" y1="146.35" x2="179.65" y2="146.35" xlink:href="#Dégradé_sans_nom_497"/>
    <linearGradient id="Dégradé_sans_nom_497-6" data-name="Dégradé sans nom 497" x1="155.52" y1="143.15" x2="171.67" y2="143.15" xlink:href="#Dégradé_sans_nom_497"/>
    <linearGradient id="Dégradé_sans_nom_497-7" data-name="Dégradé sans nom 497" x1="384.81" y1="195.99" x2="358.52" y2="195.99" xlink:href="#Dégradé_sans_nom_497"/>
    <linearGradient id="Dégradé_sans_nom_497-8" data-name="Dégradé sans nom 497" x1="359.39" y1="150.37" x2="340.94" y2="150.73" xlink:href="#Dégradé_sans_nom_497"/>
    <linearGradient id="Dégradé_sans_nom_497-9" data-name="Dégradé sans nom 497" x1="388.95" y1="166.34" x2="362.66" y2="166.34" xlink:href="#Dégradé_sans_nom_497"/>
    <linearGradient id="Dégradé_sans_nom_497-10" data-name="Dégradé sans nom 497" x1="365.9" y1="164.65" x2="331.14" y2="156.83" xlink:href="#Dégradé_sans_nom_497"/>
    <linearGradient id="Dégradé_sans_nom_497-11" data-name="Dégradé sans nom 497" x1="354.85" y1="158.88" x2="339.09" y2="155.33" xlink:href="#Dégradé_sans_nom_497"/>
    <linearGradient id="Dégradé_sans_nom_737" data-name="Dégradé sans nom 737" x1="385.55" y1="139.33" x2="452.34" y2="139.33" gradientUnits="userSpaceOnUse">
      <stop offset="0" stop-color="#1f2032"/>
      <stop offset=".16" stop-color="#1c2937"/>
      <stop offset=".42" stop-color="#144247"/>
      <stop offset=".76" stop-color="#086b60"/>
      <stop offset=".98" stop-color="#008b73"/>
    </linearGradient>
    <linearGradient id="Dégradé_sans_nom_716-5" data-name="Dégradé sans nom 716" x1="224.57" y1="32.76" x2="306.75" y2="101.6" xlink:href="#Dégradé_sans_nom_716"/>
    <linearGradient id="Dégradé_sans_nom_684-8" data-name="Dégradé sans nom 684" x1="248.11" y1="122.92" x2="261.29" y2="122.92" xlink:href="#Dégradé_sans_nom_684"/>
    <linearGradient id="Dégradé_sans_nom_737-2" data-name="Dégradé sans nom 737" x1="402.77" y1="202.79" x2="473.04" y2="202.79" xlink:href="#Dégradé_sans_nom_737"/>
    <linearGradient id="Dégradé_sans_nom_737-3" data-name="Dégradé sans nom 737" x1="309.03" y1="234.2" x2="345.37" y2="234.2" xlink:href="#Dégradé_sans_nom_737"/>
    <linearGradient id="Dégradé_sans_nom_737-4" data-name="Dégradé sans nom 737" x1="-651.72" y1="-277.06" x2="-615.35" y2="-277.06" gradientTransform="translate(-275.39 -372.96) rotate(-101.79) scale(.88 -.88)" xlink:href="#Dégradé_sans_nom_737"/>
    <linearGradient id="Dégradé_sans_nom_624" data-name="Dégradé sans nom 624" x1="221.92" y1="130.24" x2="228.69" y2="130.24" gradientUnits="userSpaceOnUse">
      <stop offset="0" stop-color="#1f2032"/>
      <stop offset="1" stop-color="#391ade"/>
    </linearGradient>
    <linearGradient id="Dégradé_sans_nom_706" data-name="Dégradé sans nom 706" x1="221.79" y1="130.24" x2="228.81" y2="130.24" gradientUnits="userSpaceOnUse">
      <stop offset="0" stop-color="#02c2f8" stop-opacity=".5"/>
      <stop offset="1" stop-color="#161729" stop-opacity="0"/>
    </linearGradient>
    <linearGradient id="Dégradé_sans_nom_624-2" data-name="Dégradé sans nom 624" x1="234.48" y1="118.17" x2="241.38" y2="118.17" xlink:href="#Dégradé_sans_nom_624"/>
    <linearGradient id="Dégradé_sans_nom_706-2" data-name="Dégradé sans nom 706" x1="234.36" y1="118.17" x2="241.51" y2="118.17" xlink:href="#Dégradé_sans_nom_706"/>
    <linearGradient id="Dégradé_sans_nom_624-3" data-name="Dégradé sans nom 624" x1="481.18" y1="107.11" x2="488.08" y2="107.11" gradientTransform="translate(742.56) rotate(-180) scale(1 -1)" xlink:href="#Dégradé_sans_nom_624"/>
    <linearGradient id="Dégradé_sans_nom_706-3" data-name="Dégradé sans nom 706" x1="481.05" y1="107.11" x2="488.2" y2="107.11" gradientTransform="translate(742.56) rotate(-180) scale(1 -1)" xlink:href="#Dégradé_sans_nom_706"/>
    <linearGradient id="Dégradé_sans_nom_624-4" data-name="Dégradé sans nom 624" x1="263.48" y1="94.59" x2="274.48" y2="94.59" xlink:href="#Dégradé_sans_nom_624"/>
    <linearGradient id="Dégradé_sans_nom_706-4" data-name="Dégradé sans nom 706" x1="268.98" y1="87" x2="268.98" y2="102.18" xlink:href="#Dégradé_sans_nom_706"/>
    <linearGradient id="Dégradé_sans_nom_624-5" data-name="Dégradé sans nom 624" x1="276.02" y1="121.43" x2="282.19" y2="121.43" xlink:href="#Dégradé_sans_nom_624"/>
    <linearGradient id="Dégradé_sans_nom_706-5" data-name="Dégradé sans nom 706" x1="275.9" y1="121.48" x2="282.31" y2="121.48" xlink:href="#Dégradé_sans_nom_706"/>
    <linearGradient id="Dégradé_sans_nom_624-6" data-name="Dégradé sans nom 624" x1="291.07" y1="114.93" x2="299.11" y2="114.93" xlink:href="#Dégradé_sans_nom_624"/>
    <linearGradient id="Dégradé_sans_nom_706-6" data-name="Dégradé sans nom 706" x1="290.95" y1="114.93" x2="299.24" y2="114.93" xlink:href="#Dégradé_sans_nom_706"/>
    <linearGradient id="Dégradé_sans_nom_624-7" data-name="Dégradé sans nom 624" x1="246.74" y1="75.04" x2="254.78" y2="75.04" xlink:href="#Dégradé_sans_nom_624"/>
    <linearGradient id="Dégradé_sans_nom_706-7" data-name="Dégradé sans nom 706" x1="246.61" y1="75.04" x2="254.91" y2="75.04" xlink:href="#Dégradé_sans_nom_706"/>
    <linearGradient id="Dégradé_sans_nom_684-9" data-name="Dégradé sans nom 684" x1="248.97" y1="122.43" x2="257.68" y2="151.04" xlink:href="#Dégradé_sans_nom_684"/>
    <linearGradient id="Dégradé_sans_nom_684-10" data-name="Dégradé sans nom 684" x1="249.81" y1="135.31" x2="259.71" y2="162.1" xlink:href="#Dégradé_sans_nom_684"/>
    <linearGradient id="Dégradé_sans_nom_624-8" data-name="Dégradé sans nom 624" x1="239.13" y1="106.64" x2="245.89" y2="123.46" xlink:href="#Dégradé_sans_nom_624"/>
    <linearGradient id="Dégradé_sans_nom_706-8" data-name="Dégradé sans nom 706" x1="239.08" y1="115.55" x2="245.79" y2="115.55" xlink:href="#Dégradé_sans_nom_706"/>
    <linearGradient id="Dégradé_sans_nom_624-9" data-name="Dégradé sans nom 624" x1="236.54" y1="103.31" x2="247.22" y2="103.31" xlink:href="#Dégradé_sans_nom_624"/>
    <linearGradient id="Dégradé_sans_nom_706-9" data-name="Dégradé sans nom 706" x1="236.41" y1="103.39" x2="247.35" y2="103.39" xlink:href="#Dégradé_sans_nom_706"/>
    <linearGradient id="Dégradé_sans_nom_765" data-name="Dégradé sans nom 765" x1="92.3" y1="238.85" x2="179.87" y2="238.85" gradientUnits="userSpaceOnUse">
      <stop offset="0" stop-color="#008b73"/>
      <stop offset="1" stop-color="#1f2032"/>
    </linearGradient>
    <linearGradient id="Dégradé_sans_nom_497-12" data-name="Dégradé sans nom 497" x1="249.36" y1="199.26" x2="256.52" y2="199.26" xlink:href="#Dégradé_sans_nom_497"/>
    <linearGradient id="Dégradé_sans_nom_762" data-name="Dégradé sans nom 762" x1="25.29" y1="201.74" x2="96.17" y2="201.74" gradientUnits="userSpaceOnUse">
      <stop offset="0" stop-color="#008b73"/>
      <stop offset="1" stop-color="#1f2032"/>
    </linearGradient>
    <linearGradient id="Dégradé_sans_nom_737-5" data-name="Dégradé sans nom 737" x1="291.39" y1="258.33" x2="325.28" y2="252.29" xlink:href="#Dégradé_sans_nom_737"/>
    <linearGradient id="Dégradé_sans_nom_762-2" data-name="Dégradé sans nom 762" x1="31.94" y1="204.53" x2="90.33" y2="241.31" xlink:href="#Dégradé_sans_nom_762"/>
    <linearGradient id="Dégradé_sans_nom_762-3" data-name="Dégradé sans nom 762" x1="164.09" y1="189.79" x2="200.08" y2="189.79" xlink:href="#Dégradé_sans_nom_762"/>
    <linearGradient id="Dégradé_sans_nom_762-4" data-name="Dégradé sans nom 762" x1="28.61" y1="214.03" x2="62.32" y2="201.52" xlink:href="#Dégradé_sans_nom_762"/>
  </defs>
  <path class="cls-66" d="M238.77,93.4c6.13-1.78,7.44,10.79,8.45,14.24,4.16,14.19,6.49,28.04,6.55,43,.88,2.58,2.14,7.39,2.69,10.1l1.25-.86c-2.17-15.61-3.17-31.57-4.93-47.25-.8-7.16,4.48-11.75-6.46-22.3-7.2-8.02-15.8-15.98-25.04-21.6-14.67-8.93-39.91-15.56-57.06-16.05-18.32-.53-15.21,5.46-24.47,16.42-.2.59.08.96.52,1.2-.45-.24-.73-.61-.52-1.2-3.07,3.63-7.13,6.38-11.5,8.2-3.68,1.53-10.35,1.02-11.95,6.09-.95,3.03.11,4.96,2.64,6.72.55-1.36.31-3.28,2.05-3.83.59-.19,1.3-.24,2.06-.19,3.79.26,9.17,3.16,10.7,5.91,5.57.47,22.76,20.16,26.58,25.38-.28-.77.8-1.25,1.25-1.08,1.25.5,9.49,9.34,11.57,11.03,6.13,4.97,13.03,8.45,19.41,12.81,1.08.74,1.94,3.2,2.16,3.35,6.93,4.63,19.61,11.75,27.26,14.8,5.86,2.34,15.22,3.08,19.96,6.89,4.63,3.71,8.24,15.84,11.09,21.38.25.05.6-.07.85-.02.56.12.9.29,1.69.4-.07-.53.09-1.18-.02-1.69-.24-1.05,7.92-7.22,7.4-8.53-1.08-2.66-2.11-21.72-3.62-26.08-2.95-8.73-8.43-17.22-12.38-25.74-.93-2-11.86-.71-12.19-2.92-.46-3.09-1.03-15.17,4.45-13.37,0-.12,2.37-1.14,2.17-2.66-.21-1.58-8.19-10.93-2.6-12.55ZM220.2,123.25c-.57-.02-4.25-4.67-5.15-5.42-13.5-11.31-27.94-24.13-43.36-32.73-9.97-5.55-20.88-9.38-31.88-12.41,0-2.72,23.35,4.98,25.23,5.75,2.54,1.04,5.8,2.81,8.3,4.1,1.08.56,2.39,1.07,3.4,1.64,0-.14-.04-.29-.11-.43.07.15.11.29.11.44,16.18,9.13,31.9,24.24,45.33,36.93,0,0,0,0,0,0-.35.28-1.31,2.16-1.87,2.14Z"/>
  <path class="cls-8" d="M137.42,136.86l-.91.37c-.85.35-1.74,1.07-2.59,1.78-.89.72-1.81,1.47-2.73,1.85-1.9,2.42-22.48,30.19-23.04,31.38l-1.41,3.03.45-3.29c.12-.85-.62-1.49-1.34-2.1-.16-.14-.31-.26-.44-.39-17.49-16.09-38.95-32.09-63.8-47.58l-20.37-9.7,1.63-.23c37.74-5.5,79.18,3.38,113.71,24.36l.84.52Z"/>
  <path class="cls-32" d="M491.28,232.35c-1.32,0-3.79-.93-8.34-2.73l-1.04-.41c-32.23-8.11-65.54-4.61-97.75-1.22-14.06,1.48-28.6,3.01-42.89,3.56-6.92.27-13.3.29-19.49.07h-.32s-.12-.3-.12-.3c-5.7-13.09-12.97-23.53-21.62-31.03l-.09-.09c-1-.86-1.94-1.62-2.83-2.29-.66-.51-1.32-1-2-1.48l-.39-.27.24-.4c.63-1.04,1.28-2.07,1.94-3.09.97-1.51,1.9-2.9,2.84-4.25,18.31-26.41,45.24-46.6,75.83-56.85,31.4-10.52,65.16-9.87,95.04,1.82l1.49.58-1.56.37c-24.65,5.81-78.84,27.36-78.77,36.74.01,1.65,1.92,2.9,5.66,3.72,40.7,8.87,71.11,25.33,90.4,48.93,4.9,5.73,5.5,7.28,4.89,8.14-.23.32-.58.47-1.12.47ZM437.64,223.25c14.92,0,29.83,1.3,44.56,5.01l1.1.43c3.62,1.43,7.74,3.06,8.29,2.6.1-.24-.16-1.43-4.84-6.91h0c-19.14-23.43-49.37-39.78-89.84-48.6-4.26-.93-6.43-2.51-6.45-4.68-.09-10.51,53.99-31.34,77.98-37.34-59.75-22.55-130.25.52-168.2,55.24-.93,1.33-1.85,2.71-2.82,4.22-.57.89-1.13,1.77-1.68,2.67.56.4,1.11.81,1.66,1.23.9.68,1.85,1.46,2.9,2.36l.09.09c8.67,7.52,15.99,17.98,21.73,31.07,6.07.21,12.32.18,19.1-.08,14.27-.55,28.79-2.08,42.83-3.56,17.65-1.86,35.63-3.75,53.6-3.75Z"/>
  <path class="cls-6" d="M342.79,273.52c-15.63-13.99-67.41-11.2-63.36-30.74.01,0,.01-.01.01-.01v-.02s0-.01.01-.01c.06-.11.12-.21.19-.32,1.47-2.47,2.96-4.99,4.42-7.57,0-.01.01-.01.01-.02.04-.08.09-.16.14-.25,3.21-5.68,6.32-11.59,8.86-17.65.01-.03.02-.05.03-.08.15-.37.31-.73.45-1.1.2-.48.38-.96.58-1.43.02-.03.03-.06.03-.09.19-.49.36-.97.55-1.45.36-1.01.71-2.01,1.04-3.02.07-.21.13-.42.21-.63.02-.08.05-.16.07-.24.01-.02.01-.04.02-.06.01-.04.03-.08.04-.13.08-.26.17-.53.24-.8.1-.34.21-.7.31-1.05.08-.3.17-.6.25-.91.09-.3.18-.61.25-.92.03-.12.06-.23.09-.35.41-1.6.75-3.2,1.03-4.81.23-1.29.41-2.58.55-3.87,21.31,2.57,34.3,17.2,42.09,35.07,5.96,13.66,8.9,29.22,10.19,42.76.45,6.87-5.37,2.32-8.3-.3Z"/>
  <path class="cls-46" d="M428.16,228.92h.01s-.03.04-.04.05c.01-.02.02-.03.03-.05Z"/>
  <path class="cls-34" d="M428.54,228.45c-.15.16-.27.33-.37.47,0-.01,0-.03.02-.04.07-.1.15-.21.24-.32.04-.04.07-.07.11-.11Z"/>
  <path class="cls-13" d="M217.53,180.88l-.05.53c-.2,2.29-4.99,55.83-16.73,55.86-.25.2-.64.3-1.16.31-.05.01-.09.01-.14.01-1.93,0-6.28-1.15-6.7-1.67-1.47-1.18-48.28-18.15-51.06-18.48-2.56-.31-5.39-.41-8.17-.3-1.77.07-8.09,2.58-9.04,3.04-.75.37-1.56.86-2.34,1.33-.47.28-.95.57-1.41.83-.7.39-1.17.87-1.66,1.38-.89.92-1.8,1.86-3.96,2.14-3.99.52-9.21-.05-14.25-.6-3.37-.36-6.55-.71-9.29-.74-19.82-.2-56.72-.6-77.7,6.21-2.06.67-4.07,1.66-6.02,2.63-1.71.85-3.48,1.73-5.29,2.39l-1.37.5.77-1.24c14.32-22.82,39-41.81,64.4-49.54,5.43-1.65,29.47-7.45,34.47-6.87l4-.56-.13.68c3.69,4.42,77.5,2.85,101.75,2.33,5.77-.12,9.59-.2,10.54-.18h.54Z"/>
  <path class="cls-44" d="M405.42,205.42c-.47,4.24-.92,4.37-2.23,7.56-.18.44-.82,1.56-1.12,1.96-7.35,9.77-19.96,12.42-27.66,7.84l6.76.97c2.28.47,4.07.12,6.29-.54,36.3-10.82,6.83-50.16-12.75-65.92.23,1.58-1.63.22-1.9.03-10.45-7.11-15.87-8.88-28.06-11.42-.69-.14-.58-1.24-.65-1.25,1.12-1.84,3.5-2.98,5.01-4.3,5.47,1.59,14.34,3.66,22.94,8.95,13.71,8.43,26.91,22.58,31.42,38.4.42,1.5,1.11,4.4,1.35,5.9.53,3.37.97,8.47.6,11.82Z"/>
  <path class="cls-72" d="M374.71,157.29c.23,1.58-1.62.22-1.9.03-10.45-7.1-15.86-8.87-28.05-11.41-.69-.14-.58-1.25-.65-1.26-.14-.02-.28.02-.42,0-5.98,4.79-12.5,9.26-19.46,12.54-16.61,7.82-39.3,9.07-49.69,25.24,5.9-3.99,7.43-5.03,14.74-3.18,4.55,1.16,9.58,5.34,10.71,9.98.14.58.39.97.44,1.26,6.33.96,12.65,1.95,18.85,3.52.37.09,3.2.82,4.45,1.2,9.11,2.74,18.01,6.94,26.36,11.44,3.36,1.81,6.59,3.71,9.8,5.77,5.02,3.21,9.48,7.35,14.52,10.35l3.85,1.45c6.1,1.02,9.13.15,13.31-1.61,29.9-12.56,1.94-50.2-16.86-65.34Z"/>
  <path class="cls-35" d="M393.57,218.27c-5.15-15.45-14.82-26.24-27.78-35.5-3.67-2.62-5.82-4.02-9.81-6.19-4.49-2.45-8.78-4.81-13.61-6.56-6-2.16-12.33-3.52-18.46-5.22,1.17.07,2.68-.54,3.79-.48,1.51.09,13.11,3.81,14.86,4.43.38.14.17.82.22.84.32.11.53-.63,1.05-.44.76.28,4.31,2.86,5.11,2.89,1.57.04,1.38-1.36,2.94-1.32,2.05.06,20.09,11.91,22.6,14.03,7.76,6.54,15.23,17.24,17.93,26.56.62,2.16,1.26,4.68,1.16,6.96Z"/>
  <path class="cls-38" d="M270.2,175.32l-2.53.25c-.06-1.19.03-2.41-.05-3.59-1.13,1,.17,4.02-.35,4.86-2.6,4.24-2.25-9.18-2.26-9.89-.97-.56-1.28-.81-1.26.65.05,3.01,2.71,12.09-2.37,10.81-.14-1.81.04-3.68-.08-5.49-1.72,2.88.11,3.24-3.52,5.12-.77-.11-.95-3.83-1.12-4.63-.09-.39.07-.88-.02-1.27-1.53-.22-1.71.22-2.52,1.3.55,1.34,1.32,3.28,1.76,4.62.85,2.58,3.42,6.54-.32,7.19.11.51-.05,1.15.03,1.69,3.91.53,6.74.64,10.56-.16.86-.18,1.59-.62,2.53-.46,0-.14,0-.28,0-.42-.06-1.93.48-5.13.74-7.19.12-.93.62-2.43.79-3.39Z"/>
  <path class="cls-73" d="M269.1,101.82c-.74,4.45-6.51,34.14-5.38,35.78,1.33,1.94,1.56-2.67,2.5-2.36-.63,4.57-1.37,9.32-.22,13.95-1.07,5.49-1.11,12.15-1,17.76.03,4.27.67,13.89.7,15.35.05,3.01.67,4.24-4.41,2.96-.14-1.81.12-10.52,0-12.34-.18-2.66-.43-5.31-.54-8.02-.22-5.52-.82-10.93-.67-16.47.17-6.18,1.39-12.46,1.84-18.62.7-9.57,1.66-19.2,2.53-28.77.32-3.48-1.43-10.8,3.86-10.2,4.65.53,1.36,7.6.8,10.97Z"/>
  <path class="cls-28" d="M401.57,88.87c4.05.21,7.04,4.31,9.4,7.04-3.38,10.79-17.12,5.96-25.27,5.45,3.8-3.92,10.14-12.78,15.87-12.49Z"/>
  <path class="cls-48" d="M371.15,117.2c-3.76,6-16.41,18.17-22.05,23.14-1.5,1.33-3.89,2.46-5.01,4.3-.14-.02-.28.02-.42,0l-.44-1.47c5.52-2.57,25.45-27.67,28.52-28.52.29-.08.89-.1,1.06.2-.98.53-1.18,1.59-1.66,2.35Z"/>
  <path class="cls-67" d="M381.28,73.54c-8.55-.95-27.76,7.21-35.53,11.51-16.9,9.36-35.8,26.93-48.82,41.28-2.27,2.5-6.51,6.56-8.32,9-3.58,4.81-7.14,11.65-9.89,17.05-1.58,3.11-3.63,6.11-4.93,9.37-2.03,5.07-2.63,8.27-3.6,13.57-.17.96-.68,2.46-.79,3.39.72-.19,1.01.6,1.7.4-.19-.77.15-1.11.4-1.7,3.47-8.24,5.7-17.09,9.77-25.07,4.38-8.61,11.31-16.39,17.82-23.5,12.73-13.9,31.34-30.89,47.56-40.42,10.56-6.21,25-12.47,37.42-11.96-.6-1.55-.87-2.7-2.79-2.92Z"/>
  <path class="cls-65" d="M407.44,85.82c-5.98-3.31-17.04-3.92-21.68-8.97-.45.14-1.39-.38-1.7-.4-12.42-.51-26.86,5.76-37.42,11.96-16.22,9.53-34.84,26.52-47.56,40.42-6.51,7.11-13.44,14.9-17.82,23.5-4.06,7.98-6.3,16.83-9.77,25.07-1.53,1.25-1.38,1.11-2.09,1.3-.26,2.07-.8,5.26-.74,7.19,1.46-.34,2.94-.95,4.2-1.75.16-.1,1.08-1.32,1.66-1.71,10.39-16.18,33.08-17.42,49.69-25.24,6.96-3.28,13.48-7.75,19.46-12.54l-.44-1.47c5.52-2.57,25.45-27.67,28.52-28.52.29-.08.89-.1,1.06.2-.98.53-1.18,1.59-1.66,2.35,4.99-5.17,9.55-10.68,14.55-15.85,3.8-3.92,10.14-12.78,15.87-12.49,4.05.21,7.04,4.31,9.4,7.04,1.57-5,.95-7.6-3.53-10.09Z"/>
  <path class="cls-48" d="M348.2,93.46l-29.43,23.89c7.92-9.75,19.28-16.55,29.43-23.89Z"/>
  <path class="cls-48" d="M370.42,110.46l-15.06,10.36-16.96,10.18c10.08-7.74,21.95-12.82,32.02-20.54Z"/>
  <path class="cls-48" d="M387.86,90.34c-7.9,2.68-18.5,9.64-24.94,13.47-7.46,4.44-15.13,8.55-22.19,13.64l22.2-12.79,28.51-14.58c-.07-.53-3.42.21-3.59.26Z"/>
  <path class="cls-55" d="M317.38,123.5c3.11-.83,4.24,4.08,1.34,4.63-3.15.59-3.56-4.04-1.34-4.63Z"/>
  <path class="cls-55" d="M191.53,112.63c3.11-.83,4.24,4.08,1.34,4.63-3.15.59-3.56-4.04-1.34-4.63Z"/>
  <path class="cls-69" d="M306.93,130.83c2.2-.51,3.82,3.39,1.75,4.2-3.58,1.41-4.06-3.66-1.75-4.2Z"/>
  <path class="cls-55" d="M329.71,128.8c2.26-.86,3.92,2.62,1.74,3.35-2.5.84-2.73-2.98-1.74-3.35Z"/>
  <g>
    <path class="cls-54" d="M276.85,111.42c-.32-.01-1.9-.8-2.75-.38-2.64,1.32-7.38,20.58-7.88,24.2-.63,4.57-1.37,9.32-.22,13.95,1.73-8.89,5.5-10.53,9.04-17.03,1.29-2.37.99-2.06,1.2-4.67.43-5.3-1.1-10.98.61-16.06Z"/>
    <path class="cls-68" d="M267.99,169.01c.45-2.12,2.7-7.08,3.66-9.35l.17-17.32c-4.18,9.25-4.51,16.41-3.83,26.67Z"/>
  </g>
  <path class="cls-58" d="M292.9,125.13c-.65-.21.66-1.63-.03-1.69-1.95-.17-18.4,30.21-19.99,33.67-.39.84-.87,1.71-1.23,2.55-.97,2.27-3.21,7.23-3.66,9.35-.23,1.09-.46,1.84-.38,2.96.08,1.18-.25,11.23-.18,12.43l1.4.85c.97-5.3,2.94-18.43,4.97-23.51,1.3-3.26,3.35-6.26,4.93-9.37,2.75-5.4,6.31-12.24,9.89-17.05l6.18-10.44c-.41-1.71-1.81.27-1.9.24Z"/>
  <path class="cls-37" d="M276.25,127.49c-.21,2.6.09,2.29-1.2,4.67-3.54,6.51-7.31,8.14-9.04,17.03-1.07,5.49-1.11,12.15-1,17.76.01.71.05,22.3,2.65,18.06.52-.85.29-8.07-.04-13.03-.08-1.13.15-1.87.38-2.96-.69-10.26-.35-17.42,3.83-26.67,1.51-3.34,3.21-6.42,5.35-9.37.32-.45.95-.9,1.25-1.29l-2.17-4.19Z"/>
  <path class="cls-33" d="M385.76,76.85c-.45.14-1.39-.38-1.7-.4-.6-1.55-.87-2.7-2.79-2.92-8.55-.95-27.76,7.21-35.53,11.51-16.9,9.36-35.8,26.93-48.82,41.28-2.27,2.5-6.51,6.56-8.32,9l6.18-10.44c-.41-1.71-1.81.27-1.9.24-.65-.21.66-1.63-.03-1.69-1.95-.17-18.4,30.21-19.99,33.67-.39.84-.87,1.71-1.23,2.55l.17-17.32c1.51-3.34,3.21-6.42,5.35-9.37.32-.45.95-.9,1.25-1.29.07-.09,1.45-.22,2.1-1.09,2.35-3.13,2.49-16.88-1.34-19.2-.83-.5-1.43.07-2.32.03-.32-.01-1.9-.8-2.75-.38-2.64,1.32-7.38,20.58-7.88,24.2-.94-.31-1.17,4.3-2.5,2.36-1.12-1.64,4.64-31.34,5.38-35.78,2.11.83.47-.79,2.1-.88-.12.64-1.04,4.08-.57,4.23,7.9-10.76,17.6-20.57,28.52-28.31.19-.13.65-.3.84-.43.63-.44,1.12-1.2,1.25-1.29,16.1-10.71,43.51-19.3,62.9-17.83,18.1,1.37,13.67,10.87,21.63,19.54Z"/>
  <path class="cls-69" d="M283.37,109.21c2.57-.56,4.13,3.48,1.33,4.21-3.27.85-3.78-3.67-1.33-4.21Z"/>
  <path class="cls-69" d="M289.2,103.63c2.85-.77,3.63,3.03,1.75,3.78-3.19,1.27-4.1-3.14-1.75-3.78Z"/>
  <path class="cls-69" d="M314.48,99.03c1.49-.66,2.64,2.14.88,2.52s-2-2.03-.88-2.52Z"/>
  <path class="cls-77" d="M261.92,129.81c-.45,6.15-1.66,12.43-1.84,18.62-1.48-9.94-2.65-19.95-3.82-29.94-.31-2.66-.7-5.35-.96-8.01l2.13,1.45,4.49,17.89Z"/>
  <path class="cls-19" d="M301.24,75.15c-.13.08-.62.85-1.25,1.29-.19.13-.65.3-.84.43-10.92,7.74-20.61,17.55-28.52,28.31-.47-.16.45-3.6.58-4.24.56-2.97,3.83-10.17,3.2-12.08-.72-2.19-6.4-1.87-8.05-1.36-.69.56-1.06.52-1.68.87-1.5,1.65-1.22,8.46-1.11,10.79.04.77-.39,2.09.88,1.89-.87,9.56-1.83,19.19-2.53,28.76l-4.49-17.89-2.14-1.44c-.93-9.26-4.41-14.18-8.96-20.15-7.19-8.02-15.8-15.98-25.03-21.6.05-6.36.37-12.71.98-19.02.88-9.05,4.17-33.47,9.12-40.49,4.46-6.33,14.65-.71,22.36-1.81.84-.12,1.12-.31,1.68-.45,9.76-2.3,13.43-12.08,21.92-3.49,9.22,9.32,16.77,34.38,19.72,47.24,1.84,8.07,3.33,16.19,4.16,24.44Z"/>
  <path class="cls-48" d="M263.25,68.66c1.35,7.74,3.35,11.75,3.11,18.83-.09.03-1.61.8-1.68.87-.6-8.23-2.07-16.33-3.32-24.45l1.89,4.75Z"/>
  <path class="cls-2" d="M123.06,86.09c-.58.08-1.26.15-2.06.19.59-.19,1.3-.24,2.06-.19Z"/>
  <path class="cls-51" d="M255.29,167.09c-.03-.13.03-.29,0-.42-1.61-1.61-2.49-4.29-3.47-6.29-6.17-12.49-12.92-22.78-23.29-32.19.22,3.14.32,3.98-.32,7.19,2.97,1.52,4.44,4.7,6.44,7.09.52.63,1.41,1.16,2.14,2.08,6.45,8.16,12.33,17.66,16.46,27.22.29.67.73,1.33.87,1.68.8-1.08.98-1.53,2.52-1.3-.38-1.69-.92-3.37-1.34-5.05Z"/>
  <path class="cls-69" d="M219.08,104.68c3.82-1.02,2.41,8.8-2.86,6.8-2.22-3.08.54-3.08,1.83-4.46.09-.09-.16-2.02,1.02-2.34Z"/>
  <path class="cls-23" d="M241.95,165.18c-4.74-3.8-14.11-4.55-19.96-6.89-7.65-3.05-20.33-10.17-27.26-14.8-.22-.15-1.08-2.61-2.16-3.35-6.38-4.36-13.28-7.83-19.41-12.81-2.08-1.69-10.32-10.52-11.57-11.02-.45-.18-1.53.3-1.25,1.07.85,1.16.62.98,5.39,7.52.8.19,4.14,5.41,4.95,6.26,5.98,6.31,13.33,13.46,20.55,18.28,1.11.75,2.63,1.32,3.83,2.06,2.53,1.54,5.05,2.75,7.67,4.11,12.83,6.67,25.02,9.7,36.2,19.32,3.83,3.3,8.54,9.85,12.42,11.22.47.17,1.19.28,1.7.4-2.85-5.53-6.46-17.67-11.09-21.38Z"/>
  <path class="cls-47" d="M255.87,178.07c-.44-1.34-1.21-3.28-1.76-4.62-.14-.35-.58-1.01-.87-1.68-4.13-9.56-10.01-19.06-16.46-27.22-.73-.92-1.62-1.46-2.14-2.08-2-2.39-3.47-5.57-6.44-7.09-.11.56-.63,2.48-.8,2.97,1.57-.03,1.9,1.7,2.57,2.5,1.41,1.67,2.98,3.24,4.3,5.01,6.04,8.09,11.34,16.8,15.6,25.96,1.21,2.6,2.43,5.32,3.5,7.98.53,1.31,1.96,4.41,2.19,5.46,3.73-.65,1.17-4.61.32-7.19Z"/>
  <path class="cls-53" d="M123.01,86.1s.04,0,.05,0c-.06,0-.1,0-.16,0-.26-.01-.52-.01-.76,0-.09,0-.17,0-.26.02-.31.03-.61.08-.88.17-1.75.55-1.51,2.47-2.06,3.83,5.3,3.69,9.8,1.47,14.82,1.89-1.54-2.76-6.96-5.67-10.76-5.91Z"/>
  <path class="cls-49" d="M176.74,84.18c-1.01-.57-2.32-1.08-3.4-1.64-2.5-1.3-5.76-3.07-8.3-4.1-1.88-.77-25.23-8.47-25.22-5.75,11,3.03,21.9,6.86,31.87,12.41,15.43,8.6,29.86,21.42,43.37,32.73.9.75,5.44,6.61,6.02,6.64.55.02,1.68-2.81,2.03-3.09-13.44-12.69-30.17-28.07-46.36-37.2Z"/>
  <path class="cls-69" d="M206.39,131.9c2.56-.56,3.58,3.66,1.33,4.21-2.91.71-3.57-3.72-1.33-4.21Z"/>
  <path class="cls-69" d="M203.17,114.21c2.23-.49,3.26,3.12,1.32,3.78-3.04,1.04-3.39-3.33-1.32-3.78Z"/>
  <path class="cls-69" d="M203.31,123.5c1.34-.16,2.88,2.72.9,3.37-2.65.86-2.64-3.16-.9-3.37Z"/>
  <path class="cls-21" d="M260.75,164.9c-.27-.03-2.61-1.98-3.03-5.02l-.89-.41c-24.72-88.53-2.23-6.45-3.05-8.83-2.53-7.28-7.72-14.64-10.04-21.82-.19-.59-.29-1.15-.45-1.68-1.15-3.97-2.01-8.29-3.14-12.21.91,3.5,2.15,9.39.19,12.67.28,1.27.84,2.23,1.32,3.36,3.27,7.78,7.24,13.96,10.06,22.12,1.51,4.36,2.43,9.11,3.57,13.59.03.13-.03.29,0,.42.42,1.68.97,3.36,1.34,5.05.09.39-.07.88.02,1.27.18.8.42,6.23,1.19,6.34,3.63-1.89,3.45-3.62,3.45-6.83-.18-2.66-.43-5.31-.54-8.02Z"/>
  <path class="cls-31" d="M281.76,242.74s-.01.02-.01.03v-.02s0-.01.01-.01Z"/>
  <path class="cls-24" d="M279.5,232.64c-3.22,11.89-7.64,19.31-11.8,30.17-.76-.02-.29-.96-.45-1.26l7.38-15.53c1.49-3.68,2.83-9.32,4.87-13.38Z"/>
  <path class="cls-24" d="M279.5,232.64c.15-.55.38-1.18.4-1.28.35.81-.3,1.08-.4,1.28Z"/>
  <path class="cls-29" d="M253.89,186.54c-2.16,4.59-4.97,9.21-6.55,14.04-1.05,3.2-1.74,6.86-2.39,10.18-1.59,8.2-2.3,16.89-2.59,24.54-.49,13.14.34,25.62,2.26,38.63-5.05-9.28-6.03-20.8-5.95-31.39.07-10.51,1.65-23.13,3.72-33.43.59-2.95,1.12-6.03,1.98-8.9,1.43-4.76,3.41-10.59,6.98-14.05.47.17,1.19.28,1.69.4.25.05.6-.07.85-.02Z"/>
  <path class="cls-7" d="M213.45,257.52l-.99-.1c-5.43-.56-10.93-1.4-16.25-2.21-5.77-.88-11.73-1.79-17.61-2.35-29.56-2.82-55.9-.87-78.31,5.79-6.85,2.04-9.79,3.64-15.65,6.82l-2.59,1.42.88-1.54c3.08-5.36,7.19-10.07,11.15-14.62.86-.99,1.73-1.98,2.58-2.98,8.14-9.5,14.82-16.52,21.68-22.76,3.17-3.17,8.35-7.25,14.87-8.54.11-.02.18-.04.23-.05,4.86-1.06,9.54-.63,12.07.06,3.28.89,19.16,6.34,31.77,10.73,26.98,9.4,27.37,9.71,27.42,10.09.22.95,6.93,17.15,8.24,19.39l.51.85Z"/>
  <path class="cls-45" d="M300.5,195.99c-.05,1.2-.22,2.53-.47,3.93-.28,1.55-.65,3.19-1.06,4.75-.03.12-.06.23-.09.35-.07.31-.15.62-.24.92-.08.31-.16.61-.24.91-.1.35-.2.71-.3,1.05-.08.28-.15.54-.23.8,0,.05-.03.09-.04.13-.01.02-.01.04-.02.06-.02.08-.05.16-.07.24-.07.21-.13.42-.2.63-.3.99-.63,2-1.01,3.02-.18.48-.35.96-.53,1.45,0,.03-.01.06-.03.09-.19.47-.37.95-.56,1.43-.14.37-.29.73-.44,1.1-.01.03-.02.05-.03.08-2.46,5.92-5.6,12.01-8.57,17.65-.05.09-.1.17-.14.25,0,.01-.01.01-.01.02-.97,1.83-1.91,3.62-2.81,5.33-.42.81-1.02,1.51-1.47,2.24-.06.11-.12.21-.18.32-.49-.36-.22-1.49-.03-1.9,4.18-8.92,7.95-15.73,11.04-25.3,1.25-3.89,2.97-7.81,3.62-11.88.33-2.09.6-4.14.7-6.14.08-1.55.06-3.07-.09-4.57-.35-3.53-1.47-6.92-3.88-10.16l-3.85-3.53c4.38,1.12,9.2,5.03,10.56,9.46.06.17.11.34.15.52.14.58.39.97.44,1.26.05.27.1,4.94.08,5.49Z"/>
  <path class="cls-76" d="M243.05,278.39c-1.85-.09-3.14-.13-5-.36-12.86-1.59-22.45-10.96-28.72-21-1.46-2.33-2.44-5.85-3.94-8.44-.34-2.01-2.25-6.44-3.75-8.07,0-.69.06-1.45-.03-2.13-.04-.34-.92-2-.94-2.13-1.06-6.46-2.38-7.26-2.09-18.78.86-12.48,1.38-15.26,4.2-22.29,2.07-5.17,4.63-8.36,5.88-10.09,2.49-3.41,5.88-6.19,9.6-8.17l-12.82,14.87c-6.69,18.69-4.26,44.94,4.57,62.07.23.45,1.13-.05,1.37.4,7.22,13.49,14.35,22.53,31.67,24.12Z"/>
  <path class="cls-62" d="M297,192.95c-.35-3.53-1.47-6.92-3.88-10.16l-3.85-3.53c-7.31-1.86-8.84-.81-14.74,3.18-.59.39-1.51,1.61-1.67,1.71-1.25.8-2.74,1.41-4.19,1.75v.43c-.94-.17-1.66.28-2.53.46-3.81.79-6.65.68-10.56.15-.79-.11-1.13-.28-1.69-.4-2.16,4.59-4.97,9.21-6.55,14.04-1.05,3.2-1.74,6.86-2.39,10.18-1.59,8.2-2.3,16.89-2.59,24.54-.49,13.14.34,25.62,2.26,38.63-5.05-9.28-6.03-20.8-5.95-31.39.07-10.51,1.65-23.13,3.72-33.43.59-2.95,1.12-6.03,1.98-8.9,1.43-4.76,3.41-10.59,6.98-14.05-3.88-1.37-8.59-7.92-12.42-11.22-7.74-1.95-13.54-1.79-20.67,1.99l-6.42,5.78c-7.68,7.81-9.67,16.73-10.75,21.88-4.4,20.96.88,34.58,8.17,49.58.22.45,1.05-.04,1.28.41,6.73,13.33,13.38,22.27,29.5,23.85,16.9.82,19.18.96,28.13-12.25,2.47-3.65,4.77-7.29,7.02-11.09.99-1.68,2.54-3.78,3.3-5.11.37-.66.73-1.66,1.23-2.56.77-1.39,1.28-3.23,2.02-4.64.01,0,.01-.01.01-.01v-.02s0-.01.01-.01c-.49-.36-.22-1.49-.03-1.9,4.18-8.92,7.95-15.73,11.04-25.3,1.25-3.89,2.97-7.81,3.62-11.88.33-2.09.6-4.14.7-6.14.09-2.64.07-2.57-.09-4.57Z"/>
  <path class="cls-52" d="M202.71,155.7c-2.67-1.38-5.22-2.62-7.81-4.18-1.22-.74-2.76-1.33-3.9-2.1-7.35-4.91-14.83-12.18-20.92-18.61-.82-.88-4.23-6.18-5.04-6.37-5.06.93-9.89,2.05-14.78,3.65-2.19.72-4.32,1.73-6.41,2.68-.36.16-1.37.3-1.72.46-.34.16-1.33,1.13-1.7,1.31-5.09,2.66-10.89,6.11-15.33,9.69-.09.07-.35-.07-.44,0-.02.02-.14.2-.42.44-1.7,1.44-3.6,3.18-5.09,4.81-.07.07.07.35,0,.43-1.6,1.8-3.7,4.15-5.07,6.1-.02.03-.05.33-.42.87-1.02,1.5-2.49,3.68-3.36,5.21-.32.55-.73,1.09-.84,1.3-.72,1.34-1.84,3.75-2.5,5.19-.13.31-.32.64-.42.87-.47,1.08-.82,2.35-1.23,3.46-.89,2.4-2.42,5.81-2.89,8.21-1.22,6.26-.78,10.68,2.39,16.31,1.92,1.44,3.63,4.4,5.68,5.93,2.24.27,4.6,2.31,7.14,2.47,8.39.56,16.86-5.69,24.16-8.96,13.08-5.85,21.76-8.8,36.4-10.01,6.02-.49,10.99.05,16.77.18,3.4.08,5.95.06,9.47.3,1.43.09,2.96-.41,4.31.37,2.53-3.48,5.98-6.31,9.77-8.32,7.26-3.86,13.16-4.02,21.04-2.04-11.38-9.79-23.79-12.88-36.85-19.66Z"/>
  <path class="cls-60" d="M196.23,153c-6.79,1.56-55.04-9.18-81.67,35.52-.27.46-3.97,9.91-4.55,8.33.73-1.96.65-4.69,1.19-6.68,6.07-22.11,30.28-33.58,49.75-38.16,2.06-.48,4.8-.55,6.86-.96,2.17-.43,8.35.06,8.82.3.58.3,10.92.42,13.12.67-1.96.01,6.57.95,6.47.97Z"/>
  <path class="cls-30" d="M148.09,165.54c-1.28.8-2.56,1.59-3.81,2.43-1.26.81-2.52,1.65-3.74,2.51-2.46,1.72-4.88,3.49-7.18,5.41-2.31,1.9-4.49,3.95-6.45,6.19-.97,1.13-1.86,2.33-2.61,3.61-.78,1.27-1.39,2.64-1.78,4.1.17-1.51.7-2.96,1.35-4.34.69-1.36,1.53-2.64,2.45-3.86,1.87-2.42,4.08-4.53,6.41-6.48,2.35-1.92,4.81-3.69,7.39-5.28,2.57-1.59,5.22-3.07,7.98-4.29Z"/>
  <path class="cls-43" d="M205.51,179.11c-2.05-.38-4.09-.73-6.15-1.02-2.05-.32-4.11-.59-6.17-.82-4.12-.46-8.25-.81-12.39-.84-2.07-.04-4.13-.01-6.19.11-2.06.13-4.11.39-6.14.71-2.03.34-4.04.85-5.97,1.55-1.95.68-3.81,1.6-5.52,2.8,3.18-2.75,7.27-4.22,11.35-5.1,4.11-.85,8.32-1.08,12.5-1.06,4.18.11,8.35.45,12.47,1.08,4.12.63,8.22,1.44,12.22,2.6Z"/>
  <path class="cls-39" d="M141.89,136.31c-1.28.8-2.56,1.59-3.81,2.43-1.26.81-2.52,1.65-3.74,2.51-2.46,1.72-4.88,3.49-7.18,5.41-2.31,1.9-4.49,3.95-6.45,6.19-.97,1.13-1.86,2.33-2.61,3.61-.78,1.27-1.39,2.64-1.78,4.1.17-1.51.7-2.96,1.35-4.34.69-1.36,1.53-2.64,2.45-3.86,1.87-2.42,4.08-4.53,6.41-6.48,2.35-1.92,4.81-3.69,7.39-5.28,2.57-1.59,5.22-3.07,7.98-4.29Z"/>
  <path class="cls-71" d="M143.85,153.48c.92-1.2,2.1-2.19,3.36-3.03,1.27-.84,2.62-1.54,4.03-2.12,2.82-1.14,5.76-1.94,8.74-2.49,2.98-.54,6-.89,9.02-1.1,3.02-.22,6.04-.25,9.08-.15l-.3.83c-1.06-.82-2.08-1.66-3.08-2.54-1-.88-1.97-1.8-2.85-2.82l.25.13c-2.45-.27-4.93-.42-7.41-.43-1.24-.01-2.48.02-3.71.14-1.23.13-2.47.31-3.61.81,1.1-.6,2.35-.87,3.58-1.07,1.24-.2,2.48-.3,3.73-.37,2.5-.09,4.99-.03,7.49.15h.14s.11.13.11.13c1.78,1.87,3.82,3.56,5.9,5.14l1.14.87-1.44-.04c-2.98-.08-5.99.04-8.98.19-2.99.17-5.98.48-8.93.98-2.95.49-5.88,1.14-8.69,2.16-2.78,1.04-5.53,2.41-7.6,4.63Z"/>
  <path class="cls-27" d="M171.61,142.41l-4.05.18c-1.34.08-2.67.14-3.99.29-1.32.13-2.64.31-3.94.57-1.3.28-2.58.61-3.86,1.09,1.09-.83,2.35-1.43,3.67-1.85,1.31-.42,2.68-.65,4.04-.8,2.73-.24,5.49-.13,8.14.53Z"/>
  <path class="cls-59" d="M358.74,183.87c2.76,1.23,5.4,2.71,7.98,4.29,2.58,1.58,5.05,3.35,7.39,5.28,2.33,1.94,4.54,4.06,6.41,6.48.92,1.22,1.76,2.5,2.45,3.86.65,1.37,1.19,2.83,1.35,4.34-.39-1.46-1-2.83-1.78-4.1-.76-1.28-1.65-2.48-2.61-3.61-1.96-2.24-4.14-4.29-6.45-6.19-2.3-1.91-4.72-3.68-7.18-5.41-1.23-.86-2.48-1.69-3.74-2.51-1.25-.84-2.53-1.63-3.81-2.43Z"/>
  <path class="cls-1" d="M340.95,147.62c3.24.08,6.43.71,9.54,1.62,1.55.48,3.07,1.04,4.54,1.73,1.47.69,2.87,1.53,4.15,2.52-1.48-.66-2.96-1.24-4.45-1.8-1.5-.52-3.01-1.04-4.53-1.49-3.05-.93-6.13-1.72-9.25-2.58Z"/>
  <path class="cls-57" d="M362.88,154.22c2.76,1.23,5.4,2.71,7.98,4.29,2.58,1.58,5.05,3.35,7.39,5.28,2.33,1.94,4.54,4.06,6.41,6.48.92,1.22,1.76,2.5,2.45,3.86.65,1.37,1.19,2.83,1.35,4.34-.39-1.46-1-2.83-1.78-4.1-.76-1.28-1.65-2.48-2.61-3.61-1.96-2.24-4.14-4.29-6.45-6.19-2.3-1.91-4.72-3.68-7.18-5.41-1.23-.86-2.48-1.69-3.74-2.51-1.25-.84-2.53-1.63-3.81-2.43Z"/>
  <path class="cls-56" d="M363.96,171.52c-1.51-2.59-3.87-4.5-6.33-6.1-2.5-1.58-5.2-2.81-7.95-3.9-2.75-1.09-5.58-2-8.44-2.77-2.86-.75-5.75-1.48-8.65-1.99l-1.25-.22,1.1-.63c2.28-1.31,4.49-2.8,6.69-4.27l.13-.09.14.02c2.48.37,4.93.86,7.34,1.5,1.2.34,2.4.71,3.56,1.18,1.15.47,2.31,1,3.25,1.83-1.01-.74-2.18-1.18-3.34-1.58-1.17-.39-2.38-.69-3.59-.95-2.41-.54-4.87-.94-7.32-1.21l.27-.07c-2.15,1.58-4.38,3.05-6.68,4.43l-.15-.85c2.97.51,5.88,1.14,8.76,1.97,2.88.82,5.72,1.77,8.5,2.91,2.77,1.15,5.45,2.54,7.93,4.23,2.43,1.73,4.73,3.84,6.02,6.56Z"/>
  <path class="cls-42" d="M339.31,154.62c2.73-.06,5.45.44,8.06,1.27,1.29.45,2.57.97,3.76,1.67,1.19.7,2.29,1.56,3.17,2.61-1.14-.76-2.32-1.36-3.53-1.91-1.21-.53-2.46-1-3.72-1.42-1.26-.43-2.54-.79-3.83-1.16l-3.91-1.06Z"/>
  <path class="cls-50" d="M385.69,134.62c4.38-1.47,8.84-2.7,13.36-3.72,4.51-1.01,9.07-1.85,13.67-2.41,4.6-.56,9.23-.89,13.87-.89,4.64.02,9.29.42,13.85,1.31l-.2.79c-2.87-.69-6.02-.72-9.06-.66-3.06.09-6.13.32-9.18.71-1.53.16-3.04.44-4.57.65l-4.54.81c-1.51.31-3.02.59-4.52.93l-4.49,1.05-.07-.33c5.22-.8,10.45-1.51,15.7-2.02,2.63-.25,5.27-.44,7.92-.51,1.32-.03,2.65-.02,3.99.07,1.33.12,2.68.2,4.01.89l1.36.7-1.56.04c-2.68.07-5.38.23-8.05.44-1.34.11-2.68.24-4,.41-1.32.18-2.65.38-3.92.7l-.12-.96c5.46-.02,10.92.01,16.37.21,2.73.1,5.46.23,8.19.43,1.36.1,2.73.23,4.1.41.68.09,1.37.2,2.06.34.34.08.69.16,1.04.27.35.15.71.19,1.14.69l.48.56-.76.2c-7.02,1.89-14.01,3.98-20.89,6.34-3.44,1.19-6.86,2.45-10.21,3.86-1.68.7-3.34,1.44-4.96,2.26-1.62.82-3.21,1.71-4.66,2.82l-.06-.08c1.42-1.16,2.99-2.1,4.59-2.98,1.6-.88,3.25-1.67,4.91-2.42,3.34-1.49,6.74-2.8,10.17-4.05,6.87-2.48,13.82-4.7,20.84-6.71l-.28.76s-.34-.22-.62-.3c-.3-.1-.62-.17-.94-.24-.65-.13-1.31-.24-1.98-.32-1.34-.17-2.69-.29-4.04-.39-2.71-.2-5.43-.32-8.15-.41-5.44-.16-10.89-.27-16.33-.28h-4.04s3.92-.96,3.92-.96c1.35-.33,2.69-.52,4.04-.7,1.35-.17,2.7-.29,4.05-.39,2.7-.21,5.4-.29,8.11-.33l-.2.75c-1.02-.56-2.38-.72-3.65-.84-1.3-.11-2.61-.14-3.92-.13-2.62.02-5.25.17-7.88.37-5.25.42-10.49,1.02-15.7,1.81l-.07-.33,4.51-1.02,4.52-.95,4.54-.85c1.52-.23,3.04-.5,4.57-.71,3.05-.45,6.13-.76,9.21-.91,3.1-.11,6.18-.18,9.32.51l-.2.79c-2.26-.41-4.53-.72-6.82-.92-2.29-.18-4.58-.27-6.88-.3-4.6-.04-9.2.25-13.77.77-4.57.53-9.13,1.23-13.65,2.16-4.51.93-9.02,1.96-13.44,3.29l-.03-.09Z"/>
  <path class="cls-48" d="M194.98,75.04c7.52,4.28,14.02,10.54,19.9,16.82l-19.9-16.82Z"/>
  <path class="cls-48" d="M197.3,88.95c5.86,3.62,10.57,8.91,15.62,13.5-3.04-.93-5.58-4.37-7.91-6.43-2.52-2.23-5.79-4.28-7.71-7.07Z"/>
  <path class="cls-48" d="M201.83,66.91c4.54,1.79,8.52,5.55,11.96,8.91-4.22-2.58-8.01-5.95-11.96-8.91Z"/>
  <path class="cls-48" d="M201.83,66.91c-.21-.16-1.42.43-1.28-.61.41-.41,1.21.59,1.28.61Z"/>
  <path class="cls-48" d="M149.31,100.22c8.49,5.09,16.23,11.51,23.3,18.45-4.26-2.44-7.92-5.87-11.75-8.91s-7.9-6.18-11.55-9.55Z"/>
  <path class="cls-48" d="M167.08,102.07c8.78,4.55,15.75,11.9,23.71,17.6-8.48-4.89-16.2-11.38-23.71-17.6Z"/>
  <path class="cls-48" d="M173.32,95.64c5.76,3.52,11.25,7.89,16.03,12.65-5.39-4.05-11.2-7.91-16.03-12.65Z"/>
  <path class="cls-48" d="M173.24,118.88c4.46,3.07,8.86,6.28,13.03,9.73l-6.61-4.34-6.42-5.4Z"/>
  <path class="cls-41" d="M261.48,110.48s-4.16-97.92-7.59-99.95"/>
  <path class="cls-48" d="M252.86,58.21c-.53,8.33,1.88,20.78,2.96,28.19,1.26,8.59,2.14,17.24,4.17,25.71l-3.38-25.4-2.63-31.91c-.51-.14-1.11,3.24-1.12,3.42Z"/>
  <path class="cls-70" d="M260.08,148.43c-1.48-9.94-2.65-19.95-3.82-29.94-.31-2.66-.7-5.35-.96-8.01-.94-9.26-2.04-17.28-2.09-26.59-.01-2.38,1.85-10.2-2.88-9.25-5.04,1.01.03,12.99.45,16.26.89,6.97,1.21,14.57,2.01,21.73,1.76,15.68,2.34,31.7,4.93,47.25,1.57,9.4,3.31,11.37,3.57,11.4-.22-5.52-1.36-17.31-1.21-22.85Z"/>
  <path class="cls-69" d="M279.96,81.32c2.57-.56,4.13,3.48,1.33,4.21-3.27.85-3.78-3.67-1.33-4.21Z"/>
  <path class="cls-69" d="M276.92,90.61c1.5-.33,2.41,2.03.78,2.45-1.91.5-2.21-2.14-.78-2.45Z"/>
  <path class="cls-69" d="M213.18,161.8c2.56-.56,3.58,3.66,1.33,4.21-2.91.71-3.57-3.72-1.33-4.21Z"/>
  <path class="cls-69" d="M219.1,165.84c3.47.26.36,7.1-3.38,6.29-1.05-.23-1.83-1.2-1.82-2.28.02-1.92,2.06-1.4,3.46-2.14.11-.06.51-1.96,1.74-1.87Z"/>
  <path class="cls-55" d="M160.15,160.64c3.11-.83,4.24,4.08,1.34,4.63-3.15.59-3.56-4.04-1.34-4.63Z"/>
  <path class="cls-26" d="M410.99,183.82c10.95,3.18,21.72,7.01,32.15,11.66,5.2,2.36,10.31,4.93,15.18,7.95,2.42,1.52,4.8,3.14,7,4.99,2.19,1.85,4.27,3.91,5.86,6.36l1.47,2.26-2.1-1.7c-3.98-3.23-8.2-6.22-12.54-8.98-4.35-2.76-8.85-5.28-13.5-7.5-4.66-2.2-9.48-4.06-14.44-5.46-2.48-.7-5.01-1.22-7.54-1.65-2.54-.4-5.11-.63-7.68-.71l.05-.42c4.67,1.11,9.27,2.46,13.82,3.97,4.55,1.51,9.05,3.18,13.45,5.11,4.4,1.92,8.71,4.06,12.81,6.59,4.1,2.52,7.98,5.46,11.3,9l1.76,1.88-2.34-1.12c-3.95-1.89-8.02-3.58-12.12-5.14-4.11-1.55-8.28-2.94-12.5-4.13-4.22-1.18-8.51-2.15-12.85-2.7-4.33-.56-8.74-.7-13.01.04l.14-.95,33.04,17.03,1.86.96-2.08-.16c-3.77-.3-7.55-.5-11.33-.65-3.78-.15-7.57-.24-11.35-.23-3.78.01-7.57.09-11.35.32-3.77.24-7.55.59-11.27,1.33l-.02-.1c3.7-.83,7.48-1.27,11.26-1.6,3.78-.34,7.58-.44,11.37-.51,3.79-.06,7.59-.02,11.38.08,3.79.11,7.58.26,11.37.51l-.22.79-33.13-16.88-1.36-.69,1.5-.26c4.43-.77,8.93-.63,13.32-.06,4.41.56,8.74,1.53,13,2.71,4.26,1.18,8.45,2.61,12.58,4.19,4.13,1.59,8.19,3.3,12.19,5.23l-.58.77c-3.21-3.47-7.02-6.38-11.05-8.91-4.02-2.55-8.28-4.73-12.63-6.69-4.35-1.97-8.81-3.69-13.33-5.25-4.52-1.54-9.11-2.93-13.74-4.08l.05-.42c2.59.11,5.17.36,7.73.78,2.55.44,5.08,1.01,7.57,1.7,4.99,1.37,9.84,3.23,14.54,5.38,4.7,2.15,9.27,4.6,13.68,7.31,4.41,2.72,8.7,5.61,12.74,8.89l-.63.55c-1.53-2.33-3.56-4.33-5.72-6.13-2.17-1.8-4.49-3.43-6.89-4.95-4.8-3.02-9.88-5.61-15.04-7.99-5.16-2.39-10.42-4.57-15.74-6.59-5.32-2.02-10.68-3.95-16.12-5.66l.03-.1Z"/>
  <path class="cls-15" d="M309.19,206.14s29.98,10.29,35.09,51.81c0,0-9.09-26.83-25.8-34.05"/>
  <path class="cls-14" d="M113.54,131.87s-28.21-20.52-70.62-16.98c0,0,21.67,8.36,37.16,23.85"/>
  <path class="cls-11" d="M226.71,120.2c-6.2-2.45-5.36,13.02-3.13,16.52,1.41,2.29,2.22,6.38,3.83,1.63.17-.49.69-2.41.8-2.97.64-3.21.54-4.04.32-7.19-.19-2.65-.49-5.64-1.81-8Z"/>
  <path class="cls-5" d="M239.21,108.6c-5.48-1.8-4.91,10.28-4.45,13.37.33,2.2,4.59,7.27,5.58,5.62,1.96-3.29.72-9.17-.19-12.67-.82-2.83-.75-3.32-.94-6.32Z"/>
  <path class="cls-10" d="M256.65,97.54c5.48-1.8,4.91,10.28,4.45,13.37-.33,2.2-4.59,7.27-5.58,5.62-1.96-3.29-.72-9.17.19-12.67.82-2.83.75-3.32.94-6.32Z"/>
  <path class="cls-9" d="M266.36,87.5c-.09.03-1.61.8-1.68.87-1.5,1.65-1.22,8.46-1.11,10.79.04.77-.4,2.09.87,1.89,2.9-.44,2.9.19,4.66.78,2.11.83.47-.79,2.1-.88.57-2.97,3.83-10.17,3.2-12.09-.72-2.19-6.4-1.87-8.05-1.36Z"/>
  <path class="cls-18" d="M279.18,111.39c-.83-.5-1.43.07-2.32.03-1.71,5.08-.18,10.76-.61,16.06l2.17,4.19c.07-.09,1.45-.22,2.1-1.09,2.35-3.14,2.49-16.88-1.34-19.2Z"/>
  <path class="cls-4" d="M294.56,103.56c-1.14.4-6.37,21.35-1.35,22.83,1.89.23,5.91-12.92,5.9-15.09,0-1.9-1.71-8.76-4.55-7.75Z"/>
  <path class="cls-12" d="M250.23,63.67c-1.14.4-6.37,21.35-1.35,22.83,1.89.23,5.91-12.92,5.9-15.09,0-1.9-1.71-8.76-4.55-7.75Z"/>
  <path class="cls-25" d="M319.69,136.56c1.32.21,1.3,3.93-.8,2.97-1.65-.75-.01-3.1.8-2.97Z"/>
  <path class="cls-25" d="M325.42,135.69c1.32.21,1.3,3.93-.8,2.97-1.65-.75-.01-3.1.8-2.97Z"/>
  <path class="cls-25" d="M203.93,163.76c1.32.21,1.3,3.93-.8,2.97-1.65-.75-.01-3.1.8-2.97Z"/>
  <path class="cls-25" d="M306.67,178.47c1.32.21,1.3,3.93-.8,2.97-1.65-.75-.01-3.1.8-2.97Z"/>
  <path class="cls-25" d="M293.66,190.68c1.28-.37,2.84,3.01.53,3.03-1.82.01-1.32-2.8-.53-3.03Z"/>
  <path class="cls-25" d="M238.42,158.33c.84.13.83,2.5-.51,1.89-1.05-.48,0-1.97.51-1.89Z"/>
  <path class="cls-25" d="M250.91,109.64c.84.13.83,2.5-.51,1.89-1.05-.48,0-1.97.51-1.89Z"/>
  <path class="cls-25" d="M314.52,95.49c.78.07.76,1.37-.49,1.04-.98-.26,0-1.09.49-1.04Z"/>
  <path class="cls-25" d="M155.95,166.51c.78.13.77,2.34-.48,1.77-.98-.45,0-1.84.48-1.77Z"/>
  <path class="cls-25" d="M313.02,96.86c.51.04.49.89-.32.68-.64-.17,0-.71.32-.68Z"/>
  <path class="cls-25" d="M268.85,87.83c.51.08.5,1.52-.31,1.15-.64-.29,0-1.2.31-1.15Z"/>
  <path class="cls-25" d="M268.8,89.43c.29.05.29.88-.18.66-.37-.17,0-.69.18-.66Z"/>
  <path class="cls-25" d="M272.65,92.63c.29.05.29.88-.18.66-.37-.17,0-.69.18-.66Z"/>
  <path class="cls-25" d="M270.09,91.78c.29.05.29.88-.18.66-.37-.17,0-.69.18-.66Z"/>
  <path class="cls-25" d="M271.98,92.13c.21.03.21.64-.13.48-.27-.12,0-.5.13-.48Z"/>
  <path class="cls-25" d="M271.93,90.82c.29.05.29.88-.18.66-.37-.17,0-.69.18-.66Z"/>
  <path class="cls-25" d="M271.26,95.49c.29.05.29.88-.18.66-.37-.17,0-.69.18-.66Z"/>
  <path class="cls-25" d="M270.8,94.19c.29.05.29.88-.18.66-.37-.17,0-.69.18-.66Z"/>
  <path class="cls-25" d="M271.41,94.66c.19.03.19.56-.11.42-.24-.11,0-.44.11-.42Z"/>
  <path class="cls-25" d="M272.44,88.52c.29.05.29.88-.18.66-.37-.17,0-.69.18-.66Z"/>
  <path class="cls-25" d="M273.08,89.98c.22.03.21.61-.13.46-.27-.12,0-.48.13-.46Z"/>
  <path class="cls-25" d="M172.89,142.58c.51.08.5,1.52-.31,1.15-.64-.29,0-1.2.31-1.15Z"/>
  <g>
    <path class="cls-25" d="M253.27,70.62c.51.08.5,1.52-.31,1.15-.64-.29,0-1.2.31-1.15Z"/>
    <path class="cls-25" d="M252.75,76.81c.29.05.29.88-.18.66-.37-.17,0-.69.18-.66Z"/>
    <path class="cls-25" d="M252.35,69.92c.29.05.29.88-.18.66-.37-.17,0-.69.18-.66Z"/>
    <path class="cls-25" d="M253.02,66.81c.29.05.29.88-.18.66-.37-.17,0-.69.18-.66Z"/>
    <path class="cls-25" d="M253,73.89c.22.03.21.61-.13.46-.27-.12,0-.48.13-.46Z"/>
    <path class="cls-25" d="M252.06,71.22c.22.03.21.61-.13.46-.27-.12,0-.48.13-.46Z"/>
    <path class="cls-25" d="M254.33,71.22c.22.03.21.61-.13.46-.27-.12,0-.48.13-.46Z"/>
  </g>
  <g>
    <path class="cls-25" d="M256.31,111.74c-.3-.05-.28-.9.19-.67.37.18,0,.7-.19.67Z"/>
    <path class="cls-25" d="M256.67,108.11c-.17-.03-.16-.52.11-.39.21.1,0,.41-.11.39Z"/>
    <path class="cls-25" d="M256.85,112.16c-.17-.03-.16-.52.11-.39.21.1,0,.41-.11.39Z"/>
    <path class="cls-25" d="M256.42,113.98c-.17-.03-.16-.52.11-.39.21.1,0,.41-.11.39Z"/>
    <path class="cls-25" d="M256.5,109.82c-.13-.02-.12-.36.08-.27.16.07,0,.28-.08.27Z"/>
    <path class="cls-25" d="M257.03,111.4c-.13-.02-.12-.36.08-.27.16.07,0,.28-.08.27Z"/>
    <path class="cls-25" d="M255.69,111.38c-.13-.02-.12-.36.08-.27.16.07,0,.28-.08.27Z"/>
  </g>
  <g>
    <path class="cls-25" d="M227.22,132.01c.49.16.27,1.58-.48,1.09-.59-.39.18-1.18.48-1.09Z"/>
    <path class="cls-25" d="M225.77,138.05c.28.09.15.91-.28.63-.34-.22.1-.68.28-.63Z"/>
    <path class="cls-25" d="M226.42,131.18c.28.09.15.91-.28.63-.34-.22.1-.68.28-.63Z"/>
    <path class="cls-25" d="M227.56,128.22c.28.09.15.91-.28.63-.34-.22.1-.68.28-.63Z"/>
    <path class="cls-25" d="M226.46,135.21c.21.07.12.64-.2.44-.25-.16.07-.48.2-.44Z"/>
    <path class="cls-25" d="M225.94,132.43c.21.07.12.64-.2.44-.25-.16.07-.48.2-.44Z"/>
    <path class="cls-25" d="M228.18,132.77c.21.07.12.64-.2.44-.25-.16.07-.48.2-.44Z"/>
  </g>
  <g>
    <path class="cls-25" d="M296.43,108.23c.52,0,.75,1.42-.12,1.18-.68-.18-.2-1.18.12-1.18Z"/>
    <path class="cls-25" d="M296.95,114.42c.3,0,.43.82-.07.68-.39-.1-.12-.68.07-.68Z"/>
    <path class="cls-25" d="M295.41,107.7c.3,0,.43.82-.07.68-.39-.1-.12-.68.07-.68Z"/>
    <path class="cls-25" d="M295.56,104.53c.3,0,.43.82-.07.68-.39-.1-.12-.68.07-.68Z"/>
    <path class="cls-25" d="M296.71,111.51c.22,0,.31.57-.05.48-.29-.07-.08-.48.05-.48Z"/>
    <path class="cls-25" d="M295.34,109.03c.22,0,.31.57-.05.48-.29-.07-.08-.48.05-.48Z"/>
    <path class="cls-25" d="M297.58,108.65c.22,0,.31.57-.05.48-.29-.07-.08-.48.05-.48Z"/>
  </g>
  <path class="cls-25" d="M281.09,118.39c.52,0,.75,1.42-.12,1.18-.68-.18-.2-1.18.12-1.18Z"/>
  <path class="cls-25" d="M281.19,120.32c.3,0,.43.82-.07.68-.39-.1-.12-.68.07-.68Z"/>
  <path class="cls-25" d="M280.9,115.68c.3,0,.43.82-.07.68-.39-.1-.12-.68.07-.68Z"/>
  <path class="cls-25" d="M278.97,112.85c.3,0,.43.82-.07.68-.39-.1-.12-.68.07-.68Z"/>
  <path class="cls-25" d="M280.13,119.84c.22,0,.31.57-.05.48-.29-.07-.08-.48.05-.48Z"/>
  <path class="cls-25" d="M281.19,124.69c.22,0,.31.57-.05.48-.29-.07-.08-.48.05-.48Z"/>
  <path class="cls-25" d="M279.82,113.53c.22,0,.31.57-.05.48-.29-.07-.08-.48.05-.48Z"/>
  <path class="cls-25" d="M281,116.98c.22,0,.31.57-.05.48-.29-.07-.08-.48.05-.48Z"/>
  <path class="cls-69" d="M248.39,80.64c-.3-.05-.29-.88.18-.67.37.17,0,.7-.18.67Z"/>
  <path class="cls-69" d="M248.69,77.04c-.17-.03-.17-.51.1-.39.21.1,0,.4-.1.39Z"/>
  <path class="cls-69" d="M248.93,81.05c-.17-.03-.17-.51.1-.39.21.1,0,.4-.1.39Z"/>
  <path class="cls-69" d="M248.54,82.86c-.17-.03-.17-.51.1-.39.21.1,0,.4-.1.39Z"/>
  <path class="cls-69" d="M248.55,78.73c-.13-.02-.12-.36.08-.27.16.07,0,.28-.08.27Z"/>
  <path class="cls-69" d="M249.09,80.29c-.13-.02-.12-.36.08-.27.16.07,0,.28-.08.27Z"/>
  <path class="cls-69" d="M247.77,80.29c-.13-.02-.12-.36.08-.27.16.07,0,.28-.08.27Z"/>
  <path class="cls-69" d="M265.47,98.15c-.34.02-.53-.92.05-.79.45.1.16.78-.05.79Z"/>
  <path class="cls-69" d="M265.47,93.57c-.2,0-.31-.53.03-.45.26.06.09.45-.03.45Z"/>
  <path class="cls-69" d="M267.05,98.21c-.2,0-.31-.53.03-.45.26.06.09.45-.03.45Z"/>
  <path class="cls-69" d="M266.63,100.09c-.2,0-.31-.53.03-.45.26.06.09.45-.03.45Z"/>
  <path class="cls-69" d="M265.69,95.49c-.14,0-.22-.37.02-.32.19.04.07.31-.02.32Z"/>
  <path class="cls-69" d="M267.09,96.51c-.14,0-.22-.37.02-.32.19.04.07.31-.02.32Z"/>
  <path class="cls-69" d="M264.7,96.83c-.14,0-.22-.37.02-.32.19.04.07.31-.02.32Z"/>
  <g>
    <path class="cls-55" d="M237.97,112.38c.33.09.21,1.04-.29.73-.4-.24.09-.79.29-.73Z"/>
    <path class="cls-55" d="M236.52,116.73c.19.05.12.6-.17.42-.23-.14.05-.45.17-.42Z"/>
    <path class="cls-55" d="M236.49,111.83c.19.05.12.6-.17.42-.23-.14.05-.45.17-.42Z"/>
    <path class="cls-55" d="M237.48,110.18c.19.05.12.6-.17.42-.23-.14.05-.45.17-.42Z"/>
    <path class="cls-55" d="M236.91,114.84c.14.04.09.42-.12.29-.17-.1.04-.32.12-.29Z"/>
    <path class="cls-55" d="M235.91,113.43c.14.04.09.42-.12.29-.17-.1.04-.32.12-.29Z"/>
    <path class="cls-55" d="M238.28,113.88c.14.04.09.42-.12.29-.17-.1.04-.32.12-.29Z"/>
  </g>
  <g>
    <path class="cls-55" d="M258.73,103.93c-.33.09-.21,1.04.29.73.4-.24-.09-.79-.29-.73Z"/>
    <path class="cls-55" d="M260.17,108.28c-.19.05-.12.6.17.42.23-.14-.05-.45-.17-.42Z"/>
    <path class="cls-55" d="M260.2,103.37c-.19.05-.12.6.17.42.23-.14-.05-.45-.17-.42Z"/>
    <path class="cls-55" d="M259.21,101.73c-.19.05-.12.6.17.42.23-.14-.05-.45-.17-.42Z"/>
    <path class="cls-55" d="M259.78,106.38c-.14.04-.09.42.12.29.17-.1-.04-.32-.12-.29Z"/>
    <path class="cls-55" d="M260.78,104.98c-.14.04-.09.42.12.29.17-.1-.04-.32-.12-.29Z"/>
    <path class="cls-55" d="M258.42,105.43c-.14.04-.09.42.12.29.17-.1-.04-.32-.12-.29Z"/>
  </g>
  <g>
    <path class="cls-55" d="M224.98,123.94c.33.09.21,1.04-.29.73-.4-.24.09-.79.29-.73Z"/>
    <path class="cls-55" d="M223.53,128.29c.19.05.12.6-.17.42-.23-.14.05-.45.17-.42Z"/>
    <path class="cls-55" d="M223.5,123.38c.19.05.12.6-.17.42-.23-.14.05-.45.17-.42Z"/>
    <path class="cls-55" d="M224.49,121.74c.19.05.12.6-.17.42-.23-.14.05-.45.17-.42Z"/>
    <path class="cls-55" d="M223.92,126.39c.14.04.09.42-.12.29-.17-.1.04-.32.12-.29Z"/>
    <path class="cls-55" d="M222.92,124.99c.14.04.09.42-.12.29-.17-.1.04-.32.12-.29Z"/>
    <path class="cls-55" d="M225.29,125.44c.14.04.09.42-.12.29-.17-.1.04-.32.12-.29Z"/>
  </g>
  <path class="cls-25" d="M240.24,120.78c.26.03.29.77-.13.59-.33-.13-.03-.61.13-.59Z"/>
  <path class="cls-25" d="M239.68,124.22c.57.07.64,1.67-.29,1.3-.73-.29-.07-1.34.29-1.3Z"/>
  <path class="cls-25" d="M238.61,126.46c.15.02.17.44-.08.34-.19-.08-.02-.35.08-.34Z"/>
  <path class="cls-25" d="M239.76,120.45c.15.02.17.44-.08.34-.19-.08-.02-.35.08-.34Z"/>
  <path class="cls-25" d="M237.9,123.59c.15.02.17.44-.08.34-.19-.08-.02-.35.08-.34Z"/>
  <path class="cls-25" d="M237.57,123.97c.11.01.12.31-.06.24-.14-.05-.01-.25.06-.24Z"/>
  <path class="cls-25" d="M239.64,121.12c.11.01.12.31-.06.24-.14-.05-.01-.25.06-.24Z"/>
  <path class="cls-25" d="M239.96,123.68c.11.01.12.31-.06.24-.14-.05-.01-.25.06-.24Z"/>
  <path class="cls-25" d="M318.34,149.21c.78.07.76,1.37-.49,1.04-.98-.26,0-1.09.49-1.04Z"/>
  <path class="cls-25" d="M316.84,150.58c.51.04.49.89-.32.68-.64-.17,0-.71.32-.68Z"/>
  <path class="cls-20" d="M247.17,107.81l-1.96,5.98s0,.01,0,.02c.09.76.19,1.64.28,2.57,0,0,0,0,0,.01,2.08,5.28,5.52,18.67,8.11,29.29.01.05,4.3,15.25,4.24,14.91-.07-.41-.09-.7-.11-.85-.95-10.15-7.5-41.73-10.46-51.93-.01-.05-.09-.05-.1,0Z"/>
  <path class="cls-63" d="M245.49,116.38c.36,3.77.65,6.25-1.96,8.51.15.53,1.05,3.27,1.24,3.85,2.33,7.18,11.37,28.48,13.87,35.77-.1-.65-.08-.32-.21-.94-.26-1.12-.3-1.87-.58-2.99-3.16-12.6-10.42-39.32-12.35-44.21Z"/>
  <path class="cls-17" d="M239.37,104.67c.6.56,1.17,1.44.9,1.55-.94.36-1.07,2.26-1.06,2.38.19,3.01.12,3.49.94,6.32,1.01,3.51,1.81,7.34,2.79,10.95.16.58.93.71,1.27.21,2.16-3.19,1.4-8.87,1-12.3l.29-1.11c-1.44-1.81-3.94-5.95-6.13-8.01Z"/>
  <path class="cls-22" d="M239.37,104.67s-.02-.04-.03-.06c0,.02.02.04.03.06Z"/>
  <path class="cls-16" d="M245.33,113.39l1.89-5.76c-1.01-3.45-2.32-16.01-8.45-14.24-4.53,1.31-1.03,7.93.57,11.22,0,0,0,0,0-.01l6,8.79Z"/>
  <g>
    <path class="cls-25" d="M243.43,122.4c-.24.04-.45-.61-.03-.56.33.04.17.54.03.56Z"/>
    <path class="cls-25" d="M242.77,119.55c-.14.02-.26-.35-.02-.32.19.02.1.31.02.32Z"/>
    <path class="cls-25" d="M243.94,122.58c-.14.02-.26-.35-.02-.32.19.02.1.31.02.32Z"/>
    <path class="cls-25" d="M244.09,124.07c-.14.02-.26-.35-.02-.32.19.02.1.31.02.32Z"/>
    <path class="cls-25" d="M243.07,120.89c-.1.02-.18-.24,0-.23.14.01.07.22,0,.23Z"/>
    <path class="cls-25" d="M243.88,121.96c-.1.02-.18-.24,0-.23.14.01.07.22,0,.23Z"/>
    <path class="cls-25" d="M242.86,122.29c-.1.02-.18-.24,0-.23.14.01.07.22,0,.23Z"/>
  </g>
  <g>
    <path class="cls-55" d="M240.39,109.09c-.23.16.11.84.41.48.24-.29-.27-.58-.41-.48Z"/>
    <path class="cls-55" d="M242.6,112.02c-.13.09.06.49.24.28.14-.16-.16-.33-.24-.28Z"/>
    <path class="cls-55" d="M241.36,108.29c-.13.09.06.49.24.28.14-.16-.16-.33-.24-.28Z"/>
    <path class="cls-55" d="M240.19,107.29c-.13.09.06.49.24.28.14-.16-.16-.33-.24-.28Z"/>
    <path class="cls-55" d="M241.81,110.68c-.1.06.04.34.17.19.1-.12-.11-.23-.17-.19Z"/>
    <path class="cls-55" d="M242.22,109.36c-.1.06.04.34.17.19.1-.12-.11-.23-.17-.19Z"/>
    <path class="cls-55" d="M240.54,110.31c-.1.06.04.34.17.19.1-.12-.11-.23-.17-.19Z"/>
  </g>
  <g>
    <path class="cls-25" d="M245.05,104.85c.3.05.28.9-.19.67-.37-.18,0-.7.19-.67Z"/>
    <path class="cls-25" d="M244.69,108.48c.17.03.16.52-.11.39-.21-.1,0-.41.11-.39Z"/>
    <path class="cls-25" d="M244.51,104.43c.17.03.16.52-.11.39-.21-.1,0-.41.11-.39Z"/>
    <path class="cls-25" d="M244.93,102.61c.17.03.16.52-.11.39-.21-.1,0-.41.11-.39Z"/>
    <path class="cls-25" d="M244.86,106.77c.13.02.12.36-.08.27-.16-.07,0-.28.08-.27Z"/>
    <path class="cls-25" d="M244.33,105.19c.13.02.12.36-.08.27-.16-.07,0-.28.08-.27Z"/>
    <path class="cls-25" d="M245.67,105.21c.13.02.12.36-.08.27-.16-.07,0-.28.08-.27Z"/>
  </g>
  <g>
    <path class="cls-55" d="M238.79,96.65c-.33.09-.21,1.04.29.73.4-.24-.09-.79-.29-.73Z"/>
    <path class="cls-55" d="M240.24,101c-.19.05-.12.6.17.42.23-.14-.05-.45-.17-.42Z"/>
    <path class="cls-55" d="M240.27,96.09c-.19.05-.12.6.17.42.23-.14-.05-.45-.17-.42Z"/>
    <path class="cls-55" d="M239.28,94.45c-.19.05-.12.6.17.42.23-.14-.05-.45-.17-.42Z"/>
    <path class="cls-55" d="M239.85,99.1c-.14.04-.09.42.12.29.17-.1-.04-.32-.12-.29Z"/>
    <path class="cls-55" d="M240.85,97.7c-.14.04-.09.42.12.29.17-.1-.04-.32-.12-.29Z"/>
    <path class="cls-55" d="M238.48,98.15c-.14.04-.09.42.12.29.17-.1-.04-.32-.12-.29Z"/>
  </g>
  <path class="cls-61" d="M179.75,232.9c-2.12-.38-4.14-1.13-6.16-1.83-2.02-.71-4.01-1.5-6.01-2.25-4-1.51-8-3-12.07-4.28-4.07-1.25-8.2-2.33-12.4-2.87-4.17-.49-8.55-.55-12.44,1.14-3.87,1.75-7.32,4.34-10.66,6.98-3.31,2.7-6.48,5.58-9.52,8.57-6.1,5.99-11.88,12.3-17.46,18.75l-.69-.65c4.94-4.75,10.03-9.34,15.35-13.67,2.66-2.16,5.36-4.29,8.22-6.2,1.43-.96,2.89-1.88,4.42-2.69,1.54-.77,3.12-1.6,5-1.66l.93-.03-.7.64-17.38,15.91-.33-.51c2.83-1.19,5.68-2.33,8.57-3.37,1.45-.51,2.91-.99,4.39-1.4.74-.2,1.49-.38,2.26-.47.38-.01.8-.11,1.17.17.18.2.07.45-.02.61-.09.18-.22.32-.35.47l-.08-.06c.12-.15.23-.3.32-.46.08-.16.14-.36.02-.46-.26-.19-.69-.12-1.05-.08-.75.11-1.48.32-2.21.55-1.46.45-2.89.99-4.32,1.55-2.85,1.1-5.68,2.29-8.47,3.53l-1.72.76,1.39-1.28,17.33-15.97.23.61c-1.57.07-3.14.89-4.61,1.68-1.47.82-2.89,1.76-4.28,2.74-2.77,1.97-5.47,4.06-8.1,6.23-2.64,2.16-5.21,4.41-7.77,6.67-2.56,2.26-5.09,4.55-7.57,6.89l-.69-.65c5.67-6.43,11.64-12.57,17.87-18.45,3.13-2.92,6.3-5.8,9.63-8.5,1.66-1.36,3.35-2.67,5.11-3.9,1.76-1.22,3.57-2.4,5.52-3.33,1.97-.93,4.13-1.42,6.29-1.62,2.16-.2,4.34-.12,6.48.13,4.3.49,8.47,1.6,12.55,2.93,4.09,1.32,8.08,2.88,12.03,4.51l5.93,2.44c1.98.79,3.96,1.62,6.04,2.09l-.02.1Z"/>
  <path class="cls-55" d="M204.05,216.6c2.26-.86,3.92,2.62,1.74,3.35-2.5.84-2.73-2.98-1.74-3.35Z"/>
  <path class="cls-55" d="M209.1,214c.88-.33,1.52,1.02.68,1.3-.97.33-1.06-1.16-.68-1.3Z"/>
  <path class="cls-55" d="M209.1,216.51c.88-.33,1.52,1.02.68,1.3-.97.33-1.06-1.16-.68-1.3Z"/>
  <path class="cls-3" d="M256.09,190.65s-6.48,11.18-6.22,17.46"/>
  <path class="cls-40" d="M96.13,185.3c-6.42.84-12.77,2.06-19.06,3.54-3.14.74-6.26,1.57-9.35,2.51-3.1.9-6.16,1.93-9.19,3.03-6.06,2.21-11.98,4.91-17.34,8.51-5.33,3.62-10.12,8.18-13.33,13.75l-.54-.43c3.51-3.28,7.3-6.19,11.24-8.9,3.94-2.71,8.08-5.14,12.38-7.23,4.29-2.12,8.79-3.82,13.4-5.1,2.31-.64,4.66-1.1,7.02-1.48,2.36-.36,4.75-.51,7.13-.58v.1c-4.74.37-9.42,1.29-13.94,2.69-4.54,1.35-8.91,3.21-13.16,5.29-4.25,2.1-8.33,4.52-12.28,7.13-3.93,2.64-7.76,5.48-11.31,8.59l-1.78,1.56,1.24-2c3.47-5.57,8.4-10.03,13.76-13.64,5.38-3.64,11.22-6.56,17.24-8.97,3.01-1.22,6.1-2.23,9.21-3.18,3.12-.9,6.27-1.7,9.43-2.41,6.34-1.38,12.76-2.41,19.22-2.88v.1Z"/>
  <path class="cls-75" d="M290.81,249.08c-.18.02-.46.07-.47.25.02.17.19.32.33.45.31.26.66.47,1.01.67.71.4,1.45.75,2.2,1.08,1.48.68,3,1.29,4.54,1.85,3.07,1.13,6.17,2.18,9.3,3.12,3.13.96,6.28,1.82,9.45,2.64,1.58.42,3.18.8,4.77,1.16,1.59.4,3.2.74,4.8,1.11-3.27-.32-6.52-.86-9.75-1.52-3.23-.65-6.42-1.49-9.57-2.43-3.15-.97-6.26-2.05-9.29-3.36-1.51-.66-3.01-1.35-4.47-2.13-.72-.4-1.44-.82-2.12-1.29-.34-.24-.67-.49-.97-.78-.13-.15-.31-.32-.31-.56.08-.26.36-.23.55-.25Z"/>
  <path class="cls-74" d="M102.92,220.97c-3.47-.43-6.95-.73-10.44-.94-3.49-.22-6.98-.39-10.47-.44-6.98-.13-13.97-.1-20.94.33-6.97.36-13.94.93-20.86,1.83-6.94.79-13.83,2-20.72,3.21l5.12-1.16c1.71-.37,3.41-.79,5.14-1.09,3.45-.61,6.89-1.27,10.36-1.73,6.93-1.06,13.92-1.62,20.91-2.06l5.25-.21,5.26-.08c1.75-.04,3.5.02,5.26.03,1.75,0,3.5.08,5.25.16,7,.32,14,.89,20.88,2.14Z"/>
  <path class="cls-64" d="M164.09,189.84c2.98-.36,5.97-.56,8.96-.72,2.99-.17,5.99-.22,8.99-.22,3,.01,6,.1,9,.35,2.99.25,6,.58,8.89,1.43l-2.23-.28-2.23-.18c-1.49-.09-2.98-.18-4.47-.2-2.98-.06-5.97-.13-8.96-.12h-8.97c-2.99-.01-5.98,0-8.98-.06Z"/>
  <path class="cls-36" d="M29.64,216.46c2.37-1.89,4.84-3.62,7.35-5.31,2.51-1.69,5.09-3.26,7.72-4.77,2.63-1.49,5.33-2.88,8.12-4.08,2.78-1.18,5.68-2.27,8.72-2.51-.73.21-1.47.36-2.18.59-.71.26-1.42.5-2.11.78l-2.07.87-2.03.97c-2.68,1.35-5.34,2.75-7.95,4.25-2.62,1.48-5.21,3.02-7.8,4.55l-7.76,4.66Z"/>
</svg>